<svg width="14" height="15" viewBox="0 0 14 15" fill="none" xmlns="http://www.w3.org/2000/svg">
<path d="M11.6668 5.31234V10.9998C11.6668 12.7498 10.6227 13.3332 9.3335 13.3332H4.66683C3.37766 13.3332 2.3335 12.7498 2.3335 10.9998V5.31234C2.3335 3.4165 3.37766 2.979 4.66683 2.979C4.66683 3.34067 4.81265 3.66734 5.05181 3.9065C5.29098 4.14567 5.61766 4.2915 5.97933 4.2915H8.021C8.74433 4.2915 9.3335 3.70234 9.3335 2.979C10.6227 2.979 11.6668 3.4165 11.6668 5.31234Z" stroke="#292D32" stroke-linecap="round" stroke-linejoin="round"/>
<path d="M9.33317 2.979C9.33317 3.70234 8.744 4.2915 8.02067 4.2915H5.979C5.61734 4.2915 5.29065 4.14567 5.05149 3.9065C4.81232 3.66734 4.6665 3.34067 4.6665 2.979C4.6665 2.25567 5.25567 1.6665 5.979 1.6665H8.02067C8.38234 1.6665 8.70902 1.81234 8.94819 2.05151C9.18735 2.29067 9.33317 2.61734 9.33317 2.979Z" stroke="#292D32" stroke-linecap="round" stroke-linejoin="round"/>
<path d="M4.6665 8.0835H6.99984" stroke="#292D32" stroke-linecap="round" stroke-linejoin="round"/>
<path d="M4.6665 10.4165H9.33317" stroke="#292D32" stroke-linecap="round" stroke-linejoin="round"/>
</svg>
