<svg width="24" height="24" viewBox="0 0 24 24" fill="none" xmlns="http://www.w3.org/2000/svg">
<rect width="24" height="24" rx="12" fill="#94D401"/>
<path d="M6.16699 11.9997C6.16699 12.2487 6.27743 12.4798 6.38201 12.6532C6.49486 12.8405 6.64662 13.0337 6.81311 13.2222C7.14711 13.6002 7.5829 14.0062 8.00582 14.3735C8.43121 14.7429 8.85514 15.083 9.17182 15.3302C9.33043 15.454 9.46275 15.5549 9.55569 15.6252C9.60217 15.6603 9.63883 15.6877 9.66405 15.7065L9.69309 15.7281L9.7008 15.7338L9.70347 15.7358C9.92581 15.8996 10.2391 15.8523 10.4029 15.63C10.5666 15.4076 10.5192 15.0946 10.2969 14.9309L10.2884 14.9246L10.2617 14.9047C10.2381 14.8871 10.2031 14.861 10.1585 14.8272C10.0691 14.7597 9.94101 14.662 9.78712 14.5419C9.47881 14.3012 9.06941 13.9727 8.66148 13.6184C8.25107 13.262 7.85353 12.8895 7.56253 12.5601C7.54413 12.5393 7.52632 12.5188 7.5091 12.4987L17.3337 12.4987C17.6098 12.4987 17.8337 12.2748 17.8337 11.9987C17.8337 11.7225 17.6098 11.4987 17.3337 11.4987L7.51079 11.4987C7.52748 11.4792 7.54473 11.4594 7.56253 11.4392C7.85353 11.1099 8.25107 10.7373 8.66148 10.3809C9.06941 10.0267 9.47881 9.69808 9.78712 9.45744C9.94101 9.33732 10.0691 9.23959 10.1585 9.17209C10.2031 9.13835 10.2381 9.11219 10.2617 9.09458L10.2884 9.07474L10.2969 9.06846C10.5192 8.90468 10.5666 8.5917 10.4029 8.36937C10.2391 8.14704 9.92581 8.09978 9.70347 8.26355L9.7008 8.26553L9.69309 8.27123L9.66405 8.29282C9.63883 8.31161 9.60216 8.33906 9.55568 8.37417C9.46275 8.44438 9.33043 8.54534 9.17182 8.66914C8.85514 8.91632 8.43121 9.25646 8.00581 9.62586C7.5829 9.99311 7.14711 10.3991 6.81311 10.7771C6.64662 10.9656 6.49486 11.1589 6.382 11.3461C6.27806 11.5185 6.16832 11.7479 6.167 11.9952" fill="#161616"/>
</svg>
