<svg width="36" height="36" viewBox="0 0 36 36" fill="none" xmlns="http://www.w3.org/2000/svg">
<circle cx="18" cy="18" r="18" fill="#94D401"/>
<path d="M11.9616 11.9996C11.733 12.2462 11.6062 12.5714 11.5264 12.8483C11.4413 13.1437 11.3833 13.4816 11.3427 13.8296C11.2612 14.5268 11.2409 15.3445 11.2475 16.1098C11.2541 16.8793 11.2883 17.6165 11.3207 18.1599C11.3369 18.432 11.3527 18.6566 11.3645 18.8137C11.3704 18.8922 11.3753 18.954 11.3787 18.9964L11.3828 19.0452L11.3839 19.0581L11.3843 19.0632C11.4203 19.4758 11.7839 19.7812 12.1966 19.7453C12.6092 19.7093 12.9145 19.3451 12.8786 18.9325L12.8784 18.93L12.8775 18.9191L12.8738 18.8745C12.8706 18.8351 12.8659 18.7765 12.8603 18.7013C12.849 18.5509 12.8337 18.3341 12.818 18.0707C12.7866 17.5431 12.7538 16.8328 12.7474 16.0968C12.741 15.3564 12.7617 14.6102 12.8325 14.0035C12.8365 13.9695 12.8406 13.9361 12.8449 13.9034L23.4699 24.5285C23.7628 24.8214 24.2377 24.8214 24.5306 24.5285C24.8235 24.2356 24.8235 23.7607 24.5306 23.4678L13.9031 12.8403C13.9174 12.8385 13.9319 12.8368 13.9465 12.8351C14.5464 12.7648 15.2968 12.7438 16.0468 12.7495C16.7921 12.7553 17.5159 12.7871 18.0549 12.8178C18.3239 12.8331 18.5458 12.848 18.7 12.8591C18.777 12.8646 18.8371 12.8691 18.8776 12.8723L18.9234 12.8759L18.9379 12.8771C19.3506 12.9114 19.7131 12.6046 19.7474 12.1918C19.7817 11.779 19.4744 11.4165 19.0616 11.3822L19.057 11.3818L19.0438 11.3807L18.9939 11.3768C18.9506 11.3734 18.8875 11.3687 18.8073 11.3629C18.6468 11.3514 18.4174 11.336 18.14 11.3202C17.5861 11.2887 16.8362 11.2556 16.0583 11.2496C15.2851 11.2436 14.4629 11.2643 13.772 11.3453C13.4277 11.3856 13.0932 11.4434 12.8041 11.5292C12.5406 11.6075 12.2023 11.7401 11.9616 11.9996Z" fill="#222222"/>
</svg>
