<svg width="9" height="6" viewBox="0 0 9 6" fill="none" xmlns="http://www.w3.org/2000/svg">
<path d="M0.902478 0.703524C0.983736 0.811106 1.22634 1.13227 1.37083 1.31741C1.66021 1.68822 2.05561 2.18094 2.48215 2.67221C2.91085 3.16595 3.36119 3.64681 3.76126 4.00031C3.96187 4.17756 4.13809 4.31225 4.28351 4.39992C4.42028 4.48237 4.50107 4.49951 4.50107 4.49951C4.50107 4.49951 4.57949 4.48236 4.71625 4.39992C4.86167 4.31225 5.03789 4.17757 5.2385 4.00031C5.63858 3.64682 6.08892 3.16595 6.51761 2.6722C6.94415 2.18093 7.33955 1.6882 7.62894 1.31739C7.77342 1.13224 8.01569 0.811535 8.09695 0.703952C8.2607 0.481603 8.57404 0.433646 8.79639 0.597401C9.01874 0.761156 9.06623 1.07415 8.90248 1.2965L8.9013 1.29806C8.81618 1.41077 8.56477 1.74363 8.41729 1.93261C8.12137 2.3118 7.71441 2.81907 7.27271 3.32781C6.83316 3.83406 6.34938 4.35319 5.90064 4.74969C5.67684 4.94744 5.44998 5.12525 5.23253 5.25634C5.02882 5.37915 4.77089 5.5 4.49988 5.5C4.22887 5.5 3.97095 5.37914 3.76723 5.25633C3.54979 5.12525 3.32293 4.94744 3.09913 4.74969C2.65038 4.35319 2.1666 3.83406 1.72705 3.32782C1.28535 2.81909 0.878398 2.31182 0.582479 1.93264C0.434942 1.74359 0.183627 1.41086 0.0985969 1.29828L0.0975196 1.29686C-0.0662368 1.07451 -0.0189732 0.761191 0.203374 0.597435C0.425715 0.433684 0.738717 0.481194 0.902478 0.703524Z" fill="#292D32"/>
</svg>
