<svg width="24" height="24" viewBox="0 0 24 24" fill="none" xmlns="http://www.w3.org/2000/svg">
<rect width="24" height="24" rx="12" fill="#94D401"/>
<path d="M17.833 12.0003C17.833 11.7513 17.7226 11.5202 17.618 11.3468C17.5051 11.1595 17.3534 10.9663 17.1869 10.7778C16.8529 10.3998 16.4171 9.99378 15.9942 9.62653C15.5688 9.25713 15.1449 8.91699 14.8282 8.66981C14.6696 8.54601 14.5373 8.44505 14.4443 8.37484C14.3978 8.33973 14.3612 8.31228 14.336 8.29349L14.3069 8.2719L14.2992 8.26619L14.2965 8.26422C14.0742 8.10045 13.7609 8.14771 13.5971 8.37004C13.4334 8.59237 13.4808 8.90535 13.7031 9.06913L13.7116 9.07541L13.7383 9.09525C13.7619 9.11285 13.7969 9.13902 13.8415 9.17276C13.9309 9.24026 14.059 9.33799 14.2129 9.45811C14.5212 9.69875 14.9306 10.0273 15.3385 10.3816C15.7489 10.738 16.1465 11.1105 16.4375 11.4399C16.4559 11.4607 16.4737 11.4812 16.4909 11.5013L6.66633 11.5013C6.39019 11.5013 6.16633 11.7252 6.16633 12.0013C6.16633 12.2775 6.39019 12.5013 6.66633 12.5013L16.4892 12.5013C16.4725 12.5208 16.4553 12.5406 16.4375 12.5608C16.1465 12.8901 15.7489 13.2627 15.3385 13.6191C14.9306 13.9733 14.5212 14.3019 14.2129 14.5426C14.059 14.6627 13.9309 14.7604 13.8415 14.8279C13.7969 14.8617 13.7619 14.8878 13.7383 14.9054L13.7116 14.9253L13.7031 14.9315C13.4808 15.0953 13.4334 15.4083 13.5971 15.6306C13.7609 15.853 14.0742 15.9002 14.2965 15.7364L14.2992 15.7345L14.3069 15.7288L14.336 15.7072C14.3612 15.6884 14.3978 15.6609 14.4443 15.6258C14.5373 15.5556 14.6696 15.4547 14.8282 15.3309C15.1449 15.0837 15.5688 14.7435 15.9942 14.3741C16.4171 14.0069 16.8529 13.6009 17.1869 13.2229C17.3534 13.0344 17.5051 12.8411 17.618 12.6539C17.7219 12.4815 17.8317 12.2521 17.833 12.0048" fill="#161616"/>
</svg>
