<svg width="16" height="17" viewBox="0 0 16 17" fill="none" xmlns="http://www.w3.org/2000/svg">
<path d="M10.3931 9.17325C8.23315 9.17325 6.47314 7.41326 6.47314 5.25326C6.47314 3.09326 8.23315 1.33325 10.3931 1.33325C12.5531 1.33325 14.3132 3.09326 14.3132 5.25326C14.3132 7.41326 12.5531 9.17325 10.3931 9.17325ZM10.3931 2.33325C8.78648 2.33325 7.47314 3.63992 7.47314 5.25326C7.47314 6.86659 8.77981 8.17325 10.3931 8.17325C12.0065 8.17325 13.3132 6.86659 13.3132 5.25326C13.3132 3.63992 11.9998 2.33325 10.3931 2.33325Z" fill="#292D32"/>
<path d="M4.24034 13.9599C2.83367 13.9599 1.68701 12.8133 1.68701 11.4066C1.68701 9.99994 2.83367 8.85327 4.24034 8.85327C5.647 8.85327 6.79368 9.99994 6.79368 11.4066C6.79368 12.8133 5.647 13.9599 4.24034 13.9599ZM4.24034 9.85327C3.387 9.85327 2.68701 10.5466 2.68701 11.4066C2.68701 12.2599 3.38034 12.9599 4.24034 12.9599C5.09367 12.9599 5.79368 12.2666 5.79368 11.4066C5.79368 10.5533 5.09367 9.85327 4.24034 9.85327Z" fill="#292D32"/>
<path d="M11.0802 15.6665C9.8602 15.6665 8.87354 14.6732 8.87354 13.4598C8.87354 12.2398 9.86687 11.2532 11.0802 11.2532C12.2935 11.2532 13.2869 12.2465 13.2869 13.4598C13.2869 14.6732 12.2935 15.6665 11.0802 15.6665ZM11.0802 12.2465C10.4135 12.2465 9.87354 12.7865 9.87354 13.4532C9.87354 14.1198 10.4135 14.6598 11.0802 14.6598C11.7469 14.6598 12.2869 14.1198 12.2869 13.4532C12.2869 12.7932 11.7469 12.2465 11.0802 12.2465Z" fill="#292D32"/>
</svg>
