<svg width="20" height="21" viewBox="0 0 20 21" fill="none" xmlns="http://www.w3.org/2000/svg">
<rect width="20" height="20.7143" rx="10" fill="#94D401"/>
<path d="M7.66727 14.5238C7.66727 14.5238 7.6626 14.5238 7.6606 14.5238C7.48326 14.5211 7.32062 14.4258 7.23329 14.2718C6.11462 12.3144 5.3426 12.2048 5.33394 12.2034C5.33394 12.2034 5.16205 12.2438 4.98491 12.0576C4.80778 11.8714 4.83387 11.6592 4.83387 11.6592C4.83387 11.6592 4.84429 11.4665 4.98491 11.3285C5.12554 11.1904 5.33394 11.1904 5.33394 11.1904C5.52727 11.1904 6.46793 11.2904 7.67326 13.0831C8.7646 11.4204 11.7159 7.25243 14.4933 6.22176C14.7519 6.12576 15.04 6.25776 15.136 6.51643C15.232 6.77509 15.1 7.0631 14.8413 7.1591C11.7493 8.30644 8.13128 14.2231 8.09462 14.2831C8.00395 14.4324 7.84194 14.5238 7.66727 14.5238Z" fill="white"/>
</svg>
