<svg width="16" height="17" viewBox="0 0 16 17" fill="none" xmlns="http://www.w3.org/2000/svg">
<rect x="0.5" y="1" width="15" height="15" rx="7.5" stroke="black"/>
<path d="M5.66752 12.6666C5.66752 12.6666 5.66284 12.6666 5.66084 12.6666C5.48351 12.6639 5.32086 12.5686 5.23353 12.4146C4.11486 10.4573 3.34285 10.3476 3.33418 10.3462C3.33418 10.3462 3.16229 10.3866 2.98516 10.2004C2.80802 10.0142 2.83411 9.802 2.83411 9.802C2.83411 9.802 2.84453 9.60929 2.98516 9.47127C3.12578 9.33326 3.33418 9.33326 3.33418 9.33326C3.52751 9.33326 4.46817 9.43325 5.67351 11.2259C6.76484 9.56325 9.71616 5.39525 12.4935 4.36459C12.7522 4.26859 13.0402 4.40058 13.1362 4.65925C13.2322 4.91792 13.1002 5.20592 12.8415 5.30192C9.74954 6.44926 6.13153 12.3659 6.09486 12.4259C6.00419 12.5752 5.84218 12.6666 5.66752 12.6666Z" fill="black"/>
</svg>
