<svg width="16" height="16" viewBox="0 0 16 16" fill="none" xmlns="http://www.w3.org/2000/svg">
<path d="M8.49992 5.3335C8.49992 5.05735 8.27606 4.8335 7.99992 4.8335C7.72378 4.8335 7.49992 5.05735 7.49992 5.3335V8.00016C7.49992 8.13277 7.5526 8.25995 7.64637 8.35372L8.9797 9.68705C9.17496 9.88231 9.49154 9.88231 9.68681 9.68705C9.88207 9.49179 9.88207 9.17521 9.68681 8.97994L8.49992 7.79306V5.3335Z" fill="#161616"/>
<path fill-rule="evenodd" clip-rule="evenodd" d="M7.99992 0.833496C4.04188 0.833496 0.833252 4.04212 0.833252 8.00016C0.833252 11.9582 4.04188 15.1668 7.99992 15.1668C11.958 15.1668 15.1666 11.9582 15.1666 8.00016C15.1666 4.04212 11.958 0.833496 7.99992 0.833496ZM1.83325 8.00016C1.83325 4.59441 4.59416 1.8335 7.99992 1.8335C11.4057 1.8335 14.1666 4.59441 14.1666 8.00016C14.1666 11.4059 11.4057 14.1668 7.99992 14.1668C4.59416 14.1668 1.83325 11.4059 1.83325 8.00016Z" fill="#161616"/>
</svg>
