<svg width="20" height="20" viewBox="0 0 20 20" fill="none" xmlns="http://www.w3.org/2000/svg">
<path d="M4.54838 5.79924C2.52572 6.36092 1.0415 8.21513 1.0415 10.4166C1.0415 12.9254 2.96953 14.9838 5.4247 15.1911C5.59551 15.2055 5.68091 15.2127 5.74893 15.1733C5.81695 15.1339 5.86549 15.0298 5.96257 14.8217C6.08027 14.5693 6.25596 14.3336 6.46444 14.131C6.74065 13.8625 7.07221 13.686 7.42119 13.601C7.68019 13.5379 7.8097 13.5063 7.8631 13.4383C7.9165 13.3703 7.9165 13.2607 7.9165 13.0415L7.91651 11.0416C7.91651 9.89099 8.84924 8.95825 9.99984 8.95825C11.1504 8.95825 12.0832 9.89099 12.0832 11.0416V13.0415C12.0832 13.2607 12.0832 13.3703 12.1366 13.4383C12.19 13.5063 12.3195 13.5379 12.5785 13.601C12.9275 13.686 13.259 13.8625 13.5352 14.131C13.7428 14.3328 13.8993 14.5672 14.0046 14.8183C14.0902 15.0225 14.133 15.1246 14.1959 15.1664C14.2588 15.2083 14.3503 15.2083 14.5332 15.2083H14.5832C16.9994 15.2083 18.9582 13.2495 18.9582 10.8333C18.9582 8.77367 17.535 7.04649 15.6184 6.58146C15.4156 6.53225 15.3142 6.50764 15.2621 6.44849C15.21 6.38933 15.1986 6.28708 15.1758 6.08262C14.8855 3.48101 12.6789 1.45825 9.99984 1.45825C7.56377 1.45825 5.51877 3.13036 4.94926 5.38978C4.90809 5.55312 4.88751 5.63479 4.84044 5.683C4.79337 5.73121 4.71171 5.75389 4.54838 5.79924Z" fill="#161616"/>
<path d="M10.0047 10.2083C10.465 10.2083 10.8381 10.5813 10.8381 11.0416V14.7916L11.3235 14.7916C11.4699 14.7915 11.6496 14.7914 11.7966 14.8098L11.7994 14.8101C11.9048 14.8232 12.3848 14.8831 12.6134 15.3544C12.8426 15.8268 12.591 16.2436 12.5365 16.3337L12.5345 16.3371C12.4577 16.4646 12.3459 16.607 12.2539 16.7242L12.2341 16.7494C11.9886 17.0625 11.6703 17.4661 11.3533 17.7919C11.1951 17.9545 11.014 18.1222 10.8216 18.2546C10.6506 18.3722 10.3587 18.5416 9.99984 18.5416C9.64095 18.5416 9.34912 18.3722 9.17807 18.2546C8.98565 18.1222 8.8046 17.9545 8.6464 17.7919C8.32938 17.4661 8.01107 17.0625 7.76554 16.7494L7.74577 16.7242C7.65381 16.607 7.54202 16.4646 7.46518 16.3371L7.46315 16.3337C7.40871 16.2436 7.1571 15.8268 7.38623 15.3544C7.61487 14.8831 8.0949 14.8232 8.20028 14.8101L8.20307 14.8098C8.3501 14.7914 8.52981 14.7915 8.67617 14.7916L9.17139 14.7916V11.0416C9.17139 10.5813 9.54448 10.2083 10.0047 10.2083Z" fill="#161616"/>
</svg>
