<svg width="18" height="19" viewBox="0 0 18 19" fill="none" xmlns="http://www.w3.org/2000/svg">
<path fill-rule="evenodd" clip-rule="evenodd" d="M14.0303 0.496582H13.9694C13.3534 0.496572 12.8472 0.496564 12.4376 0.535507C12.012 0.575974 11.6267 0.662861 11.2762 0.877624C10.9283 1.09084 10.6358 1.38337 10.4225 1.7313C10.2078 2.08176 10.1209 2.46705 10.0804 2.89266C10.0415 3.30224 10.0415 3.8085 10.0415 4.42445V4.48537C10.0415 5.10132 10.0415 5.6076 10.0804 6.01717C10.1209 6.44279 10.2078 6.82807 10.4225 7.17853C10.6358 7.52646 10.9283 7.819 11.2762 8.03221C11.6267 8.24697 12.012 8.33386 12.4376 8.37433C12.8472 8.41327 13.3534 8.41326 13.9694 8.41325H14.0303C14.6463 8.41326 15.1525 8.41327 15.5621 8.37433C15.9877 8.33386 16.373 8.24697 16.7235 8.03221C17.0714 7.819 17.3639 7.52646 17.5771 7.17853C17.7919 6.82807 17.8788 6.44279 17.9192 6.01717C17.9582 5.6076 17.9582 5.10134 17.9582 4.48538V4.42445C17.9582 3.8085 17.9582 3.30224 17.9192 2.89266C17.8788 2.46705 17.7919 2.08176 17.5771 1.7313C17.3639 1.38337 17.0714 1.09084 16.7235 0.877624C16.373 0.662861 15.9877 0.575974 15.5621 0.535507C15.1525 0.496564 14.6462 0.496572 14.0303 0.496582ZM11.9293 1.94342C12.0504 1.86925 12.2218 1.81166 12.5559 1.77989C12.8993 1.74724 13.3459 1.74658 13.9998 1.74658C14.6538 1.74658 15.1004 1.74724 15.4438 1.77989C15.7779 1.81166 15.9493 1.86925 16.0703 1.94342C16.2501 2.05357 16.4012 2.20468 16.5113 2.38442C16.5855 2.50547 16.6431 2.67686 16.6749 3.01098C16.7075 3.35439 16.7082 3.80097 16.7082 4.45492C16.7082 5.10887 16.7075 5.55544 16.6749 5.89886C16.6431 6.23297 16.5855 6.40436 16.5113 6.52541C16.4012 6.70515 16.2501 6.85627 16.0703 6.96641C15.9493 7.04059 15.7779 7.09817 15.4438 7.12994C15.1004 7.16259 14.6538 7.16325 13.9998 7.16325C13.3459 7.16325 12.8993 7.16259 12.5559 7.12994C12.2218 7.09817 12.0504 7.04059 11.9293 6.96641C11.7496 6.85627 11.5985 6.70515 11.4883 6.52541C11.4142 6.40436 11.3566 6.23297 11.3248 5.89886C11.2922 5.55544 11.2915 5.10887 11.2915 4.45492C11.2915 3.80097 11.2922 3.35439 11.3248 3.01098C11.3566 2.67686 11.4142 2.50547 11.4883 2.38442C11.5985 2.20468 11.7496 2.05357 11.9293 1.94342Z" fill="#94D401"/>
<path fill-rule="evenodd" clip-rule="evenodd" d="M3.96938 0.496582H4.03029C4.64625 0.496572 5.15252 0.496564 5.5621 0.535507C5.98771 0.575974 6.373 0.662861 6.72346 0.877624C7.07139 1.09084 7.36392 1.38337 7.57713 1.7313C7.79189 2.08176 7.87878 2.46705 7.91925 2.89266C7.95819 3.30223 7.95818 3.80848 7.95817 4.42443V4.48538C7.95818 5.10132 7.95819 5.6076 7.91925 6.01717C7.87878 6.44279 7.79189 6.82807 7.57713 7.17853C7.36392 7.52646 7.07139 7.819 6.72346 8.03221C6.373 8.24697 5.98771 8.33386 5.5621 8.37433C5.15252 8.41327 4.64627 8.41326 4.03033 8.41325H3.96937C3.35343 8.41326 2.84715 8.41327 2.43758 8.37433C2.01197 8.33386 1.62668 8.24697 1.27622 8.03221C0.928289 7.819 0.635758 7.52646 0.422546 7.17853C0.207783 6.82807 0.120896 6.44279 0.0804286 6.01717C0.0414857 5.6076 0.041494 5.10133 0.0415042 4.48538V4.42446C0.041494 3.80851 0.0414857 3.30224 0.0804286 2.89266C0.120896 2.46705 0.207783 2.08176 0.422546 1.7313C0.635758 1.38337 0.928289 1.09084 1.27622 0.877624C1.62668 0.662861 2.01197 0.575974 2.43758 0.535507C2.84716 0.496564 3.35343 0.496572 3.96938 0.496582ZM2.5559 1.77989C2.22178 1.81166 2.05039 1.86925 1.92934 1.94342C1.74961 2.05357 1.59849 2.20468 1.48835 2.38442C1.41417 2.50547 1.35658 2.67686 1.32482 3.01098C1.29216 3.35439 1.2915 3.80097 1.2915 4.45492C1.2915 5.10887 1.29216 5.55544 1.32482 5.89886C1.35658 6.23297 1.41417 6.40436 1.48835 6.52541C1.59849 6.70515 1.74961 6.85627 1.92934 6.96641C2.05039 7.04059 2.22178 7.09817 2.5559 7.12994C2.89931 7.16259 3.34589 7.16325 3.99984 7.16325C4.65379 7.16325 5.10036 7.16259 5.44378 7.12994C5.77789 7.09817 5.94929 7.04059 6.07033 6.96641C6.25007 6.85627 6.40119 6.70515 6.51133 6.52541C6.58551 6.40436 6.64309 6.23297 6.67486 5.89886C6.70751 5.55544 6.70817 5.10887 6.70817 4.45492C6.70817 3.80097 6.70751 3.35439 6.67486 3.01098C6.64309 2.67686 6.58551 2.50547 6.51133 2.38442C6.40119 2.20468 6.25007 2.05357 6.07033 1.94342C5.94929 1.86925 5.77789 1.81166 5.44378 1.77989C5.10036 1.74724 4.65379 1.74658 3.99984 1.74658C3.34589 1.74658 2.89931 1.74724 2.5559 1.77989Z" fill="#94D401"/>
<path fill-rule="evenodd" clip-rule="evenodd" d="M3.96938 10.4966C3.35344 10.4966 2.84715 10.4966 2.43758 10.5355C2.01197 10.576 1.62668 10.6629 1.27622 10.8776C0.928289 11.0908 0.635758 11.3834 0.422546 11.7313C0.207783 12.0818 0.120896 12.467 0.0804286 12.8927C0.0414855 13.3022 0.041494 13.8085 0.0415042 14.4245V14.4854C0.041494 15.1013 0.0414855 15.6076 0.0804286 16.0172C0.120896 16.4428 0.207783 16.8281 0.422546 17.1785C0.635758 17.5265 0.928289 17.819 1.27622 18.0322C1.62668 18.247 2.01197 18.3339 2.43758 18.3743C2.84716 18.4133 3.35342 18.4133 3.96937 18.4132H4.03031C4.64626 18.4133 5.15252 18.4133 5.5621 18.3743C5.98771 18.3339 6.373 18.247 6.72346 18.0322C7.07139 17.819 7.36392 17.5265 7.57713 17.1785C7.79189 16.8281 7.87878 16.4428 7.91925 16.0172C7.95819 15.6076 7.95818 15.1013 7.95817 14.4854V14.4244C7.95818 13.8085 7.95819 13.3022 7.91925 12.8927C7.87878 12.467 7.79189 12.0818 7.57713 11.7313C7.36392 11.3834 7.07139 11.0908 6.72346 10.8776C6.373 10.6629 5.98771 10.576 5.5621 10.5355C5.15252 10.4966 4.64627 10.4966 4.03033 10.4966H3.96938ZM1.92934 11.9434C2.05039 11.8692 2.22178 11.8117 2.5559 11.7799C2.89931 11.7472 3.34589 11.7466 3.99984 11.7466C4.65379 11.7466 5.10036 11.7472 5.44378 11.7799C5.77789 11.8117 5.94929 11.8692 6.07033 11.9434C6.25007 12.0536 6.40119 12.2047 6.51133 12.3844C6.58551 12.5055 6.64309 12.6769 6.67486 13.011C6.70751 13.3544 6.70817 13.801 6.70817 14.4549C6.70817 15.1089 6.70751 15.5554 6.67486 15.8989C6.64309 16.233 6.58551 16.4044 6.51133 16.5254C6.40119 16.7051 6.25007 16.8563 6.07033 16.9664C5.94929 17.0406 5.77789 17.0982 5.44378 17.1299C5.10036 17.1626 4.65379 17.1632 3.99984 17.1632C3.34589 17.1632 2.89931 17.1626 2.5559 17.1299C2.22178 17.0982 2.05039 17.0406 1.92934 16.9664C1.74961 16.8563 1.59849 16.7051 1.48835 16.5254C1.41417 16.4044 1.35658 16.233 1.32482 15.8989C1.29216 15.5554 1.2915 15.1089 1.2915 14.4549C1.2915 13.801 1.29216 13.3544 1.32482 13.011C1.35658 12.6769 1.41417 12.5055 1.48835 12.3844C1.59849 12.2047 1.74961 12.0536 1.92934 11.9434Z" fill="#94D401"/>
<path fill-rule="evenodd" clip-rule="evenodd" d="M15.5621 10.5355C15.1525 10.4966 14.6462 10.4966 14.0303 10.4966H13.9694C13.3534 10.4966 12.8472 10.4966 12.4376 10.5355C12.012 10.576 11.6267 10.6629 11.2762 10.8776C10.9283 11.0908 10.6358 11.3834 10.4225 11.7313C10.2078 12.0818 10.1209 12.467 10.0804 12.8927C10.0415 13.3022 10.0415 13.8085 10.0415 14.4245V14.4854C10.0415 15.1013 10.0415 15.6076 10.0804 16.0172C10.1209 16.4428 10.2078 16.8281 10.4225 17.1785C10.6358 17.5265 10.9283 17.819 11.2762 18.0322C11.6267 18.247 12.012 18.3339 12.4376 18.3743C12.8472 18.4133 13.3534 18.4133 13.9694 18.4132H14.0303C14.6463 18.4133 15.1525 18.4133 15.5621 18.3743C15.9877 18.3339 16.373 18.247 16.7235 18.0322C17.0714 17.819 17.3639 17.5265 17.5771 17.1785C17.7919 16.8281 17.8788 16.4428 17.9192 16.0172C17.9582 15.6076 17.9582 15.1013 17.9582 14.4854V14.4244C17.9582 13.8085 17.9582 13.3022 17.9192 12.8927C17.8788 12.467 17.7919 12.0818 17.5771 11.7313C17.3639 11.3834 17.0714 11.0908 16.7235 10.8776C16.373 10.6629 15.9877 10.576 15.5621 10.5355ZM11.9293 11.9434C12.0504 11.8692 12.2218 11.8117 12.5559 11.7799C12.8993 11.7472 13.3459 11.7466 13.9998 11.7466C14.6538 11.7466 15.1004 11.7472 15.4438 11.7799C15.7779 11.8117 15.9493 11.8692 16.0703 11.9434C16.2501 12.0536 16.4012 12.2047 16.5113 12.3844C16.5855 12.5055 16.6431 12.6769 16.6749 13.011C16.7075 13.3544 16.7082 13.801 16.7082 14.4549C16.7082 15.1089 16.7075 15.5554 16.6749 15.8989C16.6431 16.233 16.5855 16.4044 16.5113 16.5254C16.4012 16.7051 16.2501 16.8563 16.0703 16.9664C15.9493 17.0406 15.7779 17.0982 15.4438 17.1299C15.1004 17.1626 14.6538 17.1632 13.9998 17.1632C13.3459 17.1632 12.8993 17.1626 12.5559 17.1299C12.2218 17.0982 12.0504 17.0406 11.9293 16.9664C11.7496 16.8563 11.5985 16.7051 11.4883 16.5254C11.4142 16.4044 11.3566 16.233 11.3248 15.8989C11.2922 15.5554 11.2915 15.1089 11.2915 14.4549C11.2915 13.801 11.2922 13.3544 11.3248 13.011C11.3566 12.6769 11.4142 12.5055 11.4883 12.3844C11.5985 12.2047 11.7496 12.0536 11.9293 11.9434Z" fill="#94D401"/>
</svg>
