<svg width="21" height="21" viewBox="0 0 21 21" fill="none" xmlns="http://www.w3.org/2000/svg">
<path d="M7.5582 13.3969C7.31412 13.1528 7.31412 12.7571 7.5582 12.513L12.5582 7.51302C12.8023 7.26894 13.198 7.26894 13.4421 7.51302C13.6862 7.7571 13.6862 8.15283 13.4421 8.3969L8.44208 13.3969C8.198 13.641 7.80228 13.641 7.5582 13.3969Z" fill="#94D401"/>
<path d="M8.00014 7.12163C7.5399 7.12163 7.16681 7.49472 7.16681 7.95496C7.16681 8.4152 7.5399 8.7883 8.00014 8.7883L8.00761 8.7883C8.46785 8.7883 8.84095 8.4152 8.84095 7.95496C8.84095 7.49472 8.46785 7.12163 8.00761 7.12163L8.00014 7.12163Z" fill="#94D401"/>
<path d="M12.9927 12.1216C12.5324 12.1216 12.1593 12.4947 12.1593 12.955C12.1593 13.4152 12.5324 13.7883 12.9927 13.7883L13.0001 13.7883C13.4604 13.7883 13.8335 13.4152 13.8335 12.955C13.8335 12.4947 13.4604 12.1216 13.0001 12.1216L12.9927 12.1216Z" fill="#94D401"/>
<path fill-rule="evenodd" clip-rule="evenodd" d="M9.7514 2.2898L9.81933 2.38025C10.1468 2.81631 10.8534 2.81631 11.181 2.38025L11.2489 2.2898C12.0432 1.23224 13.6793 1.23223 14.4736 2.2898L14.9056 2.86498C14.9571 2.93359 15.0444 2.97568 15.1495 2.97037C15.2546 2.96507 15.3333 2.91495 15.3745 2.84548C15.7642 2.18815 16.4864 2.00986 17.0667 2.15355C17.6489 2.29769 18.2085 2.79961 18.2085 3.57808L18.2085 17.3318C18.2085 18.1103 17.6489 18.6122 17.0667 18.7564C16.4864 18.9001 15.7642 18.7218 15.3745 18.0644C15.3333 17.995 15.2546 17.9449 15.1495 17.9396C15.0444 17.9342 14.9571 17.9763 14.9056 18.0449L14.4736 18.6201C13.6793 19.6777 12.0432 19.6777 11.2489 18.6201L11.181 18.5297C10.8534 18.0936 10.1468 18.0936 9.81933 18.5297L9.7514 18.6201C8.95709 19.6777 7.32097 19.6777 6.52666 18.6201L6.09466 18.0449C6.04313 17.9763 5.95586 17.9342 5.85073 17.9396C5.74569 17.9449 5.66701 17.995 5.62581 18.0644C5.23605 18.7218 4.51391 18.9001 3.93356 18.7564C3.35137 18.6122 2.79181 18.1103 2.79181 17.3318L2.79181 3.57808C2.79181 2.79961 3.35137 2.2977 3.93356 2.15355C4.51391 2.00986 5.23605 2.18815 5.62581 2.84548C5.66701 2.91495 5.74569 2.96506 5.85073 2.97037C5.95586 2.97568 6.04313 2.93359 6.09466 2.86498L6.52666 2.2898C7.32097 1.23223 8.95709 1.23224 9.7514 2.2898ZM8.75191 3.04049C8.45763 2.64867 7.82043 2.64867 7.52615 3.04049L7.09415 3.61567C6.45092 4.47209 5.10131 4.41176 4.55062 3.48302C4.49041 3.38148 4.37684 3.33154 4.23398 3.36691C4.16482 3.38404 4.11421 3.41779 4.08501 3.45116C4.06073 3.4789 4.04181 3.5156 4.04181 3.57808L4.04181 17.3318C4.04181 17.3943 4.06073 17.431 4.08501 17.4588C4.11421 17.4921 4.16482 17.5259 4.23398 17.543C4.37684 17.5784 4.49041 17.5284 4.55062 17.4269C5.10131 16.4982 6.45092 16.4378 7.09415 17.2943L7.52615 17.8694C7.82043 18.2613 8.45763 18.2613 8.75191 17.8694L8.81984 17.779C9.64738 16.6772 11.3529 16.6772 12.1804 17.779L12.2484 17.8694C12.5426 18.2613 13.1799 18.2613 13.4741 17.8694L13.9061 17.2943C14.5494 16.4378 15.899 16.4982 16.4497 17.4269C16.5099 17.5284 16.6234 17.5784 16.7663 17.543C16.8355 17.5259 16.8861 17.4921 16.9153 17.4588C16.9395 17.431 16.9585 17.3943 16.9585 17.3318L16.9585 3.57808C16.9585 3.5156 16.9395 3.4789 16.9153 3.45116C16.8861 3.41779 16.8355 3.38404 16.7663 3.36691C16.6234 3.33154 16.5099 3.38148 16.4497 3.48302C15.899 4.41176 14.5494 4.47209 13.9061 3.61567L13.4741 3.04049C13.1799 2.64867 12.5426 2.64867 12.2484 3.04049L12.1804 3.13093C11.3529 4.23275 9.64738 4.23275 8.81984 3.13093L8.75191 3.04049Z" fill="#94D401"/>
</svg>
