<svg width="19" height="17" viewBox="0 0 19 17" fill="none" xmlns="http://www.w3.org/2000/svg">
<path d="M11.7917 5.12175C11.7917 5.46692 11.5119 5.74675 11.1667 5.74675L4.50008 5.74675C4.1549 5.74675 3.87508 5.46692 3.87508 5.12175C3.87508 4.77657 4.1549 4.49674 4.50008 4.49674L11.1667 4.49675C11.5119 4.49675 11.7917 4.77657 11.7917 5.12175Z" fill="#94D401"/>
<path d="M11.1667 9.08008C11.5119 9.08008 11.7917 8.80026 11.7917 8.45508C11.7917 8.1099 11.5119 7.83008 11.1667 7.83008H4.50008C4.1549 7.83008 3.87508 8.1099 3.87508 8.45508C3.87508 8.80026 4.1549 9.08008 4.50008 9.08008H11.1667Z" fill="#94D401"/>
<path d="M8.45842 11.7884C8.45842 12.1336 8.17859 12.4134 7.83342 12.4134H4.50008C4.1549 12.4134 3.87508 12.1336 3.87508 11.7884C3.87508 11.4432 4.1549 11.1634 4.50008 11.1634H7.83342C8.17859 11.1634 8.45842 11.4432 8.45842 11.7884Z" fill="#94D401"/>
<path fill-rule="evenodd" clip-rule="evenodd" d="M6.12102 0.330079H9.54581C10.6855 0.330062 11.6041 0.330048 12.3265 0.427182C13.0766 0.528029 13.7082 0.743774 14.2098 1.24537C14.7114 1.74697 14.9271 2.37853 15.028 3.12862C15.0812 3.52443 15.1053 3.97911 15.1161 4.49675L15.3746 4.49675C15.9286 4.49672 16.406 4.49669 16.7883 4.54809C17.198 4.60317 17.5907 4.72738 17.9092 5.04592C18.2278 5.36446 18.352 5.75718 18.4071 6.16688C18.4585 6.54916 18.4584 7.02653 18.4584 7.58058L18.4584 14.2884C18.4584 15.5541 17.4324 16.5801 16.1667 16.5801C16.1658 16.5801 16.1649 16.5801 16.164 16.5801H6.12102C4.98136 16.5801 4.06276 16.5801 3.34029 16.483C2.5902 16.3821 1.95864 16.1664 1.45704 15.6648C0.955443 15.1632 0.739699 14.5316 0.638852 13.7815C0.541718 13.0591 0.541732 12.1405 0.541748 11.0008V5.90935C0.541732 4.7697 0.541718 3.85109 0.638852 3.12862C0.739699 2.37853 0.955444 1.74697 1.45704 1.24537C1.95864 0.743774 2.5902 0.528029 3.34029 0.427182C4.06276 0.330048 4.98137 0.330062 6.12102 0.330079ZM16.1649 15.3301C16.1655 15.3301 16.1661 15.3301 16.1667 15.3301C16.742 15.3301 17.2084 14.8637 17.2084 14.2884V7.62175C17.2084 7.01482 17.2071 6.62251 17.1682 6.33344C17.1318 6.06235 17.0729 5.97738 17.0254 5.92981C16.9778 5.88223 16.8928 5.82339 16.6217 5.78694C16.3327 5.74808 15.9403 5.74675 15.3334 5.74675H15.1251V5.79961C15.1251 5.83596 15.1251 5.87254 15.1251 5.90936V10.9551C15.1251 10.9556 15.1251 10.956 15.1251 10.9565V14.2884C15.1251 14.8631 15.5905 15.3291 16.1649 15.3301ZM13.8751 14.2884C13.8751 14.6635 13.9652 15.0176 14.125 15.3301H6.16675C4.97057 15.3301 4.13631 15.3288 3.50685 15.2441C2.89537 15.1619 2.57156 15.0115 2.34092 14.7809C2.11029 14.5503 1.95992 14.2265 1.87771 13.615C1.79308 12.9855 1.79175 12.1513 1.79175 10.9551V5.95508C1.79175 4.7589 1.79308 3.92464 1.87771 3.29518C1.95992 2.6837 2.11029 2.35989 2.34092 2.12925C2.57156 1.89862 2.89537 1.74825 3.50685 1.66604C4.13631 1.58141 4.97057 1.58008 6.16675 1.58008H9.50008C10.6963 1.58008 11.5305 1.58141 12.16 1.66604C12.7715 1.74825 13.0953 1.89862 13.3259 2.12925C13.5565 2.35989 13.7069 2.6837 13.7891 3.29518C13.8723 3.91383 13.875 4.73031 13.8751 5.89378C13.8751 5.91411 13.8751 5.93454 13.8751 5.95508L13.8751 14.2884Z" fill="#94D401"/>
</svg>
