<svg width="21" height="21" viewBox="0 0 21 21" fill="none" xmlns="http://www.w3.org/2000/svg">
<path d="M5.05004 16.3859V13.9525C5.05004 13.1442 5.68337 12.4192 6.58337 12.4192C7.39171 12.4192 8.11671 13.0525 8.11671 13.9525V16.2942C8.11671 17.9192 6.76671 19.2692 5.14171 19.2692C3.51671 19.2692 2.16671 17.9109 2.16671 16.2942V11.1609C2.07504 6.47752 5.77504 2.68585 10.4584 2.68585C15.1417 2.68585 18.8334 6.47752 18.8334 11.0692V16.2025C18.8334 17.8275 17.4834 19.1775 15.8584 19.1775C14.2334 19.1775 12.8834 17.8275 12.8834 16.2025V13.8609C12.8834 13.0525 13.5167 12.3275 14.4167 12.3275C15.225 12.3275 15.95 12.9609 15.95 13.8609V16.3859" stroke="#94D401" stroke-width="1.5" stroke-linecap="round" stroke-linejoin="round"/>
</svg>
