<svg width="21" height="21" viewBox="0 0 21 21" fill="none" xmlns="http://www.w3.org/2000/svg">
<path d="M9.66673 9.62191C9.66673 9.16167 10.0398 8.78858 10.5001 8.78858H10.5075C10.9678 8.78858 11.3409 9.16167 11.3409 9.62191C11.3409 10.0821 10.9678 10.4552 10.5075 10.4552H10.5001C10.0398 10.4552 9.66673 10.0821 9.66673 9.62191Z" fill="#94D401"/>
<path fill-rule="evenodd" clip-rule="evenodd" d="M10.3634 1.91358C9.81705 1.91355 9.34687 1.91352 8.96094 1.96493C8.54312 2.02058 8.16281 2.14275 7.82447 2.42725C7.49435 2.70484 7.29112 3.0643 7.12675 3.47653C6.98303 3.83696 6.85026 4.28875 6.69523 4.83024H4.37343C3.16591 4.83024 2.44916 5.72435 2.15158 6.62924C1.85637 7.52691 1.88998 8.63178 2.31957 9.44869C2.33886 9.48536 2.35843 9.52175 2.37828 9.55787C2.37516 9.58852 2.37427 9.61979 2.37577 9.6515L2.50545 12.3883C2.57195 13.782 2.62497 14.8932 2.78795 15.7626C2.95669 16.6628 3.25713 17.3893 3.87844 17.9547C4.49574 18.5165 5.25955 18.7642 6.19714 18.8821C7.11054 18.9969 8.27328 18.9969 9.74333 18.9969H11.2567C12.7268 18.9969 13.8896 18.9969 14.803 18.8821C15.7406 18.7642 16.5044 18.5165 17.1217 17.9547C17.743 17.3893 18.0435 16.6628 18.2122 15.7626C18.3752 14.8932 18.4282 13.782 18.4947 12.3883L18.6244 9.6515C18.6259 9.61981 18.625 9.58856 18.6219 9.55793C18.6417 9.52179 18.6613 9.48538 18.6806 9.44869C19.1102 8.63178 19.1438 7.52691 18.8486 6.62923C18.551 5.72435 17.8343 4.83024 16.6268 4.83024H14.3047C14.1497 4.28875 14.0169 3.83696 13.8732 3.47653C13.7088 3.0643 13.5056 2.70484 13.1755 2.42725C12.8371 2.14275 12.4568 2.02058 12.039 1.96493C11.6531 1.91352 11.1829 1.91355 10.6366 1.91358H10.3634ZM13.0035 4.83024C12.894 4.45621 12.804 4.16993 12.7121 3.93951C12.584 3.6183 12.4773 3.4734 12.371 3.38396C12.2728 3.30144 12.145 3.24009 11.874 3.20399C11.5802 3.16486 11.1939 3.16358 10.5974 3.16358H10.4025C9.806 3.16358 9.41974 3.16486 9.12598 3.20399C8.85492 3.24009 8.7271 3.30144 8.62896 3.38396C8.5226 3.4734 8.41593 3.6183 8.28784 3.93951C8.19596 4.16993 8.10591 4.45621 7.99643 4.83024H13.0035ZM3.42592 8.86689C3.17955 8.39838 3.1311 7.65198 3.33902 7.01974C3.54457 6.3947 3.91614 6.08024 4.37343 6.08024H16.6268C17.084 6.08024 17.4556 6.39471 17.6612 7.01974C17.8691 7.65198 17.8206 8.39838 17.5743 8.86689C16.3143 11.2627 13.4111 12.3302 10.5001 12.3302C7.58909 12.3302 4.68584 11.2627 3.42592 8.86689ZM17.2973 11.248C15.5026 12.9089 12.8952 13.5802 10.5001 13.5802C8.10492 13.5802 5.49753 12.9089 3.70281 11.2479L3.75176 12.2812C3.82106 13.7332 3.87137 14.7578 4.01655 15.5323C4.15784 16.286 4.37478 16.7163 4.71978 17.0303C5.0688 17.3479 5.54179 17.5399 6.35306 17.6419C7.17943 17.7458 8.26355 17.7469 9.78726 17.7469H11.2129C12.7366 17.7469 13.8207 17.7458 14.6471 17.6419C15.4584 17.5399 15.9313 17.3479 16.2804 17.0303C16.6254 16.7163 16.8423 16.286 16.9836 15.5323C17.1288 14.7578 17.1791 13.7334 17.2484 12.2814L17.2973 11.248Z" fill="#94D401"/>
</svg>
