<svg width="13" height="14" viewBox="0 0 13 14" fill="none" xmlns="http://www.w3.org/2000/svg">
<path d="M5.04167 10.0623C4.80004 10.0623 4.60417 9.86646 4.60417 9.62484L4.60417 6.12484C4.60417 5.88321 4.80004 5.68734 5.04167 5.68734C5.28329 5.68734 5.47917 5.88321 5.47917 6.12484L5.47917 9.62484C5.47917 9.86646 5.28329 10.0623 5.04167 10.0623Z" fill="#E72020"/>
<path d="M8.39583 6.12484C8.39583 5.88321 8.19996 5.68734 7.95833 5.68734C7.71671 5.68734 7.52083 5.88321 7.52083 6.12484V9.62484C7.52083 9.86646 7.71671 10.0623 7.95833 10.0623C8.19996 10.0623 8.39583 9.86646 8.39583 9.62484V6.12484Z" fill="#E72020"/>
<path fill-rule="evenodd" clip-rule="evenodd" d="M6.53863 0.729004H6.50127C6.20652 0.728996 5.95649 0.728989 5.74901 0.747878C5.52883 0.767922 5.32374 0.811335 5.12541 0.916788C5.04714 0.958407 4.97246 1.00644 4.90212 1.0604C4.72391 1.19712 4.59934 1.36573 4.48978 1.55776C4.38653 1.73872 4.28284 1.96623 4.16059 2.23443L3.91616 2.77067H1.25C1.00838 2.77067 0.8125 2.96655 0.8125 3.20817C0.8125 3.4498 1.00838 3.64567 1.25 3.64567H1.71313L2.04236 9.09931C2.08636 9.82828 2.12128 10.4067 2.19393 10.8688C2.26842 11.3427 2.38821 11.7373 2.62848 12.0826C2.84828 12.3984 3.13146 12.665 3.45998 12.8654C3.81909 13.0844 4.22025 13.1802 4.69774 13.226C5.16334 13.2707 5.74282 13.2707 6.47308 13.2707H6.51839C7.24769 13.2707 7.82648 13.2707 8.29153 13.2261C8.76846 13.1804 9.16919 13.0848 9.52804 12.8662C9.85635 12.6662 10.1394 12.4 10.3593 12.0847C10.5997 11.74 10.7198 11.3459 10.7949 10.8727C10.8681 10.4113 10.9038 9.83366 10.9488 9.10573L11.2863 3.64567H11.75C11.9916 3.64567 12.1875 3.4498 12.1875 3.20817C12.1875 2.96655 11.9916 2.77067 11.75 2.77067H9.13995L8.85325 2.17923C8.72785 1.92054 8.62141 1.70094 8.51662 1.52635C8.40538 1.34102 8.28031 1.17861 8.10423 1.04728C8.03465 0.995377 7.96096 0.949211 7.88391 0.909234C7.68892 0.808073 7.48822 0.766385 7.27293 0.747129C7.07012 0.72899 6.82609 0.728996 6.53863 0.729004ZM10.4096 3.64567H8.87548C8.86926 3.64581 8.86304 3.6458 8.85683 3.64567H4.20691C4.2005 3.64581 4.19407 3.64581 4.18764 3.64567H2.58972L2.91441 9.02399C2.96008 9.7806 2.99294 10.3171 3.05831 10.7329C3.12257 11.1417 3.21256 11.39 3.34668 11.5828C3.49707 11.7989 3.69083 11.9813 3.91561 12.1184C4.11606 12.2406 4.36942 12.3155 4.7813 12.355C5.20025 12.3952 5.7378 12.3957 6.49578 12.3957C7.25277 12.3957 7.7896 12.3952 8.20802 12.3551C8.61937 12.3157 8.87248 12.2409 9.07281 12.1189C9.29744 11.9821 9.49114 11.8 9.64158 11.5842C9.77575 11.3918 9.86594 11.1438 9.93069 10.7356C9.99654 10.3205 10.0301 9.78471 10.0768 9.02916L10.4096 3.64567ZM8.16756 2.77067H4.87777L4.94895 2.61453C5.08113 2.32455 5.1686 2.13366 5.24978 1.99138C5.32684 1.85631 5.38213 1.79498 5.43472 1.75464C5.46669 1.73011 5.50064 1.70828 5.53621 1.68936C5.59473 1.65824 5.67348 1.63337 5.82834 1.61927C5.99147 1.60442 6.20145 1.604 6.52014 1.604C6.83106 1.604 7.03575 1.60441 7.19498 1.61865C7.34606 1.63216 7.42329 1.65601 7.48095 1.68593C7.51598 1.7041 7.54947 1.72508 7.5811 1.74867C7.63317 1.78751 7.68832 1.8466 7.76638 1.97666C7.84866 2.11373 7.93831 2.29774 8.07393 2.57752L8.16756 2.77067Z" fill="#E72020"/>
</svg>
