<svg width="21" height="21" viewBox="0 0 21 21" fill="none" xmlns="http://www.w3.org/2000/svg">
<path d="M10.155 1.49658H9.18289C7.55716 1.49657 6.27679 1.49656 5.27632 1.6236C4.25217 1.75364 3.42699 2.02638 2.77355 2.64351C2.11507 3.26541 1.81945 4.05881 1.6794 5.04259C1.54392 5.99432 1.54393 7.20942 1.54395 8.73881V12.171C1.54393 13.7004 1.54392 14.9155 1.6794 15.8672C1.81945 16.851 2.11506 17.6444 2.77356 18.2663C3.427 18.8835 4.25218 19.1562 5.27632 19.2862C6.27679 19.4133 7.55717 19.4133 9.18291 19.4132H9.66895C10.0141 19.4132 10.2939 19.1334 10.2939 18.7882C10.2939 18.4431 10.0141 18.1632 9.66895 18.1632H9.22778C7.54728 18.1632 6.34634 18.1621 5.43378 18.0462C4.53571 17.9321 4.01212 17.7167 3.63181 17.3575C3.25657 17.0031 3.03532 16.5227 2.91693 15.6911C2.79543 14.8376 2.79395 13.7116 2.79395 12.1216V8.78825C2.79395 7.19822 2.79543 6.07222 2.91693 5.21876C3.03532 4.38712 3.25657 3.90669 3.63183 3.55228C4.01213 3.1931 4.53571 2.97768 5.43378 2.86364C6.34634 2.74777 7.54729 2.74658 9.22778 2.74658H10.1101C11.7906 2.74658 12.9916 2.74777 13.9041 2.86364C14.8022 2.97768 15.3258 3.1931 15.7061 3.55228C16.0813 3.90669 16.3026 4.38712 16.421 5.21876C16.5425 6.07222 16.5439 7.19822 16.5439 8.78825V9.62158C16.5439 9.96676 16.8238 10.2466 17.1689 10.2466C17.5141 10.2466 17.7939 9.96676 17.7939 9.62158V8.73882C17.794 7.20943 17.794 5.99433 17.6585 5.04259C17.5184 4.05881 17.2228 3.26541 16.5643 2.64351C15.9109 2.02637 15.0857 1.75364 14.0616 1.6236C13.0611 1.49656 11.7807 1.49657 10.155 1.49658Z" fill="#94D401"/>
<path d="M6.33561 5.66325C5.99043 5.66325 5.71061 5.94307 5.71061 6.28825C5.71061 6.63343 5.99043 6.91325 6.33561 6.91325H13.0023C13.3475 6.91325 13.6273 6.63343 13.6273 6.28825C13.6273 5.94307 13.3475 5.66325 13.0023 5.66325H6.33561Z" fill="#94D401"/>
<path d="M5.71061 10.4549C5.71061 10.1097 5.99043 9.82992 6.33561 9.82992H13.0023C13.3475 9.82992 13.6273 10.1097 13.6273 10.4549C13.6273 10.8001 13.3475 11.0799 13.0023 11.0799H6.33561C5.99043 11.0799 5.71061 10.8001 5.71061 10.4549Z" fill="#94D401"/>
<path fill-rule="evenodd" clip-rule="evenodd" d="M18.327 12.0451C17.5936 11.3137 16.4051 11.3137 15.6717 12.0451L12.6019 15.1064C12.2762 15.4312 12.0558 15.8462 11.9694 16.2977L11.5711 18.1531C11.4117 18.8959 12.0742 19.5492 12.8117 19.3895L14.6822 18.9846C15.1335 18.8985 15.549 18.6793 15.8744 18.3547L18.9078 15.2727C19.64 14.5402 19.6392 13.3537 18.9056 12.6221L18.327 12.0451ZM16.5543 12.9303C16.7999 12.6854 17.1988 12.6854 17.4443 12.9303L18.0229 13.5072C18.2675 13.7512 18.2675 14.1459 18.0229 14.3899L14.9899 17.4714C14.841 17.6192 14.6507 17.719 14.4436 17.7576C14.4377 17.7587 14.4317 17.7599 14.4258 17.7611L12.861 18.0999L13.1932 16.5527L13.1964 16.5366C13.235 16.3303 13.3354 16.1403 13.4845 15.9915L16.5543 12.9303Z" fill="#94D401"/>
</svg>
