<svg width="19" height="17" viewBox="0 0 19 17" fill="none" xmlns="http://www.w3.org/2000/svg">
<path fill-rule="evenodd" clip-rule="evenodd" d="M11.1667 1.58012C11.982 1.58012 12.267 1.58549 12.4854 1.64401C13.1324 1.81738 13.6378 2.32279 13.8112 2.96983C13.8515 3.12011 13.8666 3.30192 13.8721 3.6663C13.5617 3.66344 13.2309 3.66345 12.8791 3.66345L7.83342 3.66345C7.48824 3.66345 7.20842 3.94327 7.20842 4.28845C7.20842 4.63363 7.48824 4.91345 7.83342 4.91345H12.8334C14.0296 4.91345 14.8639 4.91478 15.4933 4.99941C16.1048 5.08162 16.4286 5.23199 16.6592 5.46263C16.8899 5.69326 17.0402 6.01707 17.1225 6.62855C17.2071 7.25801 17.2084 8.09227 17.2084 9.28845V10.9551C17.2084 12.1513 17.2071 12.9856 17.1225 13.615C17.0402 14.2265 16.8899 14.5503 16.6592 14.7809C16.4286 15.0116 16.1048 15.162 15.4933 15.2442C14.8639 15.3288 14.0296 15.3301 12.8334 15.3301H7.83341C6.2444 15.3301 5.11551 15.3288 4.25912 15.2137C3.42072 15.1009 2.93768 14.8895 2.585 14.5369C2.23233 14.1842 2.02094 13.7012 1.90821 12.8627C1.79308 12.0064 1.79175 10.8775 1.79175 9.28845V7.62179C1.79175 6.03277 1.79308 4.90388 1.90821 4.04749C2.02094 3.20909 2.23233 2.72605 2.585 2.37337C2.93768 2.0207 3.42072 1.80931 4.25912 1.69658C5.11551 1.58145 6.2444 1.58012 7.83342 1.58012H11.1667ZM15.0186 2.64631C15.098 2.94281 15.1184 3.2759 15.1235 3.70731C15.3131 3.72062 15.4918 3.73796 15.6599 3.76056C16.41 3.8614 17.0415 4.07715 17.5431 4.57874C18.0447 5.08034 18.2605 5.7119 18.3613 6.46199C18.4584 7.18447 18.4584 8.10307 18.4584 9.24273V11.0008C18.4584 12.1405 18.4584 13.0591 18.3613 13.7816C18.2605 14.5317 18.0447 15.1632 17.5431 15.6648C17.0415 16.1664 16.41 16.3822 15.6599 16.483C14.9374 16.5802 14.0188 16.5801 12.8791 16.5801H7.78641H7.78637C6.25492 16.5801 5.0419 16.5801 4.09256 16.4525C3.11554 16.3212 2.32475 16.0444 1.70112 15.4208C1.07748 14.7971 0.800718 14.0063 0.669361 13.0293C0.541725 12.08 0.541735 10.8669 0.541748 9.33548V9.33547V7.57477V7.57476C0.541735 6.0433 0.541725 4.83028 0.669361 3.88093C0.800718 2.90392 1.07748 2.11312 1.70112 1.48949C2.32475 0.865852 3.11554 0.589088 4.09256 0.457731C5.04191 0.330095 6.25493 0.330106 7.7864 0.330119L11.1667 0.330119L11.2632 0.330098C11.9449 0.329874 12.41 0.32972 12.8089 0.436601C13.8873 0.725561 14.7296 1.5679 15.0186 2.64631ZM14.7084 10.1217C14.7084 9.77657 14.4286 9.49675 14.0834 9.49675C13.7382 9.49675 13.4584 9.77657 13.4584 10.1217C13.4584 10.4669 13.7382 10.7467 14.0834 10.7467C14.4286 10.7467 14.7084 10.4669 14.7084 10.1217ZM14.0834 8.24675C15.1189 8.24675 15.9584 9.08621 15.9584 10.1217C15.9584 11.1573 15.1189 11.9967 14.0834 11.9967C13.0479 11.9967 12.2084 11.1573 12.2084 10.1217C12.2084 9.08621 13.0479 8.24675 14.0834 8.24675Z" fill="#94D401"/>
</svg>
