<svg width="20" height="21" viewBox="0 0 20 21" fill="none" xmlns="http://www.w3.org/2000/svg">
<path d="M7.05795 13.3974C6.81388 13.1533 6.81388 12.7576 7.05795 12.5135L12.058 7.51351C12.302 7.26943 12.6978 7.26943 12.9418 7.51351C13.1859 7.75759 13.1859 8.15331 12.9418 8.39739L7.94184 13.3974C7.69776 13.6415 7.30203 13.6415 7.05795 13.3974Z" fill="white"/>
<path d="M7.4999 7.12212C7.03966 7.12212 6.66656 7.49521 6.66656 7.95545C6.66656 8.41569 7.03966 8.78878 7.4999 8.78878L7.50737 8.78878C7.96761 8.78878 8.3407 8.41569 8.3407 7.95545C8.3407 7.49521 7.96761 7.12212 7.50737 7.12212L7.4999 7.12212Z" fill="white"/>
<path d="M12.4924 12.1221C12.0322 12.1221 11.6591 12.4952 11.6591 12.9555C11.6591 13.4157 12.0322 13.7888 12.4924 13.7888L12.4999 13.7888C12.9601 13.7888 13.3332 13.4157 13.3332 12.9555C13.3332 12.4952 12.9601 12.1221 12.4999 12.1221L12.4924 12.1221Z" fill="white"/>
<path fill-rule="evenodd" clip-rule="evenodd" d="M9.25115 2.29029L9.31909 2.38074C9.64659 2.8168 10.3532 2.8168 10.6807 2.38074L10.7486 2.29029C11.5429 1.23272 13.1791 1.23272 13.9734 2.29029L14.4054 2.86547C14.4569 2.93408 14.5442 2.97617 14.6493 2.97086C14.7543 2.96555 14.833 2.91544 14.8742 2.84597C15.264 2.18864 15.9861 2.01035 16.5665 2.15404C17.1487 2.29818 17.7082 2.8001 17.7082 3.57857L17.7082 17.3323C17.7082 18.1108 17.1487 18.6127 16.5665 18.7569C15.9861 18.9006 15.264 18.7223 14.8742 18.0649C14.833 17.9955 14.7543 17.9453 14.6493 17.94C14.5442 17.9347 14.4569 17.9768 14.4054 18.0454L13.9734 18.6206C13.1791 19.6782 11.5429 19.6782 10.7486 18.6206L10.6807 18.5302C10.3532 18.0941 9.64659 18.0941 9.31908 18.5302L9.25115 18.6206C8.45685 19.6782 6.82072 19.6782 6.02642 18.6206L5.59442 18.0454C5.54289 17.9768 5.45561 17.9347 5.35049 17.94C5.24544 17.9453 5.16676 17.9955 5.12557 18.0649C4.7358 18.7223 4.01367 18.9006 3.43332 18.7569C2.85113 18.6127 2.29156 18.1108 2.29156 17.3323L2.29156 3.57857C2.29156 2.8001 2.85113 2.29818 3.43332 2.15404C4.01367 2.01035 4.7358 2.18864 5.12557 2.84597C5.16676 2.91544 5.24544 2.96555 5.35049 2.97086C5.45561 2.97617 5.54289 2.93408 5.59442 2.86547L6.02642 2.29029C6.82072 1.23272 8.45685 1.23272 9.25115 2.29029ZM8.25167 3.04098C7.95739 2.64916 7.32018 2.64916 7.0259 3.04097L6.5939 3.61616C5.95067 4.47258 4.60107 4.41225 4.05037 3.48351C3.99017 3.38197 3.8766 3.33203 3.73374 3.3674C3.66458 3.38453 3.61397 3.41828 3.58477 3.45165C3.56049 3.47939 3.54156 3.51609 3.54156 3.57857L3.54156 17.3323C3.54156 17.3948 3.56049 17.4315 3.58477 17.4593C3.61397 17.4926 3.66458 17.5264 3.73374 17.5435C3.8766 17.5789 3.99017 17.5289 4.05037 17.4274C4.60107 16.4987 5.95067 16.4383 6.5939 17.2947L7.0259 17.8699C7.32018 18.2617 7.95739 18.2617 8.25166 17.8699L8.3196 17.7795C9.14713 16.6777 10.8527 16.6777 11.6802 17.7795L11.7481 17.8699C12.0424 18.2617 12.6796 18.2617 12.9739 17.8699L13.4059 17.2947C14.0491 16.4383 15.3987 16.4987 15.9494 17.4274C16.0096 17.5289 16.1232 17.5789 16.2661 17.5435C16.3352 17.5264 16.3858 17.4926 16.415 17.4593C16.4393 17.4315 16.4582 17.3948 16.4582 17.3323L16.4582 3.57857C16.4582 3.51609 16.4393 3.47939 16.415 3.45165C16.3858 3.41828 16.3352 3.38452 16.2661 3.3674C16.1232 3.33203 16.0096 3.38197 15.9494 3.48351C15.3987 4.41225 14.0491 4.47258 13.4059 3.61615L12.9739 3.04098C12.6796 2.64916 12.0424 2.64916 11.7481 3.04098L11.6802 3.13142C10.8527 4.23323 9.14713 4.23324 8.3196 3.13142L8.25167 3.04098Z" fill="white"/>
</svg>
