<svg width="16" height="17" viewBox="0 0 16 17" fill="none" xmlns="http://www.w3.org/2000/svg">
<path d="M11.1335 13.1083H4.8668C4.5868 13.1083 4.27347 12.8883 4.18013 12.6217L1.42013 4.90165C1.0268 3.79499 1.4868 3.45499 2.43347 4.13499L5.03347 5.99499C5.4668 6.29499 5.96013 6.14165 6.1468 5.65499L7.32013 2.52832C7.69347 1.52832 8.31347 1.52832 8.6868 2.52832L9.86013 5.65499C10.0468 6.14165 10.5401 6.29499 10.9668 5.99499L13.4068 4.25499C14.4468 3.50832 14.9468 3.88832 14.5201 5.09499L11.8268 12.635C11.7268 12.8883 11.4135 13.1083 11.1335 13.1083Z" stroke="white" stroke-linecap="round" stroke-linejoin="round"/>
<path d="M4.3335 15.1216H11.6668" stroke="white" stroke-linecap="round" stroke-linejoin="round"/>
<path d="M6.3335 9.78857H9.66683" stroke="white" stroke-linecap="round" stroke-linejoin="round"/>
</svg>
