<svg width="19" height="19" viewBox="0 0 19 19" fill="none" xmlns="http://www.w3.org/2000/svg">
<path fill-rule="evenodd" clip-rule="evenodd" d="M14.5303 0.496582H14.4694C13.8534 0.496572 13.3472 0.496564 12.9376 0.535507C12.512 0.575974 12.1267 0.662861 11.7762 0.877624C11.4283 1.09084 11.1358 1.38337 10.9225 1.7313C10.7078 2.08176 10.6209 2.46705 10.5804 2.89266C10.5415 3.30224 10.5415 3.8085 10.5415 4.42445V4.48537C10.5415 5.10132 10.5415 5.6076 10.5804 6.01717C10.6209 6.44279 10.7078 6.82807 10.9225 7.17853C11.1358 7.52646 11.4283 7.819 11.7762 8.03221C12.1267 8.24697 12.512 8.33386 12.9376 8.37433C13.3472 8.41327 13.8534 8.41326 14.4694 8.41325H14.5303C15.1463 8.41326 15.6525 8.41327 16.0621 8.37433C16.4877 8.33386 16.873 8.24697 17.2235 8.03221C17.5714 7.819 17.8639 7.52646 18.0771 7.17853C18.2919 6.82807 18.3788 6.44279 18.4192 6.01717C18.4582 5.6076 18.4582 5.10134 18.4582 4.48538V4.42445C18.4582 3.8085 18.4582 3.30224 18.4192 2.89266C18.3788 2.46705 18.2919 2.08176 18.0771 1.7313C17.8639 1.38337 17.5714 1.09084 17.2235 0.877624C16.873 0.662861 16.4877 0.575974 16.0621 0.535507C15.6525 0.496564 15.1462 0.496572 14.5303 0.496582ZM12.4293 1.94342C12.5504 1.86925 12.7218 1.81166 13.0559 1.77989C13.3993 1.74724 13.8459 1.74658 14.4998 1.74658C15.1538 1.74658 15.6004 1.74724 15.9438 1.77989C16.2779 1.81166 16.4493 1.86925 16.5703 1.94342C16.7501 2.05357 16.9012 2.20468 17.0113 2.38442C17.0855 2.50547 17.1431 2.67686 17.1749 3.01098C17.2075 3.35439 17.2082 3.80097 17.2082 4.45492C17.2082 5.10887 17.2075 5.55544 17.1749 5.89886C17.1431 6.23297 17.0855 6.40436 17.0113 6.52541C16.9012 6.70515 16.7501 6.85627 16.5703 6.96641C16.4493 7.04059 16.2779 7.09817 15.9438 7.12994C15.6004 7.16259 15.1538 7.16325 14.4998 7.16325C13.8459 7.16325 13.3993 7.16259 13.0559 7.12994C12.7218 7.09817 12.5504 7.04059 12.4293 6.96641C12.2496 6.85627 12.0985 6.70515 11.9883 6.52541C11.9142 6.40436 11.8566 6.23297 11.8248 5.89886C11.7922 5.55544 11.7915 5.10887 11.7915 4.45492C11.7915 3.80097 11.7922 3.35439 11.8248 3.01098C11.8566 2.67686 11.9142 2.50547 11.9883 2.38442C12.0985 2.20468 12.2496 2.05357 12.4293 1.94342Z" fill="white"/>
<path fill-rule="evenodd" clip-rule="evenodd" d="M4.46938 0.496582H4.53029C5.14625 0.496572 5.65252 0.496564 6.0621 0.535507C6.48771 0.575974 6.873 0.662861 7.22346 0.877624C7.57139 1.09084 7.86392 1.38337 8.07713 1.7313C8.29189 2.08176 8.37878 2.46705 8.41925 2.89266C8.45819 3.30223 8.45818 3.80848 8.45817 4.42443V4.48538C8.45818 5.10132 8.45819 5.6076 8.41925 6.01717C8.37878 6.44279 8.29189 6.82807 8.07713 7.17853C7.86392 7.52646 7.57139 7.819 7.22346 8.03221C6.873 8.24697 6.48771 8.33386 6.0621 8.37433C5.65252 8.41327 5.14627 8.41326 4.53033 8.41325H4.46937C3.85343 8.41326 3.34715 8.41327 2.93758 8.37433C2.51197 8.33386 2.12668 8.24697 1.77622 8.03221C1.42829 7.819 1.13576 7.52646 0.922546 7.17853C0.707783 6.82807 0.620896 6.44279 0.580429 6.01717C0.541486 5.6076 0.541494 5.10133 0.541504 4.48538V4.42446C0.541494 3.80851 0.541486 3.30224 0.580429 2.89266C0.620896 2.46705 0.707783 2.08176 0.922546 1.7313C1.13576 1.38337 1.42829 1.09084 1.77622 0.877624C2.12668 0.662861 2.51197 0.575974 2.93758 0.535507C3.34716 0.496564 3.85343 0.496572 4.46938 0.496582ZM3.0559 1.77989C2.72178 1.81166 2.55039 1.86925 2.42934 1.94342C2.24961 2.05357 2.09849 2.20468 1.98835 2.38442C1.91417 2.50547 1.85658 2.67686 1.82482 3.01098C1.79216 3.35439 1.7915 3.80097 1.7915 4.45492C1.7915 5.10887 1.79216 5.55544 1.82482 5.89886C1.85658 6.23297 1.91417 6.40436 1.98835 6.52541C2.09849 6.70515 2.24961 6.85627 2.42934 6.96641C2.55039 7.04059 2.72178 7.09817 3.0559 7.12994C3.39931 7.16259 3.84589 7.16325 4.49984 7.16325C5.15379 7.16325 5.60036 7.16259 5.94378 7.12994C6.27789 7.09817 6.44929 7.04059 6.57033 6.96641C6.75007 6.85627 6.90119 6.70515 7.01133 6.52541C7.08551 6.40436 7.14309 6.23297 7.17486 5.89886C7.20751 5.55544 7.20817 5.10887 7.20817 4.45492C7.20817 3.80097 7.20751 3.35439 7.17486 3.01098C7.14309 2.67686 7.08551 2.50547 7.01133 2.38442C6.90119 2.20468 6.75007 2.05357 6.57033 1.94342C6.44929 1.86925 6.27789 1.81166 5.94378 1.77989C5.60036 1.74724 5.15379 1.74658 4.49984 1.74658C3.84589 1.74658 3.39931 1.74724 3.0559 1.77989Z" fill="white"/>
<path fill-rule="evenodd" clip-rule="evenodd" d="M4.46938 10.4966C3.85344 10.4966 3.34715 10.4966 2.93758 10.5355C2.51197 10.576 2.12668 10.6629 1.77622 10.8776C1.42829 11.0908 1.13576 11.3834 0.922546 11.7313C0.707783 12.0818 0.620896 12.467 0.580429 12.8927C0.541486 13.3022 0.541494 13.8085 0.541504 14.4245V14.4854C0.541494 15.1013 0.541485 15.6076 0.580429 16.0172C0.620896 16.4428 0.707783 16.8281 0.922546 17.1785C1.13576 17.5265 1.42829 17.819 1.77622 18.0322C2.12668 18.247 2.51197 18.3339 2.93758 18.3743C3.34716 18.4133 3.85342 18.4133 4.46937 18.4132H4.53031C5.14626 18.4133 5.65252 18.4133 6.0621 18.3743C6.48771 18.3339 6.873 18.247 7.22346 18.0322C7.57139 17.819 7.86392 17.5265 8.07713 17.1785C8.29189 16.8281 8.37878 16.4428 8.41925 16.0172C8.45819 15.6076 8.45818 15.1013 8.45817 14.4854V14.4244C8.45818 13.8085 8.45819 13.3022 8.41925 12.8927C8.37878 12.467 8.29189 12.0818 8.07713 11.7313C7.86392 11.3834 7.57139 11.0908 7.22346 10.8776C6.873 10.6629 6.48771 10.576 6.0621 10.5355C5.65252 10.4966 5.14627 10.4966 4.53033 10.4966H4.46938ZM2.42934 11.9434C2.55039 11.8692 2.72178 11.8117 3.0559 11.7799C3.39931 11.7472 3.84589 11.7466 4.49984 11.7466C5.15379 11.7466 5.60036 11.7472 5.94378 11.7799C6.27789 11.8117 6.44929 11.8692 6.57033 11.9434C6.75007 12.0536 6.90119 12.2047 7.01133 12.3844C7.08551 12.5055 7.14309 12.6769 7.17486 13.011C7.20751 13.3544 7.20817 13.801 7.20817 14.4549C7.20817 15.1089 7.20751 15.5554 7.17486 15.8989C7.14309 16.233 7.08551 16.4044 7.01133 16.5254C6.90119 16.7051 6.75007 16.8563 6.57033 16.9664C6.44929 17.0406 6.27789 17.0982 5.94378 17.1299C5.60036 17.1626 5.15379 17.1632 4.49984 17.1632C3.84589 17.1632 3.39931 17.1626 3.0559 17.1299C2.72178 17.0982 2.55039 17.0406 2.42934 16.9664C2.24961 16.8563 2.09849 16.7051 1.98835 16.5254C1.91417 16.4044 1.85658 16.233 1.82482 15.8989C1.79216 15.5554 1.7915 15.1089 1.7915 14.4549C1.7915 13.801 1.79216 13.3544 1.82482 13.011C1.85658 12.6769 1.91417 12.5055 1.98835 12.3844C2.09849 12.2047 2.24961 12.0536 2.42934 11.9434Z" fill="white"/>
<path fill-rule="evenodd" clip-rule="evenodd" d="M16.0621 10.5355C15.6525 10.4966 15.1462 10.4966 14.5303 10.4966H14.4694C13.8534 10.4966 13.3472 10.4966 12.9376 10.5355C12.512 10.576 12.1267 10.6629 11.7762 10.8776C11.4283 11.0908 11.1358 11.3834 10.9225 11.7313C10.7078 12.0818 10.6209 12.467 10.5804 12.8927C10.5415 13.3022 10.5415 13.8085 10.5415 14.4245V14.4854C10.5415 15.1013 10.5415 15.6076 10.5804 16.0172C10.6209 16.4428 10.7078 16.8281 10.9225 17.1785C11.1358 17.5265 11.4283 17.819 11.7762 18.0322C12.1267 18.247 12.512 18.3339 12.9376 18.3743C13.3472 18.4133 13.8534 18.4133 14.4694 18.4132H14.5303C15.1463 18.4133 15.6525 18.4133 16.0621 18.3743C16.4877 18.3339 16.873 18.247 17.2235 18.0322C17.5714 17.819 17.8639 17.5265 18.0771 17.1785C18.2919 16.8281 18.3788 16.4428 18.4192 16.0172C18.4582 15.6076 18.4582 15.1013 18.4582 14.4854V14.4244C18.4582 13.8085 18.4582 13.3022 18.4192 12.8927C18.3788 12.467 18.2919 12.0818 18.0771 11.7313C17.8639 11.3834 17.5714 11.0908 17.2235 10.8776C16.873 10.6629 16.4877 10.576 16.0621 10.5355ZM12.4293 11.9434C12.5504 11.8692 12.7218 11.8117 13.0559 11.7799C13.3993 11.7472 13.8459 11.7466 14.4998 11.7466C15.1538 11.7466 15.6004 11.7472 15.9438 11.7799C16.2779 11.8117 16.4493 11.8692 16.5703 11.9434C16.7501 12.0536 16.9012 12.2047 17.0113 12.3844C17.0855 12.5055 17.1431 12.6769 17.1749 13.011C17.2075 13.3544 17.2082 13.801 17.2082 14.4549C17.2082 15.1089 17.2075 15.5554 17.1749 15.8989C17.1431 16.233 17.0855 16.4044 17.0113 16.5254C16.9012 16.7051 16.7501 16.8563 16.5703 16.9664C16.4493 17.0406 16.2779 17.0982 15.9438 17.1299C15.6004 17.1626 15.1538 17.1632 14.4998 17.1632C13.8459 17.1632 13.3993 17.1626 13.0559 17.1299C12.7218 17.0982 12.5504 17.0406 12.4293 16.9664C12.2496 16.8563 12.0985 16.7051 11.9883 16.5254C11.9142 16.4044 11.8566 16.233 11.8248 15.8989C11.7922 15.5554 11.7915 15.1089 11.7915 14.4549C11.7915 13.801 11.7922 13.3544 11.8248 13.011C11.8566 12.6769 11.9142 12.5055 11.9883 12.3844C12.0985 12.2047 12.2496 12.0536 12.4293 11.9434Z" fill="white"/>
</svg>
