<svg width="8" height="10" viewBox="0 0 8 10" fill="none" xmlns="http://www.w3.org/2000/svg">
<path fill-rule="evenodd" clip-rule="evenodd" d="M7.70354 2.31764C7.86371 2.31764 7.99705 2.45063 7.99705 2.61985V2.7763C7.99705 2.94141 7.86371 3.07851 7.70354 3.07851H0.879851C0.71928 3.07851 0.585938 2.94141 0.585938 2.7763V2.61985C0.585938 2.45063 0.71928 2.31764 0.879851 2.31764H2.08033C2.32419 2.31764 2.53642 2.14431 2.59128 1.89974L2.65415 1.61895C2.75185 1.23646 3.07339 0.982422 3.44139 0.982422H5.1416C5.50559 0.982422 5.83074 1.23646 5.92484 1.59877L5.99211 1.89933C6.04657 2.14431 6.25879 2.31764 6.50305 2.31764H7.70354ZM7.09878 8.04131C7.22411 6.87324 7.44354 4.09822 7.44354 4.07023C7.45155 3.98541 7.42392 3.90512 7.36906 3.84048C7.3102 3.77996 7.23572 3.74414 7.15363 3.74414H1.44274C1.36025 3.74414 1.28177 3.77996 1.22731 3.84048C1.17205 3.90512 1.14482 3.98541 1.14882 4.07023C1.14956 4.07537 1.15743 4.17312 1.1706 4.33654C1.22907 5.06251 1.39195 7.08451 1.4972 8.04131C1.57167 8.74618 2.03417 9.18919 2.70408 9.20525C3.22104 9.21719 3.7536 9.22131 4.29819 9.22131C4.81113 9.22131 5.33209 9.21719 5.86506 9.20525C6.5582 9.19331 7.02029 8.75812 7.09878 8.04131Z" fill="#FF0000"/>
</svg>
