<svg width="15" height="14" viewBox="0 0 15 14" fill="none" xmlns="http://www.w3.org/2000/svg">
<path d="M7.5 1.3125H7.46678C6.25751 1.31249 5.30532 1.31249 4.56137 1.41251C3.79803 1.51514 3.18874 1.73023 2.70949 2.20949C2.23023 2.68874 2.01514 3.29803 1.91251 4.06137C1.81249 4.80532 1.81249 5.75751 1.8125 6.96678V7.03322C1.81249 8.24249 1.81249 9.19468 1.91251 9.93863C2.01514 10.702 2.23023 11.3113 2.70949 11.7905C3.18874 12.2698 3.79803 12.4849 4.56137 12.5875C5.30532 12.6875 6.25751 12.6875 7.46678 12.6875H7.53322C8.74249 12.6875 9.69468 12.6875 10.4386 12.5875C11.202 12.4849 11.8113 12.2698 12.2905 11.7905C12.7698 11.3113 12.9849 10.702 13.0875 9.93863C13.1875 9.19468 13.1875 8.24249 13.1875 7.03322V7C13.1875 6.75838 12.9916 6.5625 12.75 6.5625C12.5084 6.5625 12.3125 6.75838 12.3125 7C12.3125 8.24981 12.3116 9.14315 12.2203 9.82204C12.1307 10.4884 11.9614 10.8822 11.6718 11.1718C11.3822 11.4614 10.9884 11.6307 10.322 11.7203C9.64315 11.8116 8.74981 11.8125 7.5 11.8125C6.2502 11.8125 5.35685 11.8116 4.67796 11.7203C4.01165 11.6307 3.61779 11.4614 3.3282 11.1718C3.03862 10.8822 2.86929 10.4884 2.7797 9.82204C2.68843 9.14315 2.6875 8.24981 2.6875 7C2.6875 5.7502 2.68843 4.85685 2.7797 4.17796C2.86929 3.51165 3.03862 3.11779 3.3282 2.8282C3.61779 2.53862 4.01165 2.36929 4.67796 2.2797C5.35685 2.18843 6.2502 2.1875 7.5 2.1875C7.74163 2.1875 7.9375 1.99162 7.9375 1.75C7.9375 1.50838 7.74163 1.3125 7.5 1.3125Z" fill="#787474"/>
<path fill-rule="evenodd" clip-rule="evenodd" d="M12.7207 1.77934C12.0982 1.15689 11.089 1.15689 10.4666 1.77934L6.54885 5.69705C5.98383 6.26193 5.63849 6.60718 5.40097 7.03223C5.26849 7.26932 5.15275 7.62894 5.05035 7.99694C4.945 8.37551 4.84129 8.81109 4.74229 9.2269L4.74107 9.232C4.70588 9.37979 4.74989 9.53526 4.85732 9.64269C4.96475 9.75012 5.12021 9.79413 5.26801 9.75894L5.27308 9.75773C5.68889 9.65873 6.12449 9.55501 6.50307 9.44966C6.87107 9.34725 7.23069 9.23152 7.46778 9.09903C7.89283 8.86152 8.23807 8.51619 8.80296 7.95116L12.7207 4.03345C13.3431 3.41099 13.3431 2.4018 12.7207 1.77934ZM11.0853 2.39806C11.366 2.11731 11.8212 2.11731 12.1019 2.39806C12.3827 2.6788 12.3827 3.13398 12.1019 3.41473L11.5936 3.92306L10.5769 2.90639L11.0853 2.39806ZM9.95823 3.52511L10.9749 4.54178L8.23117 7.28551C7.60461 7.91207 7.3473 8.16401 7.04095 8.3352C6.90651 8.41032 6.64173 8.50283 6.26849 8.60669C6.109 8.65107 5.93793 8.69539 5.76031 8.7397C5.80461 8.56207 5.84893 8.39101 5.89332 8.23152C5.99718 7.85828 6.08969 7.5935 6.16481 7.45906C6.336 7.15271 6.58794 6.8954 7.2145 6.26884L9.95823 3.52511Z" fill="#787474"/>
</svg>
