<svg width="8" height="8" viewBox="0 0 8 8" fill="none" xmlns="http://www.w3.org/2000/svg">
<path fill-rule="evenodd" clip-rule="evenodd" d="M2.98261 6.87961L6.12836 2.81157C6.29932 2.5922 6.36011 2.33857 6.30312 2.08032C6.25373 1.84555 6.10936 1.62233 5.89281 1.45299L5.36472 1.03349C4.90501 0.667862 4.33513 0.706348 4.0084 1.12585L3.65507 1.58423C3.60948 1.64157 3.62088 1.72625 3.67787 1.77243C3.67787 1.77243 4.57068 2.48828 4.58968 2.50368C4.65047 2.56141 4.69606 2.63838 4.70745 2.73075C4.72645 2.91164 4.60108 3.08098 4.41492 3.10407C4.32753 3.11562 4.24395 3.08867 4.18316 3.03864L3.24476 2.292C3.19917 2.25775 3.13078 2.26506 3.09279 2.31124L0.862658 5.19774C0.718288 5.37863 0.668898 5.6134 0.718288 5.84047L1.00323 7.07589C1.01843 7.14132 1.07541 7.18751 1.1438 7.18751L2.39754 7.17211C2.62549 7.16826 2.83825 7.06435 2.98261 6.87961ZM4.74889 6.5H6.79324C6.9927 6.5 7.15493 6.66434 7.15493 6.86639C7.15493 7.06883 6.9927 7.23279 6.79324 7.23279H4.74889C4.54943 7.23279 4.38721 7.06883 4.38721 6.86639C4.38721 6.66434 4.54943 6.5 4.74889 6.5Z" fill="#1B1F27"/>
</svg>
