<svg width="16" height="14" viewBox="0 0 16 14" fill="none" xmlns="http://www.w3.org/2000/svg">
<path fill-rule="evenodd" clip-rule="evenodd" d="M7.21899 0.62206C7.4976 0.550977 7.76886 0.5 7.99064 0.5C8.21243 0.5 8.48368 0.550977 8.76229 0.62206C9.04978 0.695409 9.37926 0.799296 9.73006 0.923867C10.4321 1.17315 11.2411 1.513 12.0081 1.88026C12.7728 2.24646 13.5108 2.64713 14.0646 3.02056C14.3397 3.20604 14.5863 3.39607 14.7699 3.58239C14.8617 3.67562 14.9495 3.77966 15.0169 3.89297C15.0823 4.00305 15.148 4.15463 15.148 4.33333C15.148 4.51204 15.0823 4.66361 15.0169 4.7737C14.9495 4.88701 14.8617 4.99105 14.7699 5.08428C14.6053 5.25138 14.3899 5.42145 14.1488 5.58856V9.87675C14.64 10.8141 14.9158 11.3866 15.131 12.2063C15.1346 12.2199 15.1376 12.2336 15.14 12.2474C15.1714 12.4274 15.1877 12.637 15.1189 12.845C15.0438 13.0718 14.8937 13.2217 14.7396 13.328C14.5405 13.4653 14.3212 13.5 14.1505 13.5H13.1369C12.9774 13.5 12.7695 13.47 12.5764 13.3446C12.4081 13.2353 12.2512 13.08 12.1758 12.8451C12.1081 12.6348 12.1279 12.423 12.1573 12.2497C12.1602 12.2327 12.1639 12.2159 12.1685 12.1993C12.4098 11.3321 12.6521 10.7871 13.1488 9.87251V6.20051C12.938 6.31736 12.7173 6.43396 12.491 6.5486L12.3358 10.1084C12.3317 10.2021 12.3208 10.3245 12.2816 10.4539C12.1901 10.7561 12.0119 11.0619 11.7131 11.276C11.2666 11.596 10.674 11.8149 10.0443 11.9554C9.40815 12.0974 8.70099 12.1667 7.99993 12.1667C7.29887 12.1667 6.5917 12.0974 5.95553 11.9554C5.32586 11.8149 4.73326 11.596 4.28673 11.276C3.98795 11.0619 3.80976 10.7561 3.71825 10.4539C3.67906 10.3245 3.66812 10.2021 3.66403 10.1084L3.50926 6.55821C2.91465 6.25766 2.35732 5.94326 1.91664 5.6461C1.64156 5.46062 1.39495 5.2706 1.2114 5.08428C1.11956 4.99105 1.03176 4.88701 0.964387 4.7737C0.898937 4.66361 0.833252 4.51204 0.833252 4.33333C0.833252 4.15463 0.898937 4.00305 0.964387 3.89297C1.03176 3.77966 1.11956 3.67562 1.2114 3.58239C1.39495 3.39607 1.64156 3.20604 1.91664 3.02056C2.47045 2.64713 3.20848 2.24646 3.97321 1.88026C4.74016 1.513 5.54923 1.17315 6.25122 0.923867C6.60202 0.799296 6.9315 0.695409 7.21899 0.62206ZM9.73006 7.7428C10.269 7.55141 10.8711 7.30664 11.4688 7.03706L11.3368 10.0648C11.3343 10.1214 11.329 10.1494 11.3245 10.1641C11.2812 10.307 11.211 10.4056 11.1306 10.4632C10.8357 10.6746 10.3874 10.8542 9.82651 10.9794C9.27214 11.1031 8.63909 11.1667 7.99993 11.1667C7.36077 11.1667 6.72771 11.1031 6.17334 10.9794C5.61247 10.8542 5.1642 10.6746 4.86922 10.4632C4.7889 10.4056 4.71862 10.307 4.67531 10.1641C4.67088 10.1494 4.66555 10.1214 4.66309 10.0648L4.53146 7.0456C5.1229 7.31181 5.71795 7.55344 6.25122 7.7428C6.60202 7.86737 6.9315 7.97126 7.21899 8.04461C7.4976 8.11569 7.76886 8.16667 7.99064 8.16667C8.21243 8.16667 8.48368 8.11569 8.76229 8.04461C9.04978 7.97126 9.37926 7.86737 9.73006 7.7428ZM1.87789 4.33333C1.89069 4.31875 1.90587 4.30236 1.9238 4.28417C2.0403 4.1659 2.22515 4.01863 2.47571 3.84968C2.97316 3.51426 3.66308 3.13751 4.4051 2.78218C5.1449 2.42793 5.92138 2.10217 6.58585 1.86622C6.91828 1.74817 7.21725 1.65454 7.46621 1.59102C7.72405 1.52524 7.89723 1.5 7.99064 1.5C8.08405 1.5 8.25723 1.52524 8.51507 1.59102C8.76403 1.65454 9.06301 1.74817 9.39543 1.86622C10.0599 2.10217 10.8364 2.42793 11.5762 2.78218C12.3182 3.13751 13.0081 3.51426 13.5056 3.84968C13.7561 4.01863 13.941 4.1659 14.0575 4.28417C14.0754 4.30236 14.0906 4.31875 14.1034 4.33333C14.0906 4.34791 14.0754 4.36431 14.0575 4.3825C13.941 4.50076 13.7561 4.64803 13.5056 4.81698C13.0081 5.15241 12.3182 5.52916 11.5762 5.88448C10.8364 6.23874 10.0599 6.5645 9.39543 6.80045C9.06301 6.9185 8.76403 7.01213 8.51507 7.07565C8.25723 7.14143 8.08405 7.16667 7.99064 7.16667C7.89723 7.16667 7.72405 7.14143 7.46621 7.07565C7.21725 7.01213 6.91828 6.9185 6.58585 6.80045C5.92138 6.5645 5.1449 6.23874 4.4051 5.88448C3.66308 5.52916 2.97316 5.15241 2.47571 4.81698C2.22515 4.64803 2.0403 4.50076 1.9238 4.3825C1.90587 4.3643 1.89069 4.34791 1.87789 4.33333ZM13.1393 12.4409C13.2824 11.9306 13.4235 11.5496 13.6444 11.09C13.8822 11.5805 14.0311 11.9605 14.1581 12.4386C14.1621 12.4638 14.1644 12.4838 14.1657 12.4995C14.1613 12.4998 14.1563 12.5 14.1505 12.5H13.1369L13.132 12.5C13.1334 12.4841 13.1357 12.4647 13.1393 12.4409Z" fill="#161616"/>
</svg>
