<svg width="13" height="13" viewBox="0 0 13 13" fill="none" xmlns="http://www.w3.org/2000/svg">
<path d="M11.125 4.8224C9.97 3.0074 8.28 1.9624 6.5 1.9624C5.61 1.9624 4.745 2.2224 3.955 2.7074C3.165 3.1974 2.455 3.9124 1.875 4.8224C1.375 5.6074 1.375 6.8824 1.875 7.6674C3.03 9.4874 4.72 10.5274 6.5 10.5274C7.39 10.5274 8.255 10.2674 9.045 9.7824C9.835 9.2924 10.545 8.5774 11.125 7.6674C11.625 6.8874 11.625 5.6074 11.125 4.8224ZM6.5 8.2674C5.38 8.2674 4.48 7.3624 4.48 6.2474C4.48 5.1324 5.38 4.2274 6.5 4.2274C7.62 4.2274 8.52 5.1324 8.52 6.2474C8.52 7.3624 7.62 8.2674 6.5 8.2674Z" fill="#6096DA"/>
<path d="M6.5002 4.81738C5.7152 4.81738 5.0752 5.45738 5.0752 6.24738C5.0752 7.03238 5.7152 7.67238 6.5002 7.67238C7.2852 7.67238 7.9302 7.03238 7.9302 6.24738C7.9302 5.46238 7.2852 4.81738 6.5002 4.81738Z" fill="#6096DA"/>
</svg>
