<svg width="36" height="11" viewBox="0 0 36 11" fill="none" xmlns="http://www.w3.org/2000/svg">
<path fill-rule="evenodd" clip-rule="evenodd" d="M16.6031 8.4056V5.45262H18.8483C19.7683 5.45262 20.5449 5.24335 21.1779 4.83063L21.3298 4.726C22.4862 3.87149 22.4102 2.54032 21.1779 1.74976C20.5617 1.33123 19.7177 1.10452 18.8483 1.11615H15.2441V8.4056H16.6031ZM16.6037 4.55734V2.01126H18.8831C19.3727 2.01126 19.837 2.13915 20.1831 2.37167C20.9176 2.85996 20.9345 3.67377 20.2253 4.1795C19.8792 4.42946 19.3896 4.56897 18.8831 4.55734H16.6037ZM27.6698 3.80749C27.0874 3.44127 26.294 3.25526 25.2895 3.25526C23.9981 3.25526 23.0274 3.58079 22.386 4.22602L23.5845 4.74338C24.0234 4.30159 24.6227 4.0807 25.3824 4.0807C25.8635 4.0807 26.3277 4.20277 26.6907 4.42367C27.0452 4.63293 27.2478 4.93521 27.2478 5.25492V5.47C26.7244 5.27236 26.0661 5.16772 25.2558 5.16772C24.3104 5.16772 23.5508 5.31886 22.9852 5.62695C22.4197 5.93503 22.1327 6.34194 22.1327 6.8593C22.1159 7.33015 22.4113 7.77774 22.9346 8.08002C23.4664 8.40554 24.1416 8.56831 24.935 8.56831C25.8719 8.56831 26.6147 8.28347 27.1802 7.7138H27.2393V8.40554H28.5392V5.33049C28.5392 4.68525 28.2522 4.17371 27.6698 3.80749ZM23.9816 7.48717C23.703 7.34766 23.5341 7.12095 23.5341 6.87681C23.5341 6.6036 23.7199 6.37689 24.0829 6.19669C24.4543 6.01649 24.9186 5.92348 25.4673 5.92348C26.2271 5.91767 26.8181 6.03393 27.2402 6.26645C27.2402 6.66173 27.0122 7.00469 26.5648 7.29534C26.1596 7.57436 25.6109 7.73131 25.0368 7.73131C24.6569 7.73712 24.2855 7.64993 23.9816 7.48717ZM31.4592 10.5971L36.0002 3.41809H34.5231L32.4214 6.99887H32.3961L30.2437 3.41809H28.7666L31.7461 8.08589L30.058 10.5971H31.4592Z" fill="#3C4043"/>
<path d="M11.9116 4.81317C11.9116 4.52833 11.8778 4.2435 11.8103 3.96448H6.0791V5.57467H9.3625C9.22745 6.09202 8.78854 6.55706 8.14705 6.84771V7.89404H10.1053C11.2532 7.16742 11.9116 6.09202 11.9116 4.81317Z" fill="#4285F4"/>
<path d="M6.08015 8.9056C7.71763 8.9056 9.10189 8.53358 10.1063 7.89415L8.1481 6.84782C7.59946 7.10359 6.89889 7.24891 6.08015 7.24891C4.49331 7.24891 3.15126 6.51066 2.67014 5.52246H0.652832V6.60367C1.68259 8.01622 3.7843 8.9056 6.08015 8.9056Z" fill="#34A853"/>
<path d="M2.66977 5.5223C2.41651 5.00495 2.41651 4.44109 2.66977 3.91793V2.84253H0.652142C-0.217381 4.02256 -0.217381 5.41767 0.652142 6.5977L2.66977 5.5223Z" fill="#FBBC04"/>
<path d="M6.08015 2.19149C6.94953 2.17987 7.78516 2.40657 8.40976 2.81929L10.1485 1.62182C9.04281 0.912641 7.59102 0.523173 6.08015 0.534799C3.7843 0.534799 1.68259 1.42999 0.652832 2.84254L2.67014 3.92376C3.15126 2.92974 4.49331 2.19149 6.08015 2.19149Z" fill="#EA4335"/>
</svg>
