<svg width="20" height="21" viewBox="0 0 20 21" fill="none" xmlns="http://www.w3.org/2000/svg">
<path d="M4.55004 15.8636V13.4302C4.55004 12.6219 5.18337 11.8969 6.08337 11.8969C6.89171 11.8969 7.61671 12.5302 7.61671 13.4302V15.7719C7.61671 17.3969 6.26671 18.7469 4.64171 18.7469C3.01671 18.7469 1.66671 17.3886 1.66671 15.7719V10.6386C1.57504 5.95524 5.27504 2.16357 9.95837 2.16357C14.6417 2.16357 18.3334 5.95524 18.3334 10.5469V15.6802C18.3334 17.3052 16.9834 18.6552 15.3584 18.6552C13.7334 18.6552 12.3834 17.3052 12.3834 15.6802V13.3386C12.3834 12.5302 13.0167 11.8052 13.9167 11.8052C14.725 11.8052 15.45 12.4386 15.45 13.3386V15.8636" stroke="white" stroke-width="1.5" stroke-linecap="round" stroke-linejoin="round"/>
</svg>
