<svg width="16" height="17" viewBox="0 0 16 17" fill="none" xmlns="http://www.w3.org/2000/svg">
<g clip-path="url(#clip0_1034_1387)">
<path d="M8.83994 2.4994C5.4466 2.40606 2.66661 5.13273 2.66661 8.4994H1.47327C1.17327 8.4994 1.02661 8.8594 1.23994 9.06606L3.09994 10.9327C3.23327 11.0661 3.43994 11.0661 3.57327 10.9327L5.43327 9.06606C5.63994 8.8594 5.49327 8.4994 5.19327 8.4994H3.99994C3.99994 5.8994 6.11994 3.7994 8.73327 3.83273C11.2133 3.86606 13.2999 5.95273 13.3333 8.43273C13.3666 11.0394 11.2666 13.1661 8.6666 13.1661C7.59327 13.1661 6.59994 12.7994 5.81327 12.1794C5.5466 11.9727 5.17327 11.9927 4.93327 12.2327C4.65327 12.5127 4.67327 12.9861 4.9866 13.2261C5.99994 14.0261 7.27327 14.4994 8.6666 14.4994C12.0333 14.4994 14.7599 11.7194 14.6666 8.32606C14.5799 5.1994 11.9666 2.58606 8.83994 2.4994ZM8.49994 5.83273C8.2266 5.83273 7.99994 6.0594 7.99994 6.33273V8.78606C7.99994 9.0194 8.1266 9.2394 8.3266 9.3594L10.4066 10.5927C10.6466 10.7327 10.9533 10.6527 11.0933 10.4194C11.2333 10.1794 11.1533 9.87273 10.9199 9.73273L8.99994 8.59273V6.32606C8.99994 6.0594 8.77327 5.83273 8.49994 5.83273Z" fill="#94D401"/>
</g>
<defs>
<clipPath id="clip0_1034_1387">
<rect width="16" height="16" fill="white" transform="translate(0 0.5)"/>
</clipPath>
</defs>
</svg>
