<svg width="14" height="15" viewBox="0 0 14 15" fill="none" xmlns="http://www.w3.org/2000/svg">
<path fill-rule="evenodd" clip-rule="evenodd" d="M5.24984 1.8125C3.71955 1.8125 2.479 3.05304 2.479 4.58333C2.479 6.11362 3.71955 7.35417 5.24984 7.35417C6.78013 7.35417 8.02067 6.11362 8.02067 4.58333C8.02067 3.05304 6.78013 1.8125 5.24984 1.8125ZM3.354 4.58333C3.354 3.53629 4.2028 2.6875 5.24984 2.6875C6.29688 2.6875 7.14567 3.53629 7.14567 4.58333C7.14567 5.63037 6.29688 6.47917 5.24984 6.47917C4.2028 6.47917 3.354 5.63037 3.354 4.58333Z" fill="#161616"/>
<path d="M8.74984 1.8125C8.50821 1.8125 8.31234 2.00838 8.31234 2.25C8.31234 2.49162 8.50821 2.6875 8.74984 2.6875C9.79688 2.6875 10.6457 3.53629 10.6457 4.58333C10.6457 5.63037 9.79688 6.47917 8.74984 6.47917C8.50821 6.47917 8.31234 6.67504 8.31234 6.91667C8.31234 7.15829 8.50821 7.35417 8.74984 7.35417C10.2801 7.35417 11.5207 6.11362 11.5207 4.58333C11.5207 3.05304 10.2801 1.8125 8.74984 1.8125Z" fill="#161616"/>
<path fill-rule="evenodd" clip-rule="evenodd" d="M0.729004 11.5833C0.729004 9.73088 2.23072 8.22917 4.08317 8.22917H6.4165C8.26896 8.22917 9.77067 9.73088 9.77067 11.5833C9.77067 12.4693 9.05246 13.1875 8.1665 13.1875H2.33317C1.44721 13.1875 0.729004 12.4693 0.729004 11.5833ZM4.08317 9.10417C2.71396 9.10417 1.604 10.2141 1.604 11.5833C1.604 11.986 1.93046 12.3125 2.33317 12.3125H8.1665C8.56921 12.3125 8.89567 11.986 8.89567 11.5833C8.89567 10.2141 7.78571 9.10417 6.4165 9.10417H4.08317Z" fill="#161616"/>
<path d="M9.9165 8.22917C9.67488 8.22917 9.479 8.42504 9.479 8.66667C9.479 8.90829 9.67488 9.10417 9.9165 9.10417C11.2857 9.10417 12.3957 10.2141 12.3957 11.5833C12.3957 11.986 12.0692 12.3125 11.6665 12.3125H10.7915C10.5499 12.3125 10.354 12.5084 10.354 12.75C10.354 12.9916 10.5499 13.1875 10.7915 13.1875H11.6665C12.5525 13.1875 13.2707 12.4693 13.2707 11.5833C13.2707 9.73088 11.769 8.22917 9.9165 8.22917Z" fill="#161616"/>
</svg>
