<svg width="19" height="18" viewBox="0 0 19 18" fill="none" xmlns="http://www.w3.org/2000/svg">
<path d="M8.66673 8.62166C8.66673 8.16143 9.03982 7.78833 9.50006 7.78833H9.50755C9.96778 7.78833 10.3409 8.16143 10.3409 8.62166C10.3409 9.0819 9.96778 9.455 9.50755 9.455H9.50006C9.03982 9.455 8.66673 9.0819 8.66673 8.62166Z" fill="white"/>
<path fill-rule="evenodd" clip-rule="evenodd" d="M9.36335 0.913331C8.81705 0.913304 8.34687 0.91328 7.96094 0.964684C7.54312 1.02034 7.16281 1.1425 6.82447 1.42701C6.49435 1.7046 6.29112 2.06406 6.12675 2.47629C5.98303 2.83671 5.85026 3.28851 5.69523 3.83H3.37343C2.16591 3.83 1.44916 4.7241 1.15158 5.62899C0.85637 6.52667 0.889983 7.63154 1.31957 8.44844C1.33886 8.48511 1.35843 8.52151 1.37828 8.55762C1.37516 8.58828 1.37427 8.61954 1.37577 8.65125L1.50545 11.388C1.57195 12.7818 1.62497 13.8929 1.78795 14.7624C1.95669 15.6626 2.25713 16.389 2.87844 16.9545C3.49574 17.5163 4.25955 17.764 5.19714 17.8819C6.11054 17.9967 7.27328 17.9967 8.74333 17.9967H10.2567C11.7268 17.9967 12.8896 17.9967 13.803 17.8819C14.7406 17.764 15.5044 17.5163 16.1217 16.9545C16.743 16.389 17.0435 15.6626 17.2122 14.7624C17.3752 13.8929 17.4282 12.7818 17.4947 11.388L17.6244 8.65125C17.6259 8.61956 17.625 8.58832 17.6219 8.55768C17.6417 8.52155 17.6613 8.48513 17.6806 8.44844C18.1102 7.63154 18.1438 6.52667 17.8486 5.62899C17.551 4.7241 16.8343 3.83 15.6268 3.83H13.3047C13.1497 3.28851 13.0169 2.83671 12.8732 2.47629C12.7088 2.06406 12.5056 1.7046 12.1755 1.42701C11.8371 1.1425 11.4568 1.02034 11.039 0.964684C10.6531 0.91328 10.1829 0.913304 9.63662 0.913331H9.36335ZM12.0035 3.83C11.894 3.45596 11.804 3.16969 11.7121 2.93927C11.584 2.61806 11.4773 2.47315 11.371 2.38372C11.2728 2.30119 11.145 2.23985 10.874 2.20374C10.5802 2.16461 10.1939 2.16333 9.59744 2.16333H9.4025C8.806 2.16333 8.41974 2.16461 8.12598 2.20374C7.85492 2.23985 7.7271 2.30119 7.62896 2.38372C7.5226 2.47315 7.41593 2.61805 7.28784 2.93927C7.19596 3.16969 7.10591 3.45596 6.99643 3.83H12.0035ZM2.42592 7.86664C2.17955 7.39814 2.1311 6.65174 2.33902 6.01949C2.54457 5.39446 2.91614 5.08 3.37343 5.08H15.6268C16.084 5.08 16.4556 5.39446 16.6612 6.01949C16.8691 6.65174 16.8206 7.39814 16.5743 7.86665C15.3143 10.2625 12.4111 11.33 9.50009 11.33C6.58909 11.33 3.68584 10.2625 2.42592 7.86664ZM16.2973 10.2477C14.5026 11.9087 11.8952 12.58 9.50009 12.58C7.10492 12.58 4.49753 11.9087 2.70281 10.2477L2.75176 11.281C2.82106 12.7329 2.87137 13.7576 3.01655 14.5321C3.15784 15.2858 3.37478 15.716 3.71978 16.03C4.0688 16.3477 4.54179 16.5396 5.35306 16.6416C6.17943 16.7455 7.26355 16.7467 8.78726 16.7467H10.2129C11.7366 16.7467 12.8207 16.7455 13.6471 16.6416C14.4584 16.5396 14.9313 16.3477 15.2804 16.03C15.6254 15.716 15.8423 15.2858 15.9836 14.5321C16.1288 13.7576 16.1791 12.7331 16.2484 11.2812L16.2973 10.2477Z" fill="white"/>
</svg>
