<svg width="14" height="14" viewBox="0 0 14 14" fill="none" xmlns="http://www.w3.org/2000/svg">
<path fill-rule="evenodd" clip-rule="evenodd" d="M6.90854 1.021C6.58118 1.02095 6.28209 1.02091 6.03338 1.06418C5.74951 1.11356 5.4977 1.22354 5.28461 1.45758C5.08579 1.67595 4.96766 1.95143 4.87153 2.26631C4.78444 2.55158 4.70361 2.91195 4.60667 3.35439L2.56107 3.35436C2.32999 3.35415 2.13721 3.35398 1.97215 3.39524C1.50019 3.51321 1.11376 3.88271 1.03345 4.37588C1.00568 4.54643 1.03238 4.73678 1.06045 4.93676L1.06745 4.98691L1.07669 5.05367C1.16062 5.66034 1.21415 6.04721 1.34936 6.37635C1.41931 6.54665 1.50503 6.70852 1.60467 6.8608L1.60467 7.90645C1.60466 8.97986 1.60466 9.82762 1.68884 10.4906C1.77512 11.1701 1.95654 11.7215 2.36955 12.1588C2.7859 12.5996 3.31651 12.7965 3.96986 12.8895C4.60077 12.9793 5.40553 12.9793 6.41512 12.9793H7.58585C8.59544 12.9793 9.40024 12.9793 10.0311 12.8895C10.6845 12.7965 11.2151 12.5996 11.6315 12.1588C12.0445 11.7215 12.2259 11.1701 12.3122 10.4906C12.3964 9.82762 12.3963 8.97988 12.3963 7.90647V6.86075C12.496 6.70849 12.5817 6.54663 12.6516 6.37635C12.7868 6.04721 12.8404 5.66034 12.9243 5.05366L12.9335 4.98691L12.9405 4.93677C12.9686 4.73678 12.9953 4.54643 12.9675 4.37588C12.8872 3.88271 12.5008 3.51321 12.0288 3.39524C11.8638 3.35398 11.671 3.35415 11.4399 3.35436L9.39428 3.35439C9.29734 2.91195 9.21651 2.55158 9.12942 2.26631C9.03329 1.95143 8.91516 1.67595 8.71634 1.45758C8.50324 1.22354 8.25144 1.11356 7.96757 1.06418C7.71886 1.02091 7.41976 1.02095 7.09241 1.021H6.90854ZM8.4983 3.35439C8.42002 3.0011 8.35722 2.73362 8.29255 2.5218C8.20955 2.24993 8.13787 2.12193 8.06934 2.04667C8.01509 1.98709 7.95567 1.95025 7.8176 1.92623C7.65251 1.89751 7.43043 1.896 7.06017 1.896H6.94077C6.57051 1.896 6.34844 1.89751 6.18335 1.92623C6.04528 1.95025 5.98585 1.98709 5.9316 2.04667C5.86308 2.12193 5.79139 2.24993 5.70839 2.5218C5.64373 2.73362 5.58093 3.0011 5.50265 3.35439H8.4983ZM2.34338 6.3912C2.38292 6.42875 2.41545 6.47361 2.4388 6.52361C2.76603 6.94265 3.26178 7.25498 3.85037 7.37966C4.11329 7.43536 4.43161 7.43772 5.20232 7.43772H5.40843C5.41356 7.39728 5.42083 7.35761 5.43111 7.31924C5.52551 6.96696 5.80067 6.6918 6.15295 6.5974C6.2851 6.562 6.43271 6.56229 6.57421 6.56257L6.61161 6.56262H7.38939L7.42678 6.56257C7.56828 6.56229 7.71589 6.562 7.84804 6.5974C8.20032 6.6918 8.47549 6.96696 8.56988 7.31924C8.58016 7.35761 8.58743 7.39728 8.59257 7.43772H8.79865C9.56937 7.43772 9.88769 7.43536 10.1506 7.37966C10.7392 7.25497 11.235 6.9426 11.5623 6.52352C11.5856 6.47358 11.6181 6.42878 11.6575 6.39127C11.7305 6.28121 11.7925 6.16498 11.8423 6.04387C11.9298 5.83065 11.9704 5.56295 12.0668 4.86684C12.0849 4.73654 12.096 4.6549 12.1015 4.59266C12.1067 4.53242 12.1039 4.51633 12.1039 4.51653C12.0865 4.40986 11.9922 4.28801 11.8166 4.24412C11.7712 4.23275 11.6986 4.22939 11.3897 4.22939H2.61127C2.30236 4.22939 2.22982 4.23275 2.18434 4.24412C2.00875 4.28801 1.91444 4.40986 1.89707 4.51653C1.8971 4.51634 1.89424 4.53242 1.89951 4.59266C1.90494 4.6549 1.91612 4.73654 1.93417 4.86684C2.03061 5.56295 2.07114 5.83065 2.15873 6.04387C2.20847 6.16495 2.27041 6.28115 2.34338 6.3912ZM2.47967 7.87516V7.73766C2.83228 7.97322 3.23621 8.14398 3.66903 8.23567C4.03328 8.31283 4.45034 8.31279 5.1411 8.31272L5.40288 8.31272C5.47661 9.13029 6.16373 9.77095 7.0005 9.77095C7.83726 9.77095 8.52439 9.13029 8.59811 8.31272L8.85988 8.31272C9.55064 8.31279 9.9677 8.31283 10.3319 8.23567C10.7648 8.14398 11.1687 7.97321 11.5213 7.73764V7.87516C11.5213 8.9868 11.5205 9.77894 11.4441 10.3804C11.3691 10.9716 11.2278 11.3119 10.9953 11.558C10.7662 11.8006 10.4547 11.9454 9.90783 12.0233C9.34571 12.1033 8.60334 12.1043 7.55143 12.1043H6.44958C5.39767 12.1043 4.6553 12.1033 4.09317 12.0233C3.54632 11.9454 3.23479 11.8006 3.00569 11.558C2.77325 11.3119 2.63195 10.9716 2.55687 10.3804C2.4805 9.77894 2.47967 8.9868 2.47967 7.87516ZM6.27669 7.54429C6.29039 7.49512 6.32883 7.45668 6.378 7.44298C6.38083 7.44251 6.39228 7.44086 6.41884 7.43965C6.46104 7.43773 6.51723 7.43762 6.61161 7.43762H7.38939C7.48376 7.43762 7.53996 7.43773 7.58216 7.43965C7.60871 7.44086 7.62017 7.44251 7.62299 7.44298C7.67217 7.45668 7.7106 7.49512 7.72431 7.54429C7.72477 7.54712 7.72642 7.55857 7.72763 7.58513C7.72956 7.62733 7.72966 7.68352 7.72966 7.7779V8.16679C7.72966 8.56949 7.4032 8.89595 7.0005 8.89595C6.59779 8.89595 6.27133 8.56949 6.27133 8.16679V7.7779C6.27133 7.68352 6.27144 7.62733 6.27336 7.58513C6.27457 7.55857 6.27622 7.54712 6.27669 7.54429Z" fill="#222222"/>
</svg>
