<svg width="20" height="21" viewBox="0 0 20 21" fill="none" xmlns="http://www.w3.org/2000/svg">
<path d="M9.655 1.49658H8.68289C7.05716 1.49657 5.77679 1.49656 4.77632 1.6236C3.75217 1.75364 2.92699 2.02638 2.27355 2.64351C1.61507 3.26541 1.31945 4.05881 1.1794 5.04259C1.04392 5.99432 1.04393 7.20942 1.04395 8.73881V12.171C1.04393 13.7004 1.04392 14.9155 1.1794 15.8672C1.31945 16.851 1.61506 17.6444 2.27356 18.2663C2.927 18.8835 3.75218 19.1562 4.77632 19.2862C5.77679 19.4133 7.05717 19.4133 8.68291 19.4132H9.16895C9.51412 19.4132 9.79395 19.1334 9.79395 18.7882C9.79395 18.4431 9.51412 18.1632 9.16895 18.1632H8.72778C7.04728 18.1632 5.84634 18.1621 4.93378 18.0462C4.03571 17.9321 3.51212 17.7167 3.13181 17.3575C2.75657 17.0031 2.53532 16.5227 2.41693 15.6911C2.29543 14.8376 2.29395 13.7116 2.29395 12.1216V8.78825C2.29395 7.19822 2.29543 6.07222 2.41693 5.21876C2.53532 4.38712 2.75657 3.90669 3.13183 3.55228C3.51213 3.1931 4.03571 2.97768 4.93378 2.86364C5.84634 2.74777 7.04729 2.74658 8.72778 2.74658H9.61011C11.2906 2.74658 12.4916 2.74777 13.4041 2.86364C14.3022 2.97768 14.8258 3.1931 15.2061 3.55228C15.5813 3.90669 15.8026 4.38712 15.921 5.21876C16.0425 6.07222 16.0439 7.19822 16.0439 8.78825V9.62158C16.0439 9.96676 16.3238 10.2466 16.6689 10.2466C17.0141 10.2466 17.2939 9.96676 17.2939 9.62158V8.73882C17.294 7.20943 17.294 5.99433 17.1585 5.04259C17.0184 4.05881 16.7228 3.26541 16.0643 2.64351C15.4109 2.02637 14.5857 1.75364 13.5616 1.6236C12.5611 1.49656 11.2807 1.49657 9.655 1.49658Z" fill="white"/>
<path d="M5.83561 5.66325C5.49043 5.66325 5.21061 5.94307 5.21061 6.28825C5.21061 6.63343 5.49043 6.91325 5.83561 6.91325H12.5023C12.8475 6.91325 13.1273 6.63343 13.1273 6.28825C13.1273 5.94307 12.8475 5.66325 12.5023 5.66325H5.83561Z" fill="white"/>
<path d="M5.21061 10.4549C5.21061 10.1097 5.49043 9.82992 5.83561 9.82992H12.5023C12.8475 9.82992 13.1273 10.1097 13.1273 10.4549C13.1273 10.8001 12.8475 11.0799 12.5023 11.0799H5.83561C5.49043 11.0799 5.21061 10.8001 5.21061 10.4549Z" fill="white"/>
<path fill-rule="evenodd" clip-rule="evenodd" d="M17.827 12.0451C17.0936 11.3137 15.9051 11.3137 15.1717 12.0451L12.1019 15.1064C11.7762 15.4312 11.5558 15.8462 11.4694 16.2977L11.0711 18.1531C10.9117 18.8959 11.5742 19.5492 12.3117 19.3895L14.1822 18.9846C14.6335 18.8985 15.049 18.6793 15.3744 18.3547L18.4078 15.2727C19.14 14.5402 19.1392 13.3537 18.4056 12.6221L17.827 12.0451ZM16.0543 12.9303C16.2999 12.6854 16.6988 12.6854 16.9443 12.9303L17.5229 13.5072C17.7675 13.7512 17.7675 14.1459 17.5229 14.3899L14.4899 17.4714C14.341 17.6192 14.1507 17.719 13.9436 17.7576C13.9377 17.7587 13.9317 17.7599 13.9258 17.7611L12.361 18.0999L12.6932 16.5527L12.6964 16.5366C12.735 16.3303 12.8354 16.1403 12.9845 15.9915L16.0543 12.9303Z" fill="white"/>
</svg>
