<svg width="132" height="26" viewBox="0 0 132 26" fill="none" xmlns="http://www.w3.org/2000/svg">
<g clip-path="url(#clip0_346_4684)">
<path d="M47.6225 12.0631C47.6225 16.3453 44.1826 19.8148 39.9415 19.8148C37.7095 19.8148 36.0599 18.8068 35.0651 18.0021L34.2403 17.3137C34.1739 17.2624 34.0116 17.1204 33.6696 17.1342C33.3237 17.1461 33.097 17.3315 33.0344 17.3867L33.0559 17.3611C31.6546 18.87 29.6649 19.8148 27.4544 19.8148C23.2113 19.8148 19.7734 16.3433 19.7734 12.0631C19.7734 7.783 23.2133 4.31154 27.4544 4.31154C29.6884 4.31154 31.6507 5.2228 33.054 6.76129L33.0891 6.79876C33.1595 6.85202 33.3804 6.97036 33.6598 6.9605C33.955 6.95064 34.1133 6.88555 34.213 6.82835L34.3576 6.72184C35.8996 5.36284 37.688 4.30957 39.9415 4.30957C44.1826 4.31154 47.6225 7.783 47.6225 12.0631ZM36.8573 8.22285C35.4794 9.54634 34.8482 9.84812 33.7322 9.85009C32.6338 9.85404 31.5373 9.16764 31.3028 8.93489C30.8513 8.4911 30.4272 8.14592 30.1242 7.92699C29.5457 7.50686 29.2486 7.29581 28.848 7.14591C28.848 7.14591 28.2186 6.91119 27.4271 6.94078C26.2075 6.98614 22.5351 8.41417 22.5351 12.0513C22.5351 14.8738 24.6283 17.1638 27.4271 17.1638C29.0278 17.1638 30.0031 16.4873 31.1269 15.4518L31.3829 15.2466C31.3829 15.2466 33.7009 13.5464 36.0091 15.1914L36.6892 15.8048C37.2697 16.3433 38.3662 17.1658 39.9688 17.1658C42.7656 17.1658 44.8686 14.8423 44.9781 12.0651C44.9781 8.8343 41.9839 6.77707 39.9688 6.94275C38.7141 7.04334 37.8404 7.27609 36.8573 8.22285Z" fill="#94D401"/>
<path d="M2.25349 6.57986C3.75646 5.06307 5.56824 4.30566 7.68883 4.30566C9.80941 4.30566 11.6212 5.06307 13.1242 6.57986C14.6271 8.09665 15.3777 9.92508 15.3777 12.0652V18.1954C15.3777 20.3355 14.6271 22.1639 13.1242 23.6807C11.6212 25.1975 9.80941 25.9549 7.68883 25.9549C6.06468 25.9549 4.59492 25.4835 3.27762 24.5447C1.96032 23.6038 1.02804 22.3868 0.480796 20.8957H3.32453C3.77405 21.6413 4.3858 22.2369 5.15585 22.6827C5.92786 23.1285 6.77023 23.3513 7.68687 23.3513C9.09995 23.3513 10.3098 22.8484 11.3143 21.8424C12.3189 20.8365 12.8212 19.6215 12.8212 18.1935C12.8212 18.1442 12.8173 18.085 12.8095 18.01C12.8017 17.937 12.7978 17.8838 12.7978 17.8522C11.3358 19.1659 9.63156 19.8227 7.68883 19.8227C5.56824 19.8227 3.75646 19.0653 2.25349 17.5485C0.750511 16.0337 0 14.2052 0 12.0652C0 9.92508 0.750511 8.09665 2.25349 6.57986ZM11.3163 8.40435C10.3117 7.39053 9.1019 6.88362 7.68883 6.88362C6.2738 6.88362 5.06595 7.39053 4.06136 8.40435C3.05677 9.41817 2.55447 10.6391 2.55447 12.0652C2.55447 13.4932 3.05677 14.7082 4.06136 15.7141C5.06595 16.7201 6.2738 17.223 7.68883 17.223C9.1019 17.223 10.3117 16.7201 11.3163 15.7141C12.3209 14.7082 12.8232 13.4932 12.8232 12.0652C12.8232 10.6371 12.3209 9.41817 11.3163 8.40435Z" fill="white"/>
<path d="M51.9785 12.0653V0L54.533 1.28996V12.0653C54.533 13.5091 55.0353 14.734 56.0399 15.7379C57.0445 16.7439 58.2523 17.2468 59.6673 17.2468V19.8248C57.5468 19.8248 55.735 19.0674 54.232 17.5506C52.729 16.0338 51.9785 14.2054 51.9785 12.0653Z" fill="white"/>
<path d="M75.5984 12.0652V20.6767L73.0439 19.3631V17.8542C71.5644 19.1678 69.8542 19.8247 67.9095 19.8247C65.7889 19.8247 63.9772 19.0672 62.4742 17.5505C60.9712 16.0337 60.2207 14.2052 60.2207 12.0652C60.2207 9.92508 60.9712 8.09665 62.4742 6.57986C63.9772 5.06307 65.7889 4.30566 67.9095 4.30566C70.0301 4.30566 71.8419 5.06307 73.3449 6.57986C74.8478 8.09665 75.5984 9.92508 75.5984 12.0652ZM71.537 8.41618C70.5324 7.41025 69.3226 6.90728 67.9095 6.90728C66.4945 6.90728 65.2867 7.41025 64.2821 8.41618C63.2775 9.42212 62.7752 10.6391 62.7752 12.0652C62.7752 13.4932 63.2775 14.7121 64.2821 15.726C65.2867 16.7398 66.4945 17.2467 67.9095 17.2467C69.3226 17.2467 70.5324 16.7398 71.537 15.726C72.5416 14.7121 73.0439 13.4932 73.0439 12.0652C73.0439 10.6371 72.5416 9.42212 71.537 8.41618Z" fill="white"/>
<path d="M78.106 10.3373C78.106 8.68246 78.6923 7.26429 79.865 6.08084C81.0376 4.89739 82.4527 4.30566 84.1061 4.30566C85.7459 4.30566 87.1512 4.89739 88.3239 6.08084C89.4965 7.26429 90.0829 8.68443 90.0829 10.3373V19.8247H87.503V10.3373C87.503 9.39648 87.1688 8.58976 86.5023 7.91716C85.8358 7.24457 85.0365 6.90728 84.1042 6.90728C83.1719 6.90728 82.3686 7.24457 81.6943 7.91716C81.0201 8.58976 80.6819 9.39648 80.6819 10.3373V19.8247L78.1021 21.1146V10.3373H78.106Z" fill="white"/>
<path d="M99.4603 4.30566C100.891 4.30566 102.212 4.67451 103.426 5.41219C104.64 6.14988 105.574 7.12819 106.234 8.3432H103.053C102.056 7.3708 100.86 6.88362 99.4603 6.88362C98.0453 6.88362 96.8413 7.39053 95.8446 8.40435C94.8478 9.41817 94.3494 10.6391 94.3494 12.0652C94.3494 13.4932 94.8478 14.7082 95.8446 15.7141C96.8413 16.7201 98.0453 17.223 99.4603 17.223C100.295 17.223 101.075 17.0376 101.798 16.6629C102.521 16.2901 103.115 15.7792 103.582 15.1303H106.522C105.928 16.5248 104.991 17.657 103.713 18.5229C102.435 19.3907 101.018 19.8247 99.4583 19.8247C97.3378 19.8247 95.5299 19.0672 94.0347 17.5505C92.5396 16.0337 91.793 14.2052 91.793 12.0652C91.793 9.92508 92.5396 8.09665 94.0347 6.57986C95.5318 5.06307 97.3397 4.30566 99.4603 4.30566Z" fill="white"/>
<path d="M109.451 6.57986C110.954 5.06307 112.766 4.30566 114.887 4.30566C117.007 4.30566 118.819 5.06307 120.322 6.57986C121.825 8.09665 122.575 9.92508 122.575 12.0652C122.575 12.4715 122.534 12.8995 122.454 13.3551H109.92C110.21 14.4912 110.812 15.4183 111.728 16.1402C112.645 16.8621 113.696 17.223 114.885 17.223C116.38 17.223 117.625 16.6806 118.622 15.5938H121.731C121.088 16.8759 120.152 17.9015 118.923 18.6708C117.693 19.442 116.347 19.8266 114.885 19.8266C112.764 19.8266 110.952 19.0692 109.449 17.5524C107.946 16.0356 107.196 14.2072 107.196 12.0671C107.198 9.92509 107.948 8.09665 109.451 6.57986ZM109.922 10.7752H119.853C119.579 9.64106 118.981 8.7081 118.057 7.97831C117.132 7.24851 116.077 6.88362 114.887 6.88362C113.696 6.88362 112.641 7.24851 111.716 7.97831C110.794 8.7081 110.194 9.64106 109.922 10.7752Z" fill="white"/>
<path d="M124.334 12.0652C124.334 9.92508 125.081 8.09665 126.576 6.57986C128.071 5.06307 129.879 4.30566 132 4.30566V6.88362C130.585 6.88362 129.381 7.39053 128.384 8.40435C127.387 9.41817 126.889 10.6391 126.889 12.0652V19.8247L124.334 21.1146V12.0652Z" fill="white"/>
</g>
<defs>
<clipPath id="clip0_346_4684">
<rect width="132" height="25.9551" fill="white"/>
</clipPath>
</defs>
</svg>
