<svg width="36" height="21" viewBox="0 0 36 21" fill="none" xmlns="http://www.w3.org/2000/svg">
<path d="M21.8364 10.0586C21.8364 15.6139 16.9482 20.1173 10.9182 20.1173C4.88825 20.1173 0 15.6139 0 10.0586C0 4.50341 4.88825 0 10.9182 0C16.9482 0 21.8364 4.50341 21.8364 10.0586Z" fill="#ED0006"/>
<path d="M36 10.0586C36 15.6139 31.1117 20.1173 25.0818 20.1173C19.0518 20.1173 14.1636 15.6139 14.1636 10.0586C14.1636 4.50341 19.0518 0 25.0818 0C31.1117 0 36 4.50341 36 10.0586Z" fill="#0099DF"/>
<path fill-rule="evenodd" clip-rule="evenodd" d="M17.9999 17.7148C15.6522 15.8699 14.1636 13.1245 14.1636 10.0589C14.1636 6.99322 15.6522 4.24789 17.9999 2.40295C20.3476 4.24789 21.8362 6.99324 21.8362 10.0589C21.8362 13.1245 20.3476 15.8699 17.9999 17.7148Z" fill="#6C6BBD"/>
</svg>
