<svg width="32" height="33" viewBox="0 0 32 33" fill="none" xmlns="http://www.w3.org/2000/svg">
<rect y="0.955078" width="32" height="32" rx="16" fill="#94D401"/>
<path d="M11.8332 16.9549C11.8332 16.4947 12.2063 16.1216 12.6665 16.1216H12.674C13.1342 16.1216 13.5073 16.4947 13.5073 16.9549C13.5073 17.4152 13.1342 17.7882 12.674 17.7882H12.6665C12.2063 17.7882 11.8332 17.4152 11.8332 16.9549Z" fill="black"/>
<path d="M15.1628 16.9549C15.1628 16.4947 15.5358 16.1216 15.9961 16.1216H16.0036C16.4638 16.1216 16.8369 16.4947 16.8369 16.9549C16.8369 17.4152 16.4638 17.7882 16.0036 17.7882H15.9961C15.5358 17.7882 15.1628 17.4152 15.1628 16.9549Z" fill="black"/>
<path d="M19.3257 16.1216C18.8654 16.1216 18.4923 16.4947 18.4923 16.9549C18.4923 17.4152 18.8654 17.7882 19.3257 17.7882H19.3332C19.7934 17.7882 20.1665 17.4152 20.1665 16.9549C20.1665 16.4947 19.7934 16.1216 19.3332 16.1216H19.3257Z" fill="black"/>
<path fill-rule="evenodd" clip-rule="evenodd" d="M7.0415 16.5938C7.0415 11.8202 11.0792 7.99658 15.9998 7.99658C20.9205 7.99658 24.9582 11.8202 24.9582 16.5938C24.9582 21.3674 20.9205 25.1911 15.9998 25.1911C15.4199 25.1918 14.8418 25.1382 14.2723 25.0312C14.0747 24.9941 13.9491 24.9707 13.8556 24.9579C13.8152 24.9523 13.7901 24.9502 13.7764 24.9494L13.7884 24.9449C13.7884 24.9449 13.7833 24.9461 13.7746 24.9474L13.7677 24.9483C13.7698 24.9484 13.7725 24.9492 13.7764 24.9494C13.7622 24.9548 13.7348 24.966 13.6896 24.9875C13.5942 25.0328 13.4671 25.1002 13.2725 25.2037C12.0794 25.8382 10.6874 26.0632 9.3448 25.8135C9.12801 25.7732 8.9485 25.6216 8.87245 25.4147C8.79639 25.2077 8.83504 24.9759 8.97415 24.8048C9.36398 24.3253 9.63203 23.7477 9.75057 23.1259C9.78265 22.9549 9.71006 22.7227 9.48693 22.4961C7.9746 20.9603 7.0415 18.8836 7.0415 16.5938ZM15.9998 9.24658C11.7168 9.24658 8.2915 12.5622 8.2915 16.5938C8.2915 18.5347 9.08063 20.302 10.3776 21.619C10.7727 22.0203 11.1132 22.6459 10.9788 23.3581L10.9786 23.3592C10.892 23.8137 10.7447 24.2521 10.5419 24.6619C11.2868 24.6443 12.0243 24.4517 12.6855 24.1001L12.6984 24.0933L12.7012 24.0918C12.8783 23.9976 13.0298 23.917 13.1534 23.8583C13.2735 23.8012 13.4235 23.7366 13.5859 23.7117C13.744 23.6876 13.8977 23.7019 14.0255 23.7195C14.1533 23.737 14.3096 23.7663 14.4884 23.7999L14.503 23.8027C14.9964 23.8953 15.497 23.9417 15.999 23.9411C20.2821 23.9411 23.7082 20.6255 23.7082 16.5938C23.7082 12.5622 20.2829 9.24658 15.9998 9.24658Z" fill="black"/>
</svg>
