<svg width="18" height="18" viewBox="0 0 18 18" fill="none" xmlns="http://www.w3.org/2000/svg">
<path fill-rule="evenodd" clip-rule="evenodd" d="M7.7738 0.35394C8.14472 0.111122 8.59748 0.0419922 9 0.0419922C9.40252 0.0419922 9.85528 0.111122 10.2262 0.35394C10.6377 0.623318 10.875 1.05935 10.875 1.60449C10.875 1.99131 10.7573 2.39147 10.5658 2.73725C13.1929 3.40575 15.1768 5.71812 15.3255 8.54332C15.3331 8.68711 15.3387 8.82478 15.3441 8.95741C15.3626 9.40868 15.3787 9.80157 15.4604 10.178C15.5581 10.6279 15.7389 10.9816 16.1066 11.2573C16.7477 11.7382 17.125 12.4928 17.125 13.2942C17.125 14.4453 16.219 15.4587 15 15.4587H12.0625C11.7729 16.8851 10.5118 17.9587 9 17.9587C7.48815 17.9587 6.22706 16.8851 5.93751 15.4587H3C1.78099 15.4587 0.875 14.4453 0.875 13.2942C0.875 12.4928 1.25232 11.7382 1.89344 11.2573C2.26108 10.9816 2.44187 10.6279 2.53958 10.178C2.62134 9.80157 2.63741 9.40868 2.65588 8.95741C2.6613 8.82479 2.66694 8.68709 2.6745 8.54332C2.8232 5.71811 4.80714 3.40575 7.43423 2.73725C7.24271 2.39147 7.125 1.99131 7.125 1.60449C7.125 1.05935 7.3623 0.623318 7.7738 0.35394ZM7.23169 15.4587C7.48909 16.1869 8.18361 16.7087 9 16.7087C9.81639 16.7087 10.5109 16.1869 10.7683 15.4587H7.23169ZM15 14.2087C15.478 14.2087 15.875 13.8067 15.875 13.2942C15.875 12.8863 15.6829 12.5021 15.3566 12.2573C14.6848 11.7535 14.3811 11.0983 14.2389 10.4433C14.1317 9.9496 14.1104 9.41214 14.0919 8.94547C14.0873 8.82833 14.0828 8.71543 14.0772 8.60902C13.9351 5.90865 11.7041 3.79199 9 3.79199C6.29589 3.79199 4.0649 5.90865 3.92278 8.60902C3.91717 8.7155 3.91271 8.82825 3.90807 8.94548C3.8896 9.41214 3.86833 9.9496 3.7611 10.4433C3.61886 11.0983 3.31517 11.7535 2.64344 12.2573C2.31708 12.5021 2.125 12.8863 2.125 13.2942C2.125 13.8067 2.52201 14.2087 3 14.2087H15ZM9.38227 2.27178C9.22056 2.48935 9.07243 2.54199 9 2.54199C8.92757 2.54199 8.77944 2.48935 8.61773 2.27178C8.46066 2.06047 8.375 1.79805 8.375 1.60449C8.375 1.51787 8.392 1.47554 8.40137 1.45772C8.41025 1.44086 8.42483 1.42178 8.45843 1.39978C8.53992 1.34643 8.71216 1.29199 9 1.29199C9.28784 1.29199 9.46008 1.34643 9.54157 1.39978C9.57517 1.42178 9.58975 1.44086 9.59863 1.45772C9.608 1.47554 9.625 1.51787 9.625 1.60449C9.625 1.79805 9.53934 2.06047 9.38227 2.27178Z" fill="#161616"/>
</svg>
