<svg width="17" height="18" viewBox="0 0 17 18" fill="none" xmlns="http://www.w3.org/2000/svg">
<path fill-rule="evenodd" clip-rule="evenodd" d="M7.6488 0.311948C8.01972 0.0691299 8.47248 0 8.875 0C9.27752 0 9.73028 0.0691299 10.1012 0.311948C10.5127 0.581326 10.75 1.01736 10.75 1.5625C10.75 1.94931 10.6323 2.34948 10.4408 2.69526C13.0679 3.36376 15.0518 5.67612 15.2005 8.50133C15.2081 8.64511 15.2137 8.78279 15.2191 8.91542C15.2376 9.36669 15.2537 9.75958 15.3354 10.136C15.4331 10.5859 15.6139 10.9396 15.9816 11.2153C16.6227 11.6962 17 12.4508 17 13.2522C17 14.4033 16.094 15.4167 14.875 15.4167H11.9375C11.6479 16.8431 10.3868 17.9167 8.875 17.9167C7.36315 17.9167 6.10206 16.8431 5.81251 15.4167H2.875C1.65599 15.4167 0.75 14.4033 0.75 13.2522C0.75 12.4508 1.12732 11.6962 1.76844 11.2153C2.13608 10.9396 2.31687 10.5859 2.41458 10.136C2.49634 9.75957 2.51241 9.36669 2.53088 8.91542C2.5363 8.7828 2.54194 8.6451 2.5495 8.50133C2.6982 5.67612 4.68214 3.36376 7.30923 2.69526C7.11771 2.34948 7 1.94931 7 1.5625C7 1.01736 7.2373 0.581326 7.6488 0.311948ZM7.10669 15.4167C7.36409 16.1449 8.05861 16.6667 8.875 16.6667C9.69139 16.6667 10.3859 16.1449 10.6433 15.4167H7.10669ZM14.875 14.1667C15.353 14.1667 15.75 13.7647 15.75 13.2522C15.75 12.8443 15.5579 12.4601 15.2316 12.2153C14.5598 11.7115 14.2561 11.0563 14.1139 10.4013C14.0067 9.90761 13.9854 9.37014 13.9669 8.90348C13.9623 8.78634 13.9578 8.67343 13.9522 8.56703C13.8101 5.86666 11.5791 3.75 8.875 3.75C6.17089 3.75 3.9399 5.86666 3.79778 8.56703C3.79217 8.6735 3.78771 8.78626 3.78307 8.90348C3.7646 9.37015 3.74333 9.90761 3.6361 10.4013C3.49386 11.0563 3.19017 11.7115 2.51844 12.2153C2.19208 12.4601 2 12.8443 2 13.2522C2 13.7647 2.39701 14.1667 2.875 14.1667H14.875ZM9.25727 2.22979C9.09556 2.44736 8.94743 2.5 8.875 2.5C8.80257 2.5 8.65444 2.44736 8.49273 2.22979C8.33566 2.01848 8.25 1.75605 8.25 1.5625C8.25 1.47588 8.267 1.43355 8.27637 1.41573C8.28525 1.39886 8.29983 1.37979 8.33343 1.35779C8.41492 1.30444 8.58716 1.25 8.875 1.25C9.16284 1.25 9.33508 1.30444 9.41657 1.35779C9.45017 1.37979 9.46475 1.39886 9.47363 1.41573C9.483 1.43355 9.5 1.47588 9.5 1.5625C9.5 1.75605 9.41434 2.01848 9.25727 2.22979Z" fill="white"/>
</svg>
