<svg width="17" height="19" viewBox="0 0 17 19" fill="none" xmlns="http://www.w3.org/2000/svg">
<path d="M5.5582 12.3974C5.31412 12.1533 5.31412 11.7576 5.5582 11.5135L10.5582 6.51351C10.8023 6.26943 11.198 6.26943 11.4421 6.51351C11.6862 6.75759 11.6862 7.15331 11.4421 7.39739L6.44208 12.3974C6.198 12.6415 5.80228 12.6415 5.5582 12.3974Z" fill="white"/>
<path d="M6.00014 6.12212C5.5399 6.12212 5.16681 6.49521 5.16681 6.95545C5.16681 7.41569 5.5399 7.78878 6.00014 7.78878L6.00761 7.78878C6.46785 7.78878 6.84095 7.41569 6.84095 6.95545C6.84095 6.49521 6.46785 6.12212 6.00761 6.12212L6.00014 6.12212Z" fill="white"/>
<path d="M10.9927 11.1221C10.5324 11.1221 10.1593 11.4952 10.1593 11.9555C10.1593 12.4157 10.5324 12.7888 10.9927 12.7888L11.0001 12.7888C11.4604 12.7888 11.8335 12.4157 11.8335 11.9555C11.8335 11.4952 11.4604 11.1221 11.0001 11.1221L10.9927 11.1221Z" fill="white"/>
<path fill-rule="evenodd" clip-rule="evenodd" d="M7.7514 1.29029L7.81933 1.38074C8.14684 1.8168 8.85344 1.8168 9.18095 1.38074L9.24888 1.29029C10.0432 0.232725 11.6793 0.232723 12.4736 1.29029L12.9056 1.86547C12.9571 1.93408 13.0444 1.97617 13.1495 1.97086C13.2546 1.96555 13.3333 1.91544 13.3745 1.84597C13.7642 1.18864 14.4864 1.01035 15.0667 1.15404C15.6489 1.29818 16.2085 1.8001 16.2085 2.57857L16.2085 16.3323C16.2085 17.1108 15.6489 17.6127 15.0667 17.7569C14.4864 17.9006 13.7642 17.7223 13.3745 17.0649C13.3333 16.9955 13.2546 16.9453 13.1495 16.94C13.0444 16.9347 12.9571 16.9768 12.9056 17.0454L12.4736 17.6206C11.6793 18.6782 10.0432 18.6782 9.24888 17.6206L9.18095 17.5302C8.85344 17.0941 8.14684 17.0941 7.81933 17.5302L7.7514 17.6206C6.95709 18.6782 5.32097 18.6782 4.52666 17.6206L4.09466 17.0454C4.04313 16.9768 3.95586 16.9347 3.85073 16.94C3.74569 16.9453 3.66701 16.9955 3.62581 17.0649C3.23605 17.7223 2.51391 17.9006 1.93356 17.7569C1.35137 17.6127 0.791808 17.1108 0.791808 16.3323L0.791807 2.57857C0.791807 1.8001 1.35137 1.29818 1.93356 1.15404C2.51391 1.01035 3.23605 1.18864 3.62581 1.84597C3.66701 1.91544 3.74569 1.96555 3.85073 1.97086C3.95586 1.97617 4.04313 1.93408 4.09466 1.86547L4.52666 1.29029C5.32097 0.232723 6.95709 0.232724 7.7514 1.29029ZM6.75191 2.04098C6.45763 1.64916 5.82043 1.64916 5.52615 2.04097L5.09415 2.61616C4.45092 3.47258 3.10131 3.41225 2.55062 2.48351C2.49041 2.38197 2.37684 2.33203 2.23398 2.3674C2.16482 2.38453 2.11421 2.41828 2.08501 2.45165C2.06073 2.47939 2.04181 2.51609 2.04181 2.57857L2.04181 16.3323C2.04181 16.3948 2.06073 16.4315 2.08501 16.4593C2.11421 16.4926 2.16482 16.5264 2.23398 16.5435C2.37684 16.5789 2.49041 16.5289 2.55062 16.4274C3.10131 15.4987 4.45092 15.4383 5.09415 16.2947L5.52615 16.8699C5.82043 17.2617 6.45763 17.2617 6.75191 16.8699L6.81984 16.7795C7.64738 15.6777 9.3529 15.6777 10.1804 16.7795L10.2484 16.8699C10.5426 17.2617 11.1799 17.2617 11.4741 16.8699L11.9061 16.2947C12.5494 15.4383 13.899 15.4987 14.4497 16.4274C14.5099 16.5289 14.6234 16.5789 14.7663 16.5435C14.8355 16.5264 14.8861 16.4926 14.9153 16.4593C14.9395 16.4315 14.9585 16.3948 14.9585 16.3323L14.9585 2.57857C14.9585 2.51609 14.9395 2.47939 14.9153 2.45165C14.8861 2.41828 14.8355 2.38452 14.7663 2.3674C14.6234 2.33203 14.5099 2.38197 14.4497 2.48351C13.899 3.41225 12.5494 3.47258 11.9061 2.61615L11.4741 2.04098C11.1799 1.64916 10.5426 1.64916 10.2484 2.04098L10.1804 2.13142C9.3529 3.23323 7.64738 3.23324 6.81984 2.13142L6.75191 2.04098Z" fill="white"/>
</svg>
