<svg width="18" height="17" viewBox="0 0 18 17" fill="none" xmlns="http://www.w3.org/2000/svg">
<path d="M11.2915 5.12175C11.2915 5.46692 11.0117 5.74675 10.6665 5.74675L3.99984 5.74675C3.65466 5.74675 3.37484 5.46692 3.37484 5.12175C3.37484 4.77657 3.65466 4.49674 3.99984 4.49674L10.6665 4.49675C11.0117 4.49675 11.2915 4.77657 11.2915 5.12175Z" fill="white"/>
<path d="M10.6665 9.08008C11.0117 9.08008 11.2915 8.80026 11.2915 8.45508C11.2915 8.1099 11.0117 7.83008 10.6665 7.83008H3.99984C3.65466 7.83008 3.37484 8.1099 3.37484 8.45508C3.37484 8.80026 3.65466 9.08008 3.99984 9.08008H10.6665Z" fill="white"/>
<path d="M7.95817 11.7884C7.95817 12.1336 7.67835 12.4134 7.33317 12.4134H3.99984C3.65466 12.4134 3.37484 12.1336 3.37484 11.7884C3.37484 11.4432 3.65466 11.1634 3.99984 11.1634H7.33317C7.67835 11.1634 7.95817 11.4432 7.95817 11.7884Z" fill="white"/>
<path fill-rule="evenodd" clip-rule="evenodd" d="M5.62078 0.330079H9.04557C10.1852 0.330062 11.1038 0.330048 11.8263 0.427182C12.5764 0.528029 13.208 0.743774 13.7095 1.24537C14.2111 1.74697 14.4269 2.37853 14.5277 3.12862C14.581 3.52443 14.605 3.97911 14.6159 4.49675L14.8743 4.49675C15.4284 4.49672 15.9058 4.49669 16.288 4.54809C16.6977 4.60317 17.0905 4.72738 17.409 5.04592C17.7275 5.36446 17.8517 5.75718 17.9068 6.16688C17.9582 6.54916 17.9582 7.02653 17.9582 7.58058L17.9582 14.2884C17.9582 15.5541 16.9322 16.5801 15.6665 16.5801C15.6656 16.5801 15.6647 16.5801 15.6638 16.5801H5.62078C4.48112 16.5801 3.56252 16.5801 2.84005 16.483C2.08996 16.3821 1.45839 16.1664 0.956797 15.6648C0.455199 15.1632 0.239455 14.5316 0.138608 13.7815C0.0414741 13.0591 0.0414876 12.1405 0.0415043 11.0008V5.90935C0.0414876 4.7697 0.0414741 3.85109 0.138608 3.12862C0.239455 2.37853 0.455199 1.74697 0.956796 1.24537C1.45839 0.743774 2.08996 0.528029 2.84005 0.427182C3.56252 0.330048 4.48112 0.330062 5.62078 0.330079ZM15.6647 15.3301C15.6653 15.3301 15.6659 15.3301 15.6665 15.3301C16.2418 15.3301 16.7082 14.8637 16.7082 14.2884V7.62175C16.7082 7.01482 16.7068 6.62251 16.668 6.33344C16.6315 6.06235 16.5727 5.97738 16.5251 5.92981C16.4775 5.88223 16.3926 5.82339 16.1215 5.78694C15.8324 5.74808 15.4401 5.74675 14.8332 5.74675H14.6248V5.79961C14.6248 5.83596 14.6248 5.87254 14.6248 5.90936V10.9551C14.6248 10.9556 14.6248 10.956 14.6248 10.9565V14.2884C14.6248 14.8631 15.0902 15.3291 15.6647 15.3301ZM13.3748 14.2884C13.3748 14.6635 13.465 15.0176 13.6247 15.3301H5.6665C4.47032 15.3301 3.63606 15.3288 3.00661 15.2441C2.39513 15.1619 2.07132 15.0115 1.84068 14.7809C1.61004 14.5503 1.45967 14.2265 1.37746 13.615C1.29283 12.9855 1.29151 12.1513 1.29151 10.9551V5.95508C1.29151 4.7589 1.29283 3.92464 1.37746 3.29518C1.45967 2.6837 1.61004 2.35989 1.84068 2.12925C2.07132 1.89862 2.39513 1.74825 3.00661 1.66604C3.63606 1.58141 4.47033 1.58008 5.6665 1.58008H8.99984C10.196 1.58008 11.0303 1.58141 11.6597 1.66604C12.2712 1.74825 12.595 1.89862 12.8257 2.12925C13.0563 2.35989 13.2067 2.6837 13.2889 3.29518C13.3721 3.91383 13.3748 4.73031 13.3748 5.89378C13.3748 5.91411 13.3748 5.93454 13.3748 5.95508L13.3748 14.2884Z" fill="white"/>
</svg>
