<svg width="18" height="16" viewBox="0 0 18 16" fill="none" xmlns="http://www.w3.org/2000/svg">
<path fill-rule="evenodd" clip-rule="evenodd" d="M4.94974 14.8828L5.30601 13.1871L4.51238 13.1732H0.722656L3.35638 0.659548C3.36458 0.621655 3.39111 0.586479 3.42985 0.561456C3.46877 0.536432 3.51839 0.522705 3.57029 0.522705H9.96034C12.0819 0.522705 13.5459 0.853445 14.3101 1.50635C14.6685 1.81264 14.8967 2.13279 15.0072 2.48498C15.123 2.85462 15.1249 3.29618 15.012 3.83483L15.0038 3.87401V4.21919L15.3621 4.37133C15.6638 4.4913 15.9037 4.62857 16.0876 4.78572C16.3941 5.04768 16.5924 5.38057 16.6761 5.77508C16.7628 6.1809 16.7341 6.66392 16.5924 7.21072C16.4288 7.8396 16.1645 8.3874 15.8075 8.83554C15.4793 9.2485 15.061 9.59111 14.5643 9.8565C14.0901 10.1087 13.5268 10.3002 12.8898 10.4228C12.2725 10.5432 11.5688 10.6039 10.7969 10.6039H10.2996C9.94412 10.6039 9.59873 10.6999 9.32758 10.8719C9.05565 11.0475 8.8759 11.2874 8.82075 11.5498L8.78316 11.7025L8.15364 14.6915L8.12521 14.8012C8.11757 14.8359 8.1046 14.8532 8.08552 14.8649C8.06853 14.8757 8.04411 14.8828 8.02026 14.8828H4.94974Z" fill="#28356A"/>
<path fill-rule="evenodd" clip-rule="evenodd" d="M15.7014 3.91394C15.6825 4.00531 15.6605 4.09869 15.6361 4.19463C14.7934 7.43683 11.9103 8.55689 8.22821 8.55689H6.35339C5.90305 8.55689 5.5235 8.80183 5.45347 9.13472L4.22172 14.9895C4.17611 15.2082 4.4009 15.4051 4.69515 15.4051H8.02041C8.41407 15.4051 8.74859 15.1907 8.8106 14.8997L8.84323 14.7732L9.46932 11.7959L9.50958 11.6326C9.57084 11.3407 9.90611 11.1262 10.2998 11.1262H10.7971C14.0187 11.1262 16.5408 10.1461 17.2779 7.30971C17.5857 6.12488 17.4264 5.13552 16.6116 4.43972C16.3651 4.22995 16.0592 4.05579 15.7014 3.91394Z" fill="#298FC2"/>
<path fill-rule="evenodd" clip-rule="evenodd" d="M14.8196 3.65059C14.6908 3.62242 14.558 3.59697 14.4218 3.57395C14.2847 3.5515 14.1445 3.53162 14 3.51418C13.4945 3.45298 12.9406 3.42395 12.3473 3.42395H7.33883C7.21536 3.42395 7.0982 3.44483 6.99344 3.48258C6.76235 3.5658 6.5908 3.72967 6.54921 3.93028L5.48366 8.98733L5.45312 9.13476C5.52316 8.80187 5.9027 8.55693 6.35304 8.55693H8.22786C11.91 8.55693 14.7931 7.4363 15.6358 4.19468C15.6609 4.09873 15.6821 4.00536 15.701 3.91398C15.4879 3.82919 15.257 3.75669 15.0083 3.69492C14.9469 3.67962 14.8835 3.66489 14.8196 3.65059Z" fill="#22284F"/>
<path fill-rule="evenodd" clip-rule="evenodd" d="M6.54952 3.93027C6.59112 3.72966 6.76267 3.56579 6.99375 3.48314C7.09928 3.44525 7.21568 3.42437 7.33914 3.42437H12.3476C12.9409 3.42437 13.4949 3.45354 14.0003 3.51474C14.1448 3.53204 14.2851 3.55206 14.4221 3.57451C14.5583 3.59739 14.6911 3.62299 14.8199 3.65101C14.8839 3.66531 14.9472 3.68018 15.0092 3.69491C15.2579 3.75668 15.4889 3.82975 15.7021 3.91397C15.9528 2.71585 15.7 1.90008 14.8356 1.16138C13.8824 0.348042 12.1624 0 9.96122 0H3.57098C3.12141 0 2.73785 0.244945 2.66839 0.578402L0.00681161 13.2207C-0.0456644 13.4708 0.211754 13.6965 0.548364 13.6965H4.49341L6.54952 3.93027Z" fill="#28356A"/>
</svg>
