<svg width="16" height="16" viewBox="0 0 16 16" fill="none" xmlns="http://www.w3.org/2000/svg">
<path d="M8.38886 0.833496H7.61115C6.31057 0.833488 5.28627 0.833481 4.4859 0.93511C3.66658 1.03914 3.00643 1.25733 2.48368 1.75104C1.9569 2.24856 1.7204 2.88328 1.60837 3.6703C1.49998 4.43169 1.49999 5.40376 1.5 6.62727V9.37304C1.49999 10.5966 1.49998 11.5686 1.60837 12.33C1.7204 13.117 1.9569 13.7518 2.48368 14.2493C3.00643 14.743 3.66658 14.9612 4.4859 15.0652C5.28627 15.1668 6.31057 15.1668 7.61116 15.1668H7.64706L7.65686 15.1667L7.66667 15.1668H8.66667C8.94281 15.1668 9.16667 14.943 9.16667 14.6668C9.16667 14.3907 8.94281 14.1668 8.66667 14.1668H7.66667L7.65686 14.1669L7.64706 14.1668C6.30267 14.1668 5.34191 14.1659 4.61186 14.0732C3.89341 13.982 3.47455 13.8096 3.17031 13.5223C2.8701 13.2387 2.6931 12.8544 2.59838 12.1891C2.50119 11.5063 2.5 10.6055 2.5 9.3335L2.5 6.66683C2.5 5.39481 2.50119 4.49401 2.59838 3.81124C2.6931 3.14592 2.8701 2.76158 3.17031 2.47805C3.47455 2.19071 3.89341 2.01837 4.61186 1.92714C5.34191 1.83445 6.30267 1.8335 7.64706 1.8335H8.35294C9.69734 1.8335 10.6581 1.83445 11.3881 1.92715C12.1066 2.01837 12.5255 2.19071 12.8297 2.47805C13.1299 2.76158 13.3069 3.14592 13.4016 3.81124C13.4988 4.49401 13.5 5.39481 13.5 6.66683C13.5 6.94297 13.7239 7.16683 14 7.16683C14.2761 7.16683 14.5 6.94297 14.5 6.66683V6.62729C14.5 5.40377 14.5 4.43169 14.3916 3.6703C14.2796 2.88328 14.0431 2.24856 13.5163 1.75104C12.9936 1.25733 12.3334 1.03915 11.5141 0.93511C10.7137 0.833481 9.68944 0.833488 8.38886 0.833496Z" fill="#222222"/>
<path d="M5.33333 4.16683C5.05719 4.16683 4.83333 4.39069 4.83333 4.66683C4.83333 4.94297 5.05719 5.16683 5.33333 5.16683H10.6667C10.9428 5.16683 11.1667 4.94297 11.1667 4.66683C11.1667 4.39069 10.9428 4.16683 10.6667 4.16683H5.33333Z" fill="#222222"/>
<path d="M4.83333 8.00016C4.83333 7.72402 5.05719 7.50016 5.33333 7.50016H8.66667C8.94281 7.50016 9.16667 7.72402 9.16667 8.00016C9.16667 8.2763 8.94281 8.50016 8.66667 8.50016H5.33333C5.05719 8.50016 4.83333 8.2763 4.83333 8.00016Z" fill="#222222"/>
<path fill-rule="evenodd" clip-rule="evenodd" d="M12.6667 8.16683C11.2867 8.16683 10.1667 9.2839 10.1667 10.6636C10.1667 11.4447 10.5257 12.1416 11.0876 12.5993L10.5845 14.3578L10.5809 14.371C10.4516 14.8748 10.9497 15.3079 11.4293 15.1164L12.6667 14.6222L13.9166 15.1214C14.3846 15.3083 14.8759 14.8995 14.7713 14.403L14.7689 14.3922L14.3324 12.5254C14.8443 12.0684 15.1667 11.4038 15.1667 10.6636C15.1667 9.2839 14.0466 8.16683 12.6667 8.16683ZM11.1667 10.6636C11.1667 9.83771 11.8375 9.16683 12.6667 9.16683C13.4959 9.16683 14.1667 9.83771 14.1667 10.6636C14.1667 11.4894 13.4959 12.1603 12.6667 12.1603C11.8375 12.1603 11.1667 11.4894 11.1667 10.6636ZM11.7526 13.9105L11.9935 13.0687C12.2077 13.1284 12.4335 13.1603 12.6667 13.1603C12.9315 13.1603 13.1868 13.1192 13.4264 13.0429L13.6343 13.9319L12.9511 13.6591C12.7685 13.5861 12.5648 13.5861 12.3822 13.6591L11.7526 13.9105Z" fill="#222222"/>
</svg>
