<svg width="21" height="21" viewBox="0 0 21 21" fill="none" xmlns="http://www.w3.org/2000/svg">
<path d="M10.1552 1.49658H9.18313C7.55741 1.49657 6.27703 1.49656 5.27657 1.6236C4.25242 1.75364 3.42723 2.02638 2.77379 2.64351C2.11531 3.26541 1.81969 4.05881 1.67965 5.04259C1.54416 5.99432 1.54417 7.20942 1.54419 8.73881V12.171C1.54417 13.7004 1.54416 14.9155 1.67965 15.8672C1.81969 16.851 2.11531 17.6444 2.77381 18.2663C3.42724 18.8835 4.25242 19.1562 5.27656 19.2862C6.27703 19.4133 7.55741 19.4133 9.18316 19.4132H9.66919C10.0144 19.4132 10.2942 19.1334 10.2942 18.7882C10.2942 18.4431 10.0144 18.1632 9.66919 18.1632H9.22802C7.54753 18.1632 6.34658 18.1621 5.43402 18.0462C4.53595 17.9321 4.01236 17.7167 3.63206 17.3575C3.25681 17.0031 3.03556 16.5227 2.91717 15.6911C2.79568 14.8376 2.79419 13.7116 2.79419 12.1216V8.78825C2.79419 7.19822 2.79568 6.07222 2.91717 5.21876C3.03556 4.38712 3.25681 3.90669 3.63207 3.55228C4.01238 3.1931 4.53595 2.97768 5.43402 2.86364C6.34658 2.74777 7.54753 2.74658 9.22802 2.74658H10.1104C11.7909 2.74658 12.9918 2.74777 13.9044 2.86364C14.8024 2.97768 15.326 3.1931 15.7063 3.55228C16.0816 3.90669 16.3028 4.38712 16.4212 5.21876C16.5427 6.07222 16.5442 7.19822 16.5442 8.78825V9.62158C16.5442 9.96676 16.824 10.2466 17.1692 10.2466C17.5144 10.2466 17.7942 9.96676 17.7942 9.62158V8.73882C17.7942 7.20943 17.7942 5.99433 17.6587 5.04259C17.5187 4.05881 17.2231 3.26541 16.5646 2.64351C15.9111 2.02637 15.086 1.75364 14.0618 1.6236C13.0614 1.49656 11.781 1.49657 10.1552 1.49658Z" fill="white"/>
<path d="M6.33586 5.66325C5.99068 5.66325 5.71086 5.94307 5.71086 6.28825C5.71086 6.63343 5.99068 6.91325 6.33586 6.91325H13.0025C13.3477 6.91325 13.6275 6.63343 13.6275 6.28825C13.6275 5.94307 13.3477 5.66325 13.0025 5.66325H6.33586Z" fill="white"/>
<path d="M5.71086 10.4549C5.71086 10.1097 5.99068 9.82992 6.33586 9.82992H13.0025C13.3477 9.82992 13.6275 10.1097 13.6275 10.4549C13.6275 10.8001 13.3477 11.0799 13.0025 11.0799H6.33586C5.99068 11.0799 5.71086 10.8001 5.71086 10.4549Z" fill="white"/>
<path fill-rule="evenodd" clip-rule="evenodd" d="M18.3273 12.0451C17.5938 11.3137 16.4054 11.3137 15.6719 12.0451L12.6021 15.1064C12.2765 15.4312 12.056 15.8462 11.9697 16.2977L11.5714 18.1531C11.4119 18.8959 12.0745 19.5492 12.8119 19.3895L14.6824 18.9846C15.1338 18.8985 15.5492 18.6793 15.8746 18.3547L18.9081 15.2727C19.6402 14.5402 19.6395 13.3537 18.9058 12.6221L18.3273 12.0451ZM16.5546 12.9303C16.8002 12.6854 17.199 12.6854 17.4446 12.9303L18.0232 13.5072C18.2678 13.7512 18.2678 14.1459 18.0231 14.3899L14.9901 17.4714C14.8412 17.6192 14.6509 17.719 14.4439 17.7576C14.4379 17.7587 14.432 17.7599 14.4261 17.7611L12.8613 18.0999L13.1934 16.5527L13.1967 16.5366C13.2353 16.3303 13.3356 16.1403 13.4848 15.9915L16.5546 12.9303Z" fill="white"/>
</svg>
