<svg width="20" height="21" viewBox="0 0 20 21" fill="none" xmlns="http://www.w3.org/2000/svg">
<path fill-rule="evenodd" clip-rule="evenodd" d="M14.5725 15.2479C13.8792 15.2479 13.1742 14.9096 12.1692 14.4271L7.63987 12.2523C8.0985 13.8628 8.87768 14.5785 9.66908 15.097C10.2299 15.4645 10.5858 16.0678 10.6208 16.7103C10.6533 17.3053 10.4074 17.8654 9.94492 18.247L8.70245 19.2712C8.58756 19.3661 8.44605 19.4136 8.30535 19.4137C8.16799 19.4136 8.03147 19.3686 7.91741 19.2787C5.17167 17.1012 5.18408 15.7596 5.21408 12.5174L5.21552 12.354C5.21723 12.1611 5.21899 11.964 5.22017 11.7592C5.15283 11.7717 5.09401 11.7807 5.03586 11.7872C4.22086 11.8805 3.45335 11.6488 2.87668 11.1355C2.24002 10.568 1.87501 9.69964 1.87501 8.75298L1.87502 7.99297C1.87502 7.0463 2.24002 6.17798 2.87668 5.61048C3.45335 5.09631 4.22085 4.86545 5.04001 4.95878C5.19501 4.97545 5.35837 5.01208 5.68503 5.08541C6.01003 5.15875 6.32666 5.12295 6.62583 4.97962L12.1684 2.31881L12.17 2.31792C13.5025 1.67792 14.3067 1.29213 15.2567 1.61129C16.2174 1.93374 16.5533 2.63856 17.0615 3.70495C18.4756 6.67078 18.4759 10.0738 17.0617 13.0396C16.5535 14.106 16.2174 14.8113 15.2567 15.1338C15.0234 15.2121 14.7984 15.2479 14.5725 15.2479ZM6.87501 10.5184C6.97317 10.5521 7.06996 10.5917 7.16501 10.6371L12.7092 13.2988C13.9583 13.898 14.4125 14.098 14.8583 13.948C15.2975 13.8005 15.455 13.5046 15.9334 12.5005C17.1842 9.87629 17.1842 6.86542 15.9334 4.24126C15.455 3.23709 15.2975 2.94125 14.8583 2.79375C14.4125 2.64375 13.9583 2.84377 12.7108 3.4421L12.71 3.44292L7.16668 6.10462C7.07103 6.15049 6.97369 6.19043 6.87501 6.22442L6.87501 10.5184ZM5.62501 10.3996L5.62501 6.34198C5.55385 6.3318 5.4827 6.31879 5.41168 6.30294L5.39361 6.29888C5.14107 6.24214 4.98796 6.20773 4.90167 6.19878C4.425 6.14378 4.02499 6.25964 3.70916 6.54131C3.33833 6.87214 3.12583 7.40042 3.12583 7.99126L3.12583 8.75127C3.12583 9.3421 3.33833 9.87047 3.70916 10.2013C4.02499 10.483 4.42502 10.5979 4.89752 10.5437C4.98918 10.5337 5.14836 10.4979 5.41086 10.4388C5.48218 10.4227 5.5536 10.4096 5.62501 10.3996ZM8.30328 17.9803C6.46301 16.4283 6.4366 15.5742 6.46239 12.6914C6.91835 14.2399 7.71067 15.3084 8.9841 16.142C9.2141 16.2929 9.35993 16.5303 9.37326 16.7787C9.38076 16.9178 9.34825 17.1178 9.14992 17.282L8.30328 17.9803Z" fill="white"/>
</svg>
