<svg width="18" height="18" viewBox="0 0 18 18" fill="none" xmlns="http://www.w3.org/2000/svg">
<path fill-rule="evenodd" clip-rule="evenodd" d="M9.01644 5.43555C7.06043 5.43555 5.47477 7.02121 5.47477 8.97721C5.47477 10.9332 7.06043 12.5189 9.01644 12.5189C10.9724 12.5189 12.5581 10.9332 12.5581 8.97721C12.5581 7.02121 10.9724 5.43555 9.01644 5.43555ZM6.72477 8.97721C6.72477 7.71156 7.75079 6.68555 9.01644 6.68555C10.2821 6.68555 11.3081 7.71156 11.3081 8.97721C11.3081 10.2429 10.2821 11.2689 9.01644 11.2689C7.75079 11.2689 6.72477 10.2429 6.72477 8.97721Z" fill="white"/>
<path fill-rule="evenodd" clip-rule="evenodd" d="M9.54621 0.025393H8.55835C8.29444 0.0253604 8.04643 0.0253297 7.83857 0.0491072C7.60695 0.0756023 7.36339 0.136877 7.13611 0.301007C6.90894 0.465064 6.77411 0.676965 6.67595 0.888387C6.58778 1.07829 6.50943 1.31389 6.42598 1.56485L6.4167 1.59272L6.14357 2.40845C6.06464 2.60743 5.92654 2.77702 5.74828 2.8943L5.4963 3.03969C5.28538 3.14463 5.04519 3.17454 4.81517 3.12457L3.8149 2.84283L3.78551 2.83449C3.51217 2.75689 3.25656 2.68432 3.03645 2.64937C2.79165 2.6105 2.52385 2.60554 2.24693 2.71817C1.97011 2.83076 1.78174 3.02118 1.63343 3.21975C1.49999 3.39842 1.36725 3.62885 1.22519 3.87546L0.783512 4.64197C0.650429 4.87286 0.525547 5.08953 0.441772 5.28299C0.348491 5.49841 0.279679 5.74162 0.309144 6.02209C0.338613 6.3026 0.456481 6.52618 0.592534 6.71749C0.714701 6.88927 0.881899 7.07517 1.06004 7.27322L1.07872 7.29399L1.07982 7.29521L1.92243 8.23726C2.02775 8.37995 2.13785 8.6901 2.13785 8.98359C2.13785 9.27739 2.02777 9.58742 1.92244 9.73012L1.07982 10.6722L1.07872 10.6734L1.06004 10.6942C0.881901 10.8922 0.714704 11.0781 0.592537 11.2499C0.456483 11.4412 0.338614 11.6648 0.309145 11.9453C0.279679 12.2258 0.348494 12.469 0.441775 12.6844C0.525549 12.8779 0.650431 13.0945 0.783512 13.3254L1.22519 14.0919C1.36724 14.3385 1.49998 14.569 1.63342 14.7476C1.78173 14.9462 1.9701 15.1366 2.24694 15.2492C2.52386 15.3618 2.79167 15.3569 3.03647 15.318C3.25658 15.283 3.5122 15.2105 3.78555 15.1329L3.81444 15.1247L4.81513 14.8428C5.0452 14.7928 5.28544 14.8227 5.4964 14.9277L5.74833 15.0731C5.92655 15.1904 6.06462 15.36 6.14354 15.5589L6.4167 16.3747L6.42598 16.4026C6.50943 16.6536 6.58778 16.8892 6.67595 17.0791C6.77411 17.2905 6.90894 17.5024 7.13611 17.6664C7.36339 17.8306 7.60695 17.8919 7.83857 17.9184C8.04643 17.9421 8.29445 17.9421 8.55836 17.9421H9.54619C9.81011 17.9421 10.0581 17.9421 10.266 17.9184C10.4976 17.8919 10.7412 17.8306 10.9684 17.6664C11.1956 17.5024 11.3304 17.2905 11.4286 17.0791C11.5168 16.8892 11.5951 16.6536 11.6786 16.4026L11.6879 16.3747L11.961 15.5589C12.0399 15.36 12.178 15.1904 12.3562 15.0731L12.6082 14.9277C12.8191 14.8227 13.0594 14.7928 13.2894 14.8428L14.2901 15.1247L14.319 15.1329C14.5924 15.2105 14.848 15.2831 15.0681 15.318C15.3129 15.3569 15.5807 15.3618 15.8576 15.2492C16.1345 15.1366 16.3228 14.9462 16.4711 14.7476C16.6046 14.569 16.7373 14.3385 16.8794 14.0919L17.321 13.3255C17.4541 13.0946 17.579 12.8779 17.6628 12.6844C17.7561 12.469 17.8249 12.2258 17.7954 11.9453C17.7659 11.6648 17.6481 11.4412 17.512 11.2499C17.3899 11.0781 17.2227 10.8922 17.0446 10.6942L17.0258 10.6734L16.1821 9.73012C16.0768 9.58743 15.9667 9.27739 15.9667 8.98359C15.9667 8.6901 16.0768 8.37995 16.1821 8.23725L17.0247 7.29521L17.0258 7.29399L17.0445 7.27322C17.2227 7.07517 17.3899 6.88927 17.512 6.71749C17.6481 6.52618 17.7659 6.3026 17.7954 6.02209C17.8249 5.74161 17.7561 5.49841 17.6628 5.28299C17.579 5.08954 17.4541 4.87288 17.3211 4.64201L16.8793 3.87542C16.7373 3.62883 16.6046 3.39841 16.4711 3.21975C16.3228 3.02118 16.1345 2.83076 15.8576 2.71817C15.5807 2.60554 15.3129 2.6105 15.0681 2.64937C14.848 2.68432 14.5924 2.75689 14.319 2.83449L14.2902 2.8427L13.2894 3.12457C13.0594 3.17454 12.8192 3.14463 12.6083 3.03969L12.3563 2.8943C12.178 2.77701 12.0399 2.60742 11.961 2.40844L11.6875 1.59157L11.6786 1.56482C11.5951 1.31387 11.5168 1.07828 11.4286 0.888387C11.3304 0.676965 11.1956 0.465064 10.9684 0.301007C10.7412 0.136877 10.4976 0.0756023 10.266 0.0491072C10.0581 0.0253297 9.81012 0.0253604 9.54621 0.025393ZM7.86726 1.31497L7.86794 1.31438C7.86794 1.31438 7.87213 1.31224 7.87868 1.31007C7.89286 1.30537 7.92283 1.29762 7.98063 1.29101C8.10883 1.27634 8.28405 1.2754 8.58779 1.2754H9.51677C9.82051 1.2754 9.99573 1.27634 10.1239 1.29101C10.1817 1.29762 10.2117 1.30537 10.2259 1.31007C10.2324 1.31224 10.2366 1.31438 10.2366 1.31438L10.2373 1.31497C10.2373 1.31497 10.2401 1.31784 10.2443 1.32346C10.2534 1.3356 10.2703 1.3618 10.2949 1.41478C10.3494 1.5322 10.4057 1.69866 10.5018 1.98731L10.7847 2.8324L10.7896 2.845C10.9647 3.30155 11.2811 3.69019 11.6928 3.95387L11.705 3.96168L12.0115 4.13851L12.025 4.14546C12.5052 4.39219 13.0571 4.46103 13.5832 4.33972L13.5978 4.33635L14.6302 4.04555C14.9442 3.95646 15.1268 3.90571 15.2641 3.88391C15.3262 3.87405 15.3594 3.87372 15.3753 3.87467C15.3825 3.87511 15.3862 3.87591 15.3862 3.87591L15.3872 3.87633C15.3872 3.87633 15.3905 3.87839 15.3961 3.8832C15.4082 3.89366 15.4319 3.91722 15.4696 3.96775C15.553 4.07941 15.6488 4.2435 15.8119 4.52659L16.2232 5.24042C16.3762 5.50597 16.4639 5.65995 16.5157 5.7797C16.5391 5.83375 16.5475 5.86409 16.5506 5.87912C16.552 5.88608 16.5523 5.89026 16.5523 5.89026L16.5523 5.89149L16.552 5.89268C16.552 5.89268 16.5509 5.89669 16.5481 5.90318C16.542 5.9172 16.5275 5.94509 16.4934 5.99304C16.4178 6.09931 16.3001 6.2316 16.0953 6.45942L16.0942 6.46064L15.2222 7.43549L15.2103 7.4505C14.8983 7.8455 14.7167 8.4525 14.7167 8.98359C14.7167 9.51491 14.8983 10.1218 15.2103 10.5169L15.2222 10.5319L16.0953 11.508C16.3001 11.7358 16.4178 11.8681 16.4934 11.9743C16.5275 12.0223 16.5419 12.0502 16.5481 12.0642C16.5509 12.0707 16.552 12.0747 16.552 12.0747L16.5523 12.0759L16.5523 12.0771C16.5523 12.0771 16.552 12.0813 16.5506 12.0883C16.5475 12.1033 16.5391 12.1336 16.5157 12.1877C16.4639 12.3074 16.3762 12.4614 16.2232 12.727L15.8119 13.4408C15.6488 13.7239 15.553 13.888 15.4696 13.9996C15.4319 14.0502 15.4082 14.0737 15.3961 14.0842C15.3905 14.089 15.3872 14.091 15.3872 14.091L15.3862 14.0915C15.3862 14.0915 15.3825 14.0923 15.3753 14.0927C15.3595 14.0937 15.3262 14.0933 15.2641 14.0835C15.1268 14.0617 14.9442 14.0109 14.6302 13.9218L13.5978 13.631L13.5832 13.6276C13.0571 13.5063 12.5051 13.5752 12.0248 13.822L12.0113 13.829L11.7049 14.0058L11.6927 14.0136C11.281 14.2773 10.9647 14.6659 10.7896 15.1224L10.7848 15.135L10.5021 15.979L10.5018 15.9801C10.4057 16.2688 10.3494 16.4353 10.2949 16.5527C10.2703 16.6057 10.2534 16.6319 10.2443 16.644C10.2401 16.6496 10.2373 16.6525 10.2373 16.6525L10.2359 16.6535C10.2359 16.6535 10.2347 16.6541 10.2325 16.655C10.2308 16.6556 10.2286 16.6565 10.2259 16.6574C10.2117 16.6621 10.1817 16.6698 10.1239 16.6764C9.99573 16.6911 9.82051 16.6921 9.51677 16.6921H8.58779C8.28405 16.6921 8.10883 16.6911 7.98063 16.6764C7.92283 16.6698 7.89286 16.6621 7.87868 16.6574C7.87213 16.6552 7.86795 16.6531 7.86795 16.6531L7.86726 16.6525C7.86726 16.6525 7.86444 16.6496 7.86025 16.644C7.85121 16.6319 7.8343 16.6057 7.8097 16.5527C7.75519 16.4353 7.69882 16.2688 7.60279 15.9801L7.3198 15.135L7.31497 15.1224C7.13989 14.6659 6.82351 14.2773 6.4119 14.0136L6.3997 14.0058L6.09329 13.829L6.07975 13.822C5.59948 13.5752 5.04749 13.5063 4.52134 13.6276L4.50675 13.631L3.47435 13.9218C3.1604 14.0109 2.97774 14.0617 2.84044 14.0835C2.77834 14.0933 2.74511 14.0937 2.72929 14.0927C2.72203 14.0923 2.71836 14.0915 2.71836 14.0915L2.71735 14.091C2.71735 14.091 2.71406 14.089 2.70849 14.0842C2.69636 14.0737 2.67267 14.0502 2.63492 13.9996C2.55152 13.888 2.45577 13.7239 2.29266 13.4408L1.88135 12.727C1.72833 12.4614 1.64071 12.3074 1.58885 12.1877C1.56545 12.1336 1.55706 12.1033 1.55398 12.0883C1.55255 12.0813 1.55228 12.0771 1.55228 12.0771L1.5523 12.0759L1.55253 12.0747C1.55253 12.0747 1.55365 12.0707 1.55649 12.0642C1.56261 12.0502 1.5771 12.0223 1.6112 11.9743C1.68678 11.8681 1.80445 11.7358 2.0093 11.508L2.0104 11.5067L2.88238 10.5319L2.89424 10.5169C3.2063 10.1218 3.38785 9.51491 3.38785 8.98359C3.38785 8.4525 3.20622 7.8455 2.89421 7.4505L2.88235 7.43549L2.0104 6.46064L2.0093 6.45942C1.80445 6.2316 1.68678 6.09931 1.6112 5.99304C1.5771 5.94509 1.56261 5.9172 1.55649 5.90318C1.55365 5.89669 1.55253 5.89268 1.55253 5.89268L1.5523 5.89149L1.55228 5.89026C1.55228 5.89026 1.55255 5.88608 1.55397 5.87912C1.55706 5.86409 1.56544 5.83375 1.58885 5.7797C1.6407 5.65995 1.72833 5.50597 1.88134 5.24042L2.29267 4.52659C2.45579 4.2435 2.55154 4.07941 2.63493 3.96775C2.67267 3.91722 2.69637 3.89366 2.70849 3.8832C2.71406 3.87839 2.71735 3.87633 2.71735 3.87633L2.71836 3.87591C2.71836 3.87591 2.72204 3.87511 2.7293 3.87467C2.74511 3.87372 2.77834 3.87405 2.84044 3.88391C2.97774 3.90571 3.16039 3.95646 3.47434 4.04555L4.5068 4.33635L4.52139 4.33972C5.04744 4.46103 5.59933 4.39219 6.07954 4.14546L6.09308 4.13851L6.39954 3.96168L6.41173 3.95387C6.82344 3.69019 7.13988 3.30155 7.315 2.845L7.31983 2.8324L7.60279 1.98731C7.69882 1.69866 7.75519 1.5322 7.8097 1.41478C7.8343 1.3618 7.85121 1.3356 7.86025 1.32346C7.86444 1.31784 7.86726 1.31497 7.86726 1.31497Z" fill="white"/>
</svg>
