<svg width="17" height="17" viewBox="0 0 17 17" fill="none" xmlns="http://www.w3.org/2000/svg">
<path d="M10.7965 4.90248C10.6889 4.98374 10.3677 5.22634 10.1826 5.37083C9.81178 5.66021 9.31906 6.05561 8.82779 6.48215C8.33405 6.91085 7.85319 7.36119 7.49969 7.76126C7.32244 7.96187 7.18775 8.13809 7.10008 8.28351C7.01763 8.42028 7.00049 8.50107 7.00049 8.50107C7.00049 8.50107 7.01764 8.57949 7.10008 8.71625C7.18775 8.86167 7.32243 9.03789 7.49969 9.2385C7.85318 9.63858 8.33405 10.0889 8.8278 10.5176C9.31907 10.9441 9.8118 11.3396 10.1826 11.6289C10.3678 11.7734 10.6885 12.0157 10.796 12.0969C11.0184 12.2607 11.0664 12.574 10.9026 12.7964C10.7388 13.0187 10.4258 13.0662 10.2035 12.9025L10.2019 12.9013C10.0892 12.8162 9.75637 12.5648 9.56739 12.4173C9.1882 12.1214 8.68093 11.7144 8.17219 11.2727C7.66594 10.8332 7.14681 10.3494 6.75031 9.90064C6.55256 9.67684 6.37475 9.44998 6.24366 9.23253C6.12085 9.02882 6 8.77089 6 8.49988C6 8.22887 6.12086 7.97095 6.24367 7.76723C6.37475 7.54979 6.55256 7.32293 6.75031 7.09913C7.14681 6.65038 7.66594 6.1666 8.17218 5.72705C8.68091 5.28535 9.18818 4.8784 9.56736 4.58248C9.75641 4.43494 10.0891 4.18363 10.2017 4.0986L10.2031 4.09752C10.4255 3.93376 10.7388 3.98103 10.9026 4.20337C11.0663 4.42571 11.0188 4.73872 10.7965 4.90248Z" fill="#292D32"/>
</svg>
