<svg width="17" height="17" viewBox="0 0 17 17" fill="none" xmlns="http://www.w3.org/2000/svg">
<path d="M6.20352 12.0975C6.31111 12.0163 6.63227 11.7737 6.81741 11.6292C7.18822 11.3398 7.68094 10.9444 8.17221 10.5178C8.66595 10.0892 9.14681 9.63881 9.50031 9.23874C9.67756 9.03813 9.81225 8.86191 9.89992 8.71649C9.98237 8.57972 9.99951 8.49893 9.99951 8.49893C9.99951 8.49893 9.98236 8.42051 9.89992 8.28375C9.81225 8.13833 9.67757 7.96211 9.50031 7.7615C9.14682 7.36142 8.66595 6.91108 8.1722 6.48239C7.68093 6.05585 7.1882 5.66045 6.81739 5.37106C6.63224 5.22658 6.31154 4.98431 6.20395 4.90305C5.9816 4.7393 5.93365 4.42596 6.0974 4.20361C6.26116 3.98126 6.57415 3.93377 6.7965 4.09752L6.79806 4.0987C6.91077 4.18382 7.24363 4.43523 7.43261 4.58271C7.8118 4.87863 8.31907 5.28559 8.82781 5.72729C9.33406 6.16684 9.85319 6.65062 10.2497 7.09936C10.4474 7.32316 10.6253 7.55002 10.7563 7.76747C10.8791 7.97118 11 8.22911 11 8.50012C11 8.77113 10.8791 9.02905 10.7563 9.23277C10.6252 9.45021 10.4474 9.67707 10.2497 9.90087C9.85319 10.3496 9.33406 10.8334 8.82782 11.2729C8.31909 11.7146 7.81182 12.1216 7.43264 12.4175C7.24359 12.5651 6.91086 12.8164 6.79828 12.9014L6.79686 12.9025C6.57451 13.0662 6.26119 13.019 6.09743 12.7966C5.93368 12.5743 5.98119 12.2613 6.20352 12.0975Z" fill="#292D32"/>
</svg>
