<svg width="14" height="14" viewBox="0 0 14 14" fill="none" xmlns="http://www.w3.org/2000/svg">
<path d="M6.99984 11.9584H4.08317C2.33317 11.9584 1.1665 11.0834 1.1665 9.04175V4.95841C1.1665 2.91675 2.33317 2.04175 4.08317 2.04175H9.9165C11.6665 2.04175 12.8332 2.91675 12.8332 4.95841V6.70841" stroke="#787474" stroke-miterlimit="10" stroke-linecap="round" stroke-linejoin="round"/>
<path d="M9.91683 5.25L8.09099 6.70833C7.49016 7.18667 6.50433 7.18667 5.90349 6.70833L4.0835 5.25" stroke="#787474" stroke-miterlimit="10" stroke-linecap="round" stroke-linejoin="round"/>
<path d="M11.2058 8.61575L9.14078 10.6808C9.05912 10.7624 8.98327 10.9141 8.96577 11.0249L8.85494 11.8124C8.8141 12.0983 9.01244 12.2966 9.29828 12.2558L10.0858 12.1449C10.1966 12.1274 10.3541 12.0516 10.4299 11.9699L12.4949 9.90493C12.8508 9.5491 13.0199 9.13493 12.4949 8.60993C11.9758 8.09076 11.5616 8.25992 11.2058 8.61575Z" stroke="#787474" stroke-miterlimit="10" stroke-linecap="round" stroke-linejoin="round"/>
<path d="M10.9082 8.91333C11.0832 9.54333 11.5732 10.0333 12.2032 10.2083" stroke="#787474" stroke-miterlimit="10" stroke-linecap="round" stroke-linejoin="round"/>
</svg>
