<svg width="36" height="11" viewBox="0 0 36 11" fill="none" xmlns="http://www.w3.org/2000/svg">
<path fill-rule="evenodd" clip-rule="evenodd" d="M19.49 1.41506L16.98 1.79148V0.369448L19.49 0V1.41506ZM24.7101 2.20269C23.7301 2.20269 23.1001 2.52335 22.7501 2.74641L22.6201 2.31423H20.4201V10.4421L22.9201 10.0727L22.9301 8.09994C23.2901 8.28118 23.8201 8.53909 24.7001 8.53909C26.4901 8.53909 28.1201 7.53531 28.1201 5.32558C28.1101 3.30407 26.4601 2.20269 24.7101 2.20269ZM24.11 7.0056C23.52 7.0056 23.17 6.85921 22.93 6.67798L22.92 4.09184C23.18 3.88969 23.54 3.75027 24.11 3.75027C25.02 3.75027 25.65 4.46129 25.65 5.37445C25.65 6.30853 25.03 7.0056 24.11 7.0056ZM36.0001 5.39529C36.0001 3.61078 34.7601 2.20269 32.3901 2.20269C30.0101 2.20269 28.5701 3.61078 28.5701 5.38135C28.5701 7.47953 30.2701 8.53909 32.7101 8.53909C33.9001 8.53909 34.8001 8.35087 35.4801 8.08599V6.69184C34.8001 6.92885 34.0201 7.07523 33.0301 7.07523C32.0601 7.07523 31.2001 6.83823 31.0901 6.01568H35.9801C35.9801 5.97726 35.9837 5.88998 35.9878 5.78942L35.9878 5.78925V5.78918L35.9879 5.78902V5.78898V5.78889C35.9935 5.65238 36.0001 5.49153 36.0001 5.39529ZM31.0593 4.73323C31.0593 3.94554 31.7493 3.61792 32.3793 3.61792C32.9893 3.61792 33.6393 3.94554 33.6393 4.73323H31.0593ZM16.9794 2.32122H19.4894V8.4206H16.9794V2.32122ZM14.1302 2.32128L14.2902 2.83711C14.8802 2.08427 16.0502 2.23763 16.3702 2.32128V3.92455C16.0602 3.84787 15.0602 3.75028 14.4702 4.28702V8.42067H11.9702V2.32128H14.1302ZM9.28996 0.808594L6.84996 1.17107L6.83996 6.75463C6.83996 7.78629 7.94996 8.5461 9.42996 8.5461C10.25 8.5461 10.85 8.44154 11.18 8.31607V6.90101C10.86 6.99163 9.27995 7.31228 9.27995 6.28062V3.80601H11.18V2.32124H9.27995L9.28996 0.808594ZM3.37999 3.71534C2.84999 3.71534 2.52999 3.8199 2.52999 4.09176C2.52999 4.38859 3.08072 4.51916 3.76395 4.68115C4.87778 4.94523 6.34379 5.29281 6.34998 6.58032C6.34998 7.82808 4.91999 8.54606 2.83999 8.54606C1.97999 8.54606 1.04 8.42756 0.11 8.14873V6.4897C0.949998 6.81035 2.00999 7.04736 2.83999 7.04736C3.39999 7.04736 3.79999 6.94279 3.79999 6.62214C3.79999 6.29335 3.203 6.14306 2.48226 5.96163C1.38463 5.68532 0 5.33676 0 4.17541C0 2.94159 1.35 2.20269 3.37999 2.20269C4.20999 2.20269 5.02999 2.29331 5.85999 2.52335V4.16147C5.09999 3.87567 4.13999 3.71534 3.37999 3.71534Z" fill="#6461FC"/>
</svg>
