<svg width="20" height="20" viewBox="0 0 20 20" fill="none" xmlns="http://www.w3.org/2000/svg">
<path d="M15.8836 15.5583L14.1002 12L12.3169 15.5583" stroke="white" stroke-width="1.5" stroke-linecap="round" stroke-linejoin="round"/>
<path d="M12.6416 14.9248H15.5749" stroke="white" stroke-width="1.5" stroke-linecap="round" stroke-linejoin="round"/>
<path d="M14.1 18.3329C11.7667 18.3329 9.8667 16.4412 9.8667 14.0995C9.8667 11.7662 11.7584 9.86621 14.1 9.86621C16.4334 9.86621 18.3334 11.7578 18.3334 14.0995C18.3334 16.4412 16.4417 18.3329 14.1 18.3329Z" stroke="white" stroke-width="1.5" stroke-linecap="round" stroke-linejoin="round"/>
<path d="M4.18317 1.66699H7.44984C9.17484 1.66699 10.0082 2.50034 9.96651 4.18368V7.45033C10.0082 9.17533 9.17484 10.0087 7.44984 9.96701H4.18317C2.49984 10.0003 1.6665 9.16699 1.6665 7.44199V4.17533C1.6665 2.50033 2.49984 1.66699 4.18317 1.66699Z" stroke="white" stroke-width="1.5" stroke-linecap="round" stroke-linejoin="round"/>
<path d="M7.50833 4.875H4.125" stroke="white" stroke-width="1.5" stroke-linecap="round" stroke-linejoin="round"/>
<path d="M5.80859 4.30859V4.87525" stroke="white" stroke-width="1.5" stroke-linecap="round" stroke-linejoin="round"/>
<path d="M6.65837 4.86719C6.65837 6.32552 5.5167 7.50884 4.1167 7.50884" stroke="white" stroke-width="1.5" stroke-linecap="round" stroke-linejoin="round"/>
<path d="M7.50846 7.50867C6.90012 7.50867 6.35013 7.18366 5.9668 6.66699" stroke="white" stroke-width="1.5" stroke-linecap="round" stroke-linejoin="round"/>
<path d="M1.6665 12.5C1.6665 15.725 4.27484 18.3333 7.49984 18.3333L6.62483 16.875" stroke="white" stroke-width="1.5" stroke-linecap="round" stroke-linejoin="round"/>
<path d="M18.3333 7.50033C18.3333 4.27533 15.725 1.66699 12.5 1.66699L13.375 3.12533" stroke="white" stroke-width="1.5" stroke-linecap="round" stroke-linejoin="round"/>
</svg>
