<svg width="14" height="15" viewBox="0 0 14 15" fill="none" xmlns="http://www.w3.org/2000/svg">
<path d="M12.7925 4.44342L10.8267 12.3359C10.6867 12.9251 10.1617 13.3334 9.555 13.3334H1.88999C1.00916 13.3334 0.37917 12.47 0.64167 11.6242L3.0975 3.73761C3.26666 3.18928 3.77417 2.81006 4.34584 2.81006H11.5208C12.075 2.81006 12.5358 3.14839 12.7283 3.61506C12.8392 3.86589 12.8625 4.15175 12.7925 4.44342Z" stroke="#292D32" stroke-miterlimit="10"/>
<path d="M9.3335 13.3333H12.1218C12.8743 13.3333 13.4635 12.6975 13.411 11.945L12.8335 4" stroke="#292D32" stroke-miterlimit="10" stroke-linecap="round" stroke-linejoin="round"/>
<path d="M5.64648 4.22163L6.25316 1.70166" stroke="#292D32" stroke-miterlimit="10" stroke-linecap="round" stroke-linejoin="round"/>
<path d="M9.55518 4.22745L10.1035 1.6958" stroke="#292D32" stroke-miterlimit="10" stroke-linecap="round" stroke-linejoin="round"/>
<path d="M4.4917 7.5H9.15837" stroke="#292D32" stroke-miterlimit="10" stroke-linecap="round" stroke-linejoin="round"/>
<path d="M3.9082 9.8335H8.57487" stroke="#292D32" stroke-miterlimit="10" stroke-linecap="round" stroke-linejoin="round"/>
</svg>
