<svg width="20" height="21" viewBox="0 0 20 21" fill="none" xmlns="http://www.w3.org/2000/svg">
<path fill-rule="evenodd" clip-rule="evenodd" d="M11.6665 3.58012C12.4817 3.58012 12.7667 3.58549 12.9851 3.64401C13.6322 3.81738 14.1376 4.32279 14.3109 4.96983C14.3512 5.12011 14.3663 5.30192 14.3718 5.6663C14.0614 5.66344 13.7307 5.66345 13.3789 5.66345L8.33317 5.66345C7.98799 5.66345 7.70817 5.94327 7.70817 6.28845C7.70817 6.63363 7.98799 6.91345 8.33317 6.91345H13.3332C14.5294 6.91345 15.3636 6.91478 15.9931 6.99941C16.6045 7.08162 16.9284 7.23199 17.159 7.46263C17.3896 7.69326 17.54 8.01707 17.6222 8.62855C17.7068 9.25801 17.7082 10.0923 17.7082 11.2885V12.9551C17.7082 14.1513 17.7068 14.9856 17.6222 15.615C17.54 16.2265 17.3896 16.5503 17.159 16.7809C16.9284 17.0116 16.6045 17.162 15.9931 17.2442C15.3636 17.3288 14.5294 17.3301 13.3332 17.3301H8.33317C6.74415 17.3301 5.61527 17.3288 4.75888 17.2137C3.92047 17.1009 3.43743 16.8895 3.08476 16.5369C2.73208 16.1842 2.52069 15.7012 2.40797 14.8627C2.29283 14.0064 2.2915 12.8775 2.2915 11.2885V9.62179C2.2915 8.03277 2.29283 6.90388 2.40797 6.04749C2.52069 5.20909 2.73208 4.72605 3.08476 4.37337C3.43743 4.0207 3.92047 3.80931 4.75888 3.69658C5.61527 3.58145 6.74415 3.58012 8.33317 3.58012H11.6665ZM15.5184 4.64631C15.5978 4.94281 15.6181 5.2759 15.6232 5.70731C15.8128 5.72062 15.9915 5.73796 16.1596 5.76056C16.9097 5.8614 17.5413 6.07715 18.0429 6.57874C18.5445 7.08034 18.7602 7.7119 18.8611 8.46199C18.9582 9.18447 18.9582 10.1031 18.9582 11.2427V13.0008C18.9582 14.1405 18.9582 15.0591 18.8611 15.7816C18.7602 16.5317 18.5445 17.1632 18.0429 17.6648C17.5413 18.1664 16.9097 18.3822 16.1596 18.483C15.4372 18.5802 14.5186 18.5801 13.3789 18.5801H8.28616H8.28612C6.75467 18.5801 5.54166 18.5801 4.59232 18.4525C3.6153 18.3212 2.82451 18.0444 2.20087 17.4208C1.57724 16.7971 1.30047 16.0063 1.16912 15.0293C1.04148 14.08 1.04149 12.8669 1.0415 11.3355V11.3355V9.57477V9.57476C1.04149 8.0433 1.04148 6.83028 1.16912 5.88093C1.30047 4.90392 1.57724 4.11312 2.20087 3.48949C2.82451 2.86585 3.6153 2.58909 4.59232 2.45773C5.54166 2.3301 6.75469 2.33011 8.28616 2.33012L11.6665 2.33012L11.763 2.3301C12.4446 2.32987 12.9098 2.32972 13.3086 2.4366C14.3871 2.72556 15.2294 3.5679 15.5184 4.64631ZM15.2082 12.1217C15.2082 11.7766 14.9283 11.4967 14.5832 11.4967C14.238 11.4967 13.9582 11.7766 13.9582 12.1217C13.9582 12.4669 14.238 12.7467 14.5832 12.7467C14.9283 12.7467 15.2082 12.4669 15.2082 12.1217ZM14.5832 10.2467C15.6187 10.2467 16.4582 11.0862 16.4582 12.1217C16.4582 13.1573 15.6187 13.9967 14.5832 13.9967C13.5476 13.9967 12.7082 13.1573 12.7082 12.1217C12.7082 11.0862 13.5476 10.2467 14.5832 10.2467Z" fill="white"/>
</svg>
