<svg width="20" height="21" viewBox="0 0 20 21" fill="none" xmlns="http://www.w3.org/2000/svg">
<path fill-rule="evenodd" clip-rule="evenodd" d="M9.72941 1.49658H9.43726H9.43724C8.81604 1.49656 8.29569 1.49655 7.87128 1.5468C7.4212 1.60009 7.01634 1.71549 6.65175 1.988C6.28906 2.25909 6.05931 2.61617 5.87133 3.03522C5.70261 3.41133 5.54741 3.88583 5.36478 4.45359C5.03196 4.47191 4.72497 4.49854 4.44237 4.53726C3.50794 4.66528 2.74765 4.93584 2.14858 5.54629C1.55113 6.1551 1.28778 6.92502 1.16289 7.87156C1.04148 8.79178 1.04149 9.96734 1.0415 11.4505V11.4505V11.5427V11.5427C1.04149 13.0258 1.04148 14.2014 1.16289 15.1216C1.28778 16.0681 1.55113 16.8381 2.14858 17.4469C2.74765 18.0573 3.50794 18.3279 4.44237 18.4559C5.34771 18.5799 6.5033 18.5799 7.95673 18.5799H7.95678H9.1719C9.51707 18.5799 9.7969 18.3001 9.7969 17.9549C9.7969 17.6097 9.51707 17.3299 9.1719 17.3299H8.00439C6.49254 17.3299 5.42271 17.3285 4.61203 17.2175C3.82056 17.109 3.36985 16.9067 3.04075 16.5714C2.71004 16.2344 2.50931 15.7703 2.40216 14.9581C2.29278 14.1292 2.2915 13.0362 2.2915 11.4966C2.2915 9.95699 2.29278 8.86401 2.40216 8.03506C2.50931 7.2229 2.71004 6.7588 3.04075 6.42181C3.36985 6.08646 3.82056 5.88412 4.61203 5.77569C5.42271 5.66463 6.49254 5.66325 8.00439 5.66325H11.1733C12.6852 5.66325 13.755 5.66463 14.5657 5.77569C15.3572 5.88412 15.8079 6.08646 16.137 6.42181C16.6553 6.94996 16.8364 7.76547 16.875 9.63447C16.8821 9.97958 17.1676 10.2536 17.5127 10.2465C17.8578 10.2393 18.1318 9.9538 18.1247 9.60869C18.0873 7.79585 17.9391 6.47353 17.0291 5.54629C16.4301 4.93584 15.6698 4.66528 14.7354 4.53726C14.4496 4.49811 14.1389 4.47131 13.8017 4.45298C13.6192 3.88548 13.464 3.41119 13.2953 3.03522C13.1074 2.61617 12.8776 2.25909 12.5149 1.988C12.1503 1.71549 11.7455 1.60009 11.2954 1.5468C10.871 1.49655 10.3506 1.49656 9.72944 1.49658H9.72941ZM12.4756 4.41682C12.3551 4.05144 12.2559 3.77208 12.1548 3.54684C12.0138 3.23244 11.8949 3.08516 11.7666 2.98922C11.6401 2.89471 11.4733 2.8266 11.1484 2.78813C10.8061 2.7476 10.3601 2.74658 9.69299 2.74658H9.47369C8.80653 2.74658 8.36057 2.7476 8.01825 2.78813C7.69333 2.8266 7.52657 2.89471 7.40011 2.98922C7.27176 3.08516 7.15287 3.23244 7.01183 3.54684C6.91078 3.7721 6.81157 4.0515 6.69104 4.41692C7.08535 4.41324 7.5068 4.41325 7.9568 4.41325H11.2209C11.6667 4.41325 12.0845 4.41324 12.4756 4.41682ZM10.2082 15.0382C10.2082 12.622 12.1669 10.6632 14.5832 10.6632C16.9994 10.6632 18.9582 12.622 18.9582 15.0382C18.9582 17.4545 16.9994 19.4132 14.5832 19.4132C12.1669 19.4132 10.2082 17.4545 10.2082 15.0382ZM14.5832 11.9132C12.8573 11.9132 11.4582 13.3124 11.4582 15.0382C11.4582 16.7641 12.8573 18.1632 14.5832 18.1632C16.3091 18.1632 17.7082 16.7641 17.7082 15.0382C17.7082 13.3124 16.3091 11.9132 14.5832 11.9132ZM14.5832 12.9132C14.9283 12.9132 15.2082 13.1931 15.2082 13.5382V15.0788L16.0549 15.6432C16.3421 15.8347 16.4197 16.2227 16.2282 16.5099C16.0367 16.7971 15.6487 16.8748 15.3615 16.6833L14.2365 15.9333C14.0626 15.8174 13.9582 15.6222 13.9582 15.4132V13.5382C13.9582 13.1931 14.238 12.9132 14.5832 12.9132Z" fill="white"/>
</svg>
