<svg width="817" height="200" viewBox="0 0 817 200" fill="none" xmlns="http://www.w3.org/2000/svg">
<g clip-path="url(#clip0_743_12750)">
<rect width="817" height="200" rx="20" fill="#222222"/>
<line x1="795.184" y1="3.67538e-08" x2="795.184" y2="203" stroke="white" stroke-opacity="0.05" stroke-width="1.17281"/>
<line x1="735.214" y1="3.67538e-08" x2="735.214" y2="203" stroke="white" stroke-opacity="0.05" stroke-width="1.17281"/>
<line x1="675.245" y1="3.67538e-08" x2="675.245" y2="203" stroke="white" stroke-opacity="0.05" stroke-width="1.17281"/>
<line x1="615.275" y1="3.67538e-08" x2="615.275" y2="203" stroke="white" stroke-opacity="0.05" stroke-width="1.17281"/>
<line x1="555.305" y1="3.67538e-08" x2="555.305" y2="203" stroke="white" stroke-opacity="0.05" stroke-width="1.17281"/>
<line x1="495.336" y1="3.67538e-08" x2="495.336" y2="203" stroke="white" stroke-opacity="0.05" stroke-width="1.17281"/>
<line x1="435.367" y1="3.67538e-08" x2="435.367" y2="203" stroke="white" stroke-opacity="0.05" stroke-width="1.17281"/>
<line x1="375.396" y1="3.67538e-08" x2="375.396" y2="203" stroke="white" stroke-opacity="0.05" stroke-width="1.17281"/>
<line x1="315.427" y1="3.67538e-08" x2="315.427" y2="203" stroke="white" stroke-opacity="0.05" stroke-width="1.17281"/>
<line x1="255.458" y1="3.67538e-08" x2="255.457" y2="203" stroke="white" stroke-opacity="0.05" stroke-width="1.17281"/>
<line x1="195.488" y1="3.67538e-08" x2="195.488" y2="203" stroke="white" stroke-opacity="0.05" stroke-width="1.17281"/>
<line x1="135.519" y1="3.67538e-08" x2="135.519" y2="203" stroke="white" stroke-opacity="0.05" stroke-width="1.17281"/>
<line x1="75.5483" y1="3.67538e-08" x2="75.5483" y2="203" stroke="white" stroke-opacity="0.05" stroke-width="1.17281"/>
<line x1="15.5791" y1="2.56327e-08" x2="15.5791" y2="203" stroke="white" stroke-opacity="0.05" stroke-width="1.17281"/>
<line x1="7.4762e-08" y1="148.556" x2="870" y2="148.556" stroke="white" stroke-opacity="0.05" stroke-width="1.17281"/>
<line x1="7.4762e-08" y1="98.8423" x2="870" y2="98.8424" stroke="white" stroke-opacity="0.05" stroke-width="1.17281"/>
<line x1="7.4762e-08" y1="49.1275" x2="870" y2="49.1275" stroke="white" stroke-opacity="0.05" stroke-width="1.17281"/>
</g>
<defs>
<clipPath id="clip0_743_12750">
<rect width="817" height="200" rx="20" fill="white"/>
</clipPath>
</defs>
</svg>
