<svg width="344" height="154" viewBox="0 0 344 154" fill="none" xmlns="http://www.w3.org/2000/svg">
<path d="M136.811 18.3945C150.93 18.3945 161.811 28.0853 161.811 39.3945C161.811 50.7038 150.93 60.3945 136.811 60.3945C122.691 60.3945 111.811 50.7038 111.811 39.3945C111.811 28.0853 122.691 18.3945 136.811 18.3945Z" stroke="#9EC421" stroke-width="4"/>
<mask id="path-2-inside-1_743_12780" fill="white">
<path fill-rule="evenodd" clip-rule="evenodd" d="M26.6975 22.7814C41.4422 10.1997 65.348 10.1997 80.0927 22.7814C83.2385 25.4657 85.7132 28.506 87.5167 31.7502C93.356 42.2543 96.4813 54.53 106.115 62.7508C115.75 70.9718 130.136 73.6386 142.446 78.6213C146.248 80.1602 149.811 82.2719 152.957 84.9563C167.702 97.5379 167.702 117.937 152.957 130.518C138.212 143.1 114.307 143.1 99.5619 130.518C96.555 127.953 94.1613 125.062 92.3808 121.978C86.2925 111.435 83.0865 99.0249 73.3463 90.7136C63.6059 82.4021 49.0624 79.6665 36.706 74.4713C33.0924 72.952 29.7045 70.9094 26.6975 68.3436C11.9528 55.7619 11.9528 35.363 26.6975 22.7814Z"/>
</mask>
<path d="M83.1355 20.1849C66.7103 6.16931 40.0799 6.16931 23.6547 20.1849L29.7403 25.3778C42.8045 14.2301 63.9857 14.2301 77.0499 25.3778L83.1355 20.1849ZM91.4046 30.1765C89.3931 26.5579 86.6344 23.1706 83.1355 20.1849L77.0499 25.3778C79.8427 27.7609 82.0334 30.454 83.6288 33.3239L91.4046 30.1765ZM156 82.3599C152.501 79.3742 148.531 77.0202 144.291 75.3037L140.602 81.9389C143.965 83.3002 147.122 85.1696 149.914 87.5527L156 82.3599ZM156 133.115C172.425 119.099 172.425 96.3755 156 82.3599L149.914 87.5527C162.978 98.7004 162.978 116.774 149.914 127.922L156 133.115ZM96.5191 133.115C112.944 147.131 139.575 147.131 156 133.115L149.914 127.922C136.85 139.07 115.669 139.07 102.605 127.922L96.5191 133.115ZM88.5208 123.601C90.5067 127.04 93.1749 130.261 96.5191 133.115L102.605 127.922C99.9352 125.644 97.8159 123.083 96.2408 120.355L88.5208 123.601ZM23.6547 70.94C26.999 73.7937 30.7736 76.0705 34.804 77.7651L38.6079 71.1775C35.4113 69.8335 32.4099 68.0251 29.7403 65.7471L23.6547 70.94ZM23.6547 20.1849C7.22956 34.2006 7.22957 56.9244 23.6547 70.94L29.7403 65.7471C16.6761 54.5994 16.6761 36.5255 29.7403 25.3778L23.6547 20.1849ZM76.3891 88.1172C70.9434 83.4703 64.2797 80.4876 57.7221 78.0561C50.8275 75.4998 44.7434 73.7572 38.6079 71.1775L34.804 77.7651C41.0249 80.3806 48.3908 82.6034 54.2922 84.7915C60.5305 87.1046 66.0089 89.6454 70.3035 93.31L76.3891 88.1172ZM103.073 65.3473C108.47 69.9525 115.072 72.8959 121.583 75.2757C124.834 76.464 128.184 77.5529 131.362 78.6147C134.582 79.6903 137.67 80.752 140.602 81.9389L144.291 75.3037C141.068 73.9993 137.741 72.8591 134.5 71.7763C131.218 70.6798 128.06 69.6539 124.972 68.5251C118.803 66.2706 113.396 63.7702 109.158 60.1544L103.073 65.3473ZM96.2408 120.355C93.2177 115.12 91.1755 109.929 88.1797 104.046C85.3302 98.4499 81.8347 92.7639 76.3891 88.1172L70.3035 93.31C74.5981 96.9746 77.5757 101.649 80.2863 106.972C82.8506 112.008 85.4556 118.293 88.5208 123.601L96.2408 120.355ZM83.6288 33.3239C85.0197 35.826 86.264 38.4608 87.5244 41.208C88.7688 43.9203 90.0448 46.7782 91.4375 49.5525C94.2264 55.1083 97.6758 60.7422 103.073 65.3473L109.158 60.1544C104.921 56.5387 101.991 51.9244 99.3486 46.661C98.0257 44.0257 96.8234 41.3314 95.5384 38.5308C94.2695 35.7651 92.9334 32.9264 91.4046 30.1765L83.6288 33.3239Z" fill="#9EC421" mask="url(#path-2-inside-1_743_12780)"/>
<mask id="path-4-inside-2_743_12780" fill="white">
<path fill-rule="evenodd" clip-rule="evenodd" d="M190.212 22.7814C204.956 10.1997 228.862 10.1997 243.607 22.7814C246.753 25.4657 249.227 28.5059 251.031 31.7501C256.87 42.2543 259.996 54.5301 269.63 62.7509C279.264 70.9719 293.65 73.6387 305.96 78.6215C309.762 80.1604 313.325 82.272 316.471 84.9564C331.216 97.538 331.216 117.937 316.471 130.519C301.726 143.1 277.821 143.1 263.076 130.519C260.069 127.953 257.675 125.062 255.895 121.978C249.807 111.435 246.601 99.0248 236.86 90.7135C227.12 82.4021 212.577 79.6665 200.22 74.4714C196.607 72.9521 193.219 70.9095 190.212 68.3436C175.467 55.7619 175.467 35.363 190.212 22.7814Z"/>
</mask>
<path d="M305.96 78.6215L304.116 81.939L305.96 78.6215ZM246.65 20.185C230.225 6.16934 203.594 6.16934 187.169 20.185L193.254 25.3778C206.319 14.2301 227.5 14.2301 240.564 25.3778L246.65 20.185ZM254.919 30.1764C252.907 26.5579 250.149 23.1706 246.65 20.185L240.564 25.3778C243.357 27.7609 245.548 30.4539 247.143 33.3238L254.919 30.1764ZM319.514 82.36C316.015 79.3743 312.045 77.0204 307.805 75.3039L304.116 81.939C307.48 83.3004 310.636 85.1697 313.428 87.5528L319.514 82.36ZM319.514 133.115C335.939 119.099 335.939 96.3756 319.514 82.36L313.428 87.5528C326.493 98.7005 326.493 116.774 313.428 127.922L319.514 133.115ZM260.033 133.115C276.458 147.131 303.089 147.131 319.514 133.115L313.428 127.922C300.364 139.07 279.183 139.07 266.119 127.922L260.033 133.115ZM252.035 123.601C254.021 127.04 256.689 130.261 260.033 133.115L266.119 127.922C263.449 125.644 261.33 123.083 259.755 120.355L252.035 123.601ZM187.169 70.94C190.513 73.7937 194.288 76.0706 198.318 77.7652L202.122 71.1776C198.926 69.8336 195.924 68.0252 193.255 65.7472L187.169 70.94ZM187.169 20.185C170.744 34.2006 170.744 56.9244 187.169 70.94L193.255 65.7472C180.19 54.5995 180.19 36.5255 193.254 25.3778L187.169 20.185ZM239.903 88.1171C234.457 83.4703 227.794 80.4876 221.236 78.0561C214.342 75.4998 208.258 73.7572 202.122 71.1776L198.318 77.7652C204.539 80.3806 211.905 82.6035 217.806 84.7915C224.045 87.1046 229.523 89.6454 233.818 93.3099L239.903 88.1171ZM266.587 65.3474C271.984 69.9526 278.586 72.896 285.097 75.2758C288.349 76.4642 291.698 77.553 294.877 78.6149C298.096 79.6904 301.184 80.7521 304.116 81.939L307.805 75.3039C304.582 73.9994 301.255 72.8593 298.014 71.7765C294.732 70.68 291.574 69.654 288.486 68.5252C282.318 66.2707 276.91 63.7703 272.673 60.1545L266.587 65.3474ZM259.755 120.355C256.732 115.12 254.69 109.928 251.694 104.045C248.844 98.4499 245.349 92.7639 239.903 88.1171L233.818 93.3099C238.112 96.9745 241.09 101.649 243.8 106.972C246.365 112.008 248.97 118.293 252.035 123.601L259.755 120.355ZM247.143 33.3238C248.534 35.8259 249.778 38.4608 251.039 41.208C252.283 43.9203 253.559 46.7782 254.952 49.5526C257.741 55.1083 261.19 60.7422 266.587 65.3474L272.673 60.1545C268.435 56.5388 265.505 51.9244 262.863 46.661C261.54 44.0257 260.338 41.3314 259.053 38.5307C257.784 35.765 256.448 32.9264 254.919 30.1764L247.143 33.3238Z" fill="#9EC421" mask="url(#path-4-inside-2_743_12780)"/>
<path d="M206.311 93.3945C220.161 93.3945 230.811 102.867 230.811 113.895C230.811 124.922 220.161 134.395 206.311 134.395C192.46 134.395 181.811 124.922 181.811 113.895C181.811 102.867 192.46 93.3945 206.311 93.3945Z" stroke="#9EC421" stroke-width="4"/>
</svg>
