<svg width="10" height="18" viewBox="0 0 10 18" fill="none" xmlns="http://www.w3.org/2000/svg">
<path d="M0.407043 16.195C0.622209 16.0325 1.26453 15.5473 1.63481 15.2583C2.37643 14.6796 3.36188 13.8888 4.34441 13.0357C5.3319 12.1783 6.29362 11.2776 7.00061 10.4775C7.35512 10.0763 7.6245 9.72381 7.79983 9.43297C7.96473 9.15944 7.99902 8.99786 7.99902 8.99786C7.99902 8.99786 7.96472 8.84102 7.79983 8.5675C7.6245 8.27666 7.35513 7.92422 7.00062 7.523C6.29363 6.72285 5.33189 5.82217 4.34439 4.96478C3.36186 4.11171 2.3764 3.32089 1.63477 2.74213C1.26449 2.45316 0.623068 1.96862 0.407901 1.80611C-0.0367966 1.4786 -0.132711 0.851923 0.194799 0.407227C0.522309 -0.0374718 1.14831 -0.132469 1.593 0.195042L1.59612 0.197392C1.82153 0.367641 2.48726 0.870466 2.86522 1.16543C3.6236 1.75726 4.63814 2.57117 5.65561 3.45458C6.66811 4.33367 7.70638 5.30123 8.49939 6.19872C8.89488 6.64632 9.2505 7.10005 9.51267 7.53493C9.75829 7.94237 10 8.45823 10 9.00024C9.99999 9.54225 9.75828 10.0581 9.51266 10.4655C9.25049 10.9004 8.89487 11.3541 8.49938 11.8017C7.70638 12.6992 6.66812 13.6668 5.65563 14.5459C4.63817 15.4293 3.62365 16.2432 2.86528 16.835C2.48717 17.1301 1.82171 17.6327 1.59656 17.8028L1.59371 17.805C1.14901 18.1325 0.522379 18.0379 0.194866 17.5933C-0.132636 17.1486 -0.0376148 16.5226 0.407043 16.195Z" fill="#222222"/>
</svg>
