<svg width="10" height="18" viewBox="0 0 10 18" fill="none" xmlns="http://www.w3.org/2000/svg">
<path d="M9.59295 1.80496C9.37779 1.96747 8.73546 2.45268 8.36518 2.74165C7.62357 3.32042 6.63811 4.11123 5.65559 4.9643C4.6681 5.82169 3.70637 6.72237 2.99938 7.52252C2.64488 7.92374 2.3755 8.27619 2.20017 8.56703C2.03527 8.84056 2.00098 9.00214 2.00098 9.00214C2.00098 9.00214 2.03527 9.15898 2.20016 9.4325C2.37549 9.72334 2.64487 10.0758 2.99937 10.477C3.70637 11.2772 4.6681 12.1778 5.6556 13.0352C6.63814 13.8883 7.6236 14.6791 8.36523 15.2579C8.73551 15.5468 9.37693 16.0314 9.5921 16.1939C10.0368 16.5214 10.1327 17.1481 9.8052 17.5928C9.47769 18.0375 8.85169 18.1325 8.40699 17.805L8.40388 17.8026C8.17847 17.6324 7.51273 17.1295 7.13477 16.8346C6.37639 16.2427 5.36185 15.4288 4.34439 14.5454C3.33188 13.6663 2.29362 12.6988 1.50061 11.8013C1.10512 11.3537 0.749496 10.9 0.487328 10.4651C0.241707 10.0576 -4.60936e-06 9.54177 0 8.99976C4.60949e-06 8.45775 0.241715 7.94189 0.487336 7.53446C0.749504 7.09957 1.10512 6.64585 1.50061 6.19825C2.29361 5.30076 3.33187 4.3332 4.34436 3.45411C5.36182 2.5707 6.37635 1.7568 7.13472 1.16496C7.51282 0.869884 8.17828 0.367254 8.40344 0.197194L8.40629 0.19504C8.85098 -0.132473 9.47762 -0.0379459 9.80513 0.406749C10.1326 0.85143 10.0376 1.47743 9.59295 1.80496Z" fill="#222222"/>
</svg>
