<svg width="18" height="18" viewBox="0 0 18 18" fill="none" xmlns="http://www.w3.org/2000/svg">
<path d="M8.22455 1.0957H8.2647C8.56926 1.0957 8.81617 1.34261 8.81617 1.64717C8.81617 1.95174 8.56926 2.19864 8.2647 2.19864C6.86318 2.19864 5.86552 2.19973 5.10827 2.29782C4.36484 2.39412 3.93692 2.57513 3.62642 2.87427C3.31881 3.17064 3.13482 3.57475 3.0362 4.28141C2.93508 5.0061 2.93382 5.96251 2.93382 7.31448V13.3978C2.93382 14.2649 2.9354 14.8495 2.99844 15.2593C3.06032 15.6616 3.15756 15.7297 3.21038 15.758C3.30092 15.8063 3.46599 15.8315 3.76447 15.7409C4.05804 15.6518 4.40096 15.4739 4.77357 15.2384C5.14234 15.0053 5.51152 14.7347 5.86134 14.4762L5.92794 14.427C6.24339 14.1936 6.55589 13.9625 6.81111 13.8089L6.83277 13.7958C7.09853 13.6358 7.33234 13.495 7.5397 13.3972C7.76426 13.2915 7.99712 13.2163 8.2647 13.2163C8.53227 13.2163 8.76514 13.2915 8.9897 13.3972C9.19705 13.495 9.43087 13.6358 9.69661 13.7958L9.7183 13.8089C9.97335 13.9624 10.2856 14.1934 10.6009 14.4265L10.6681 14.4762C11.0179 14.7347 11.3871 15.0053 11.7558 15.2384C12.1284 15.4739 12.4714 15.6518 12.7649 15.7409C13.0634 15.8315 13.2285 15.8063 13.319 15.758C13.3718 15.7297 13.4691 15.6616 13.5309 15.2593C13.594 14.8495 13.5956 14.2649 13.5956 13.3978V9.73541C13.5956 9.43085 13.8425 9.18394 14.1471 9.18394C14.4516 9.18394 14.6985 9.43085 14.6985 9.73541V13.4478C14.6985 14.2539 14.6985 14.9236 14.6211 15.427C14.5409 15.9483 14.354 16.4556 13.8385 16.7309C13.3789 16.9764 12.8732 16.9264 12.4446 16.7963C12.0109 16.6647 11.5702 16.4258 11.1667 16.1708C10.7593 15.9134 10.3598 15.6199 10.0125 15.3632L9.97168 15.333C9.63139 15.0814 9.35801 14.8794 9.14933 14.7537C8.85558 14.5768 8.67007 14.4659 8.5197 14.395C8.38087 14.3297 8.31345 14.3192 8.2647 14.3192C8.21595 14.3192 8.14852 14.3297 8.00977 14.395C7.8594 14.4659 7.67389 14.5768 7.38006 14.7537C7.17154 14.8793 6.89848 15.0811 6.55856 15.3324L6.5169 15.3632C6.16959 15.6199 5.77013 15.9134 5.36275 16.1708C4.95921 16.4258 4.51848 16.6647 4.08487 16.7963C3.65617 16.9264 3.15055 16.9764 2.69086 16.7309C2.17541 16.4556 1.98851 15.9483 1.90832 15.427C1.83082 14.9231 1.83084 14.2525 1.83087 13.4456V7.27175C1.83087 5.97238 1.83086 4.93865 1.94385 4.12898C2.0606 3.29234 2.30734 2.61358 2.86118 2.07999C3.41213 1.54917 4.10817 1.31521 4.96659 1.20402C5.80292 1.09569 6.87215 1.0957 8.22455 1.0957Z" fill="#161616"/>
<path d="M12.6765 1.0957C12.981 1.0957 13.2279 1.34261 13.2279 1.64717V4.03688H15.6176C15.9222 4.03688 16.1691 4.28378 16.1691 4.58835C16.1691 4.89292 15.9222 5.13982 15.6176 5.13982H13.2279V7.52953C13.2279 7.83409 12.981 8.081 12.6765 8.081C12.3719 8.081 12.125 7.83409 12.125 7.52953V5.13982H9.73528C9.43073 5.13982 9.18381 4.89292 9.18381 4.58835C9.18381 4.28378 9.43073 4.03688 9.73528 4.03688H12.125V1.64717C12.125 1.34261 12.3719 1.0957 12.6765 1.0957Z" fill="#161616"/>
</svg>
