<svg width="16" height="16" viewBox="0 0 16 16" fill="none" xmlns="http://www.w3.org/2000/svg">
<path fill-rule="evenodd" clip-rule="evenodd" d="M3.70579 6.80523C2.98411 6.80523 2.8335 6.94272 2.8335 7.60153V8.79597C2.8335 9.45477 2.98411 9.59227 3.70579 9.59227H5.45038V14.37C5.45038 15.0288 5.601 15.1663 6.32267 15.1663H8.06726C8.78894 15.1663 8.93956 15.0288 8.93956 14.37V9.59227H10.8985C11.4458 9.59227 11.5868 9.49515 11.7372 9.01473L12.111 7.82029C12.3686 6.99731 12.2099 6.80523 11.2723 6.80523H8.93956V4.81449C8.93956 4.37471 9.3301 4.01819 9.81185 4.01819H12.2945C13.0162 4.01819 13.1668 3.8807 13.1668 3.2219V1.6293C13.1668 0.970501 13.0162 0.833008 12.2945 0.833008H9.81185C7.40308 0.833008 5.45038 2.61558 5.45038 4.81449V6.80523H3.70579Z" fill="#222222"/>
</svg>
