<svg width="36" height="36" viewBox="0 0 36 36" fill="none" xmlns="http://www.w3.org/2000/svg">
<g clip-path="url(#clip0_180_710)">
<path d="M35.282 18.4555C35.282 17.0322 35.1638 15.9936 34.908 14.9165H18.2762V21.3405H28.0387C27.842 22.937 26.7791 25.3412 24.4172 26.9567L24.384 27.1718L29.6427 31.1527L30.007 31.1883C33.353 28.1685 35.282 23.7255 35.282 18.4555Z" fill="#222222"/>
<path d="M18.2762 35.3812C23.059 35.3812 27.0742 33.8424 30.007 31.1882L24.4171 26.9567C22.9213 27.9761 20.9136 28.6877 18.2762 28.6877C13.5918 28.6877 9.61596 25.6681 8.19868 21.4944L7.99094 21.5116L2.52292 25.6469L2.45142 25.8411C5.3644 31.4958 11.3479 35.3812 18.2762 35.3812Z" fill="#222222"/>
<path d="M8.19876 21.4944C7.8248 20.4173 7.60837 19.2632 7.60837 18.0708C7.60837 16.8782 7.8248 15.7242 8.17908 14.6472L8.16918 14.4178L2.63263 10.2161L2.45149 10.3003C1.25091 12.6468 0.562012 15.2819 0.562012 18.0708C0.562012 20.8597 1.25091 23.4946 2.45149 25.8412L8.19876 21.4944Z" fill="#222222"/>
<path d="M18.2762 7.45381C21.6025 7.45381 23.8463 8.85787 25.1257 10.0312L30.125 5.2612C27.0546 2.47231 23.059 0.760498 18.2762 0.760498C11.3479 0.760498 5.3644 4.64569 2.45142 10.3004L8.17901 14.6473C9.61596 10.4735 13.5918 7.45381 18.2762 7.45381Z" fill="#222222"/>
</g>
<defs>
<clipPath id="clip0_180_710">
<rect width="34.72" height="34.72" fill="white" transform="translate(0.562012 0.710693)"/>
</clipPath>
</defs>
</svg>
