<svg width="14" height="14" viewBox="0 0 14 14" fill="none" xmlns="http://www.w3.org/2000/svg">
<path d="M4.16667 5.66699C4.16667 5.39085 3.94281 5.16699 3.66667 5.16699C3.39053 5.16699 3.16667 5.39085 3.16667 5.66699V10.3337C3.16667 10.6098 3.39053 10.8337 3.66667 10.8337C3.94281 10.8337 4.16667 10.6098 4.16667 10.3337V5.66699Z" fill="#D0D0C8"/>
<path d="M6.33334 5.16699C6.60942 5.16699 6.83324 5.39075 6.83334 5.66681C7.25117 5.35296 7.77054 5.16699 8.33334 5.16699C9.71405 5.16699 10.8333 6.28628 10.8333 7.66699V10.3337C10.8333 10.6098 10.6095 10.8337 10.3333 10.8337C10.0572 10.8337 9.83334 10.6098 9.83334 10.3337V7.66699C9.83334 6.83856 9.16177 6.16699 8.33334 6.16699C7.50491 6.16699 6.83334 6.83856 6.83334 7.66699V10.3337C6.83334 10.6098 6.60948 10.8337 6.33334 10.8337C6.0572 10.8337 5.83334 10.6098 5.83334 10.3337V5.66699C5.83334 5.39085 6.0572 5.16699 6.33334 5.16699Z" fill="#D0D0C8"/>
<path d="M4.33871 3.66699C4.33871 4.03518 4.04023 4.33366 3.67204 4.33366H3.66606C3.29787 4.33366 2.99939 4.03518 2.99939 3.66699C2.99939 3.2988 3.29787 3.00033 3.66606 3.00033H3.67204C4.04023 3.00033 4.33871 3.2988 4.33871 3.66699Z" fill="#D0D0C8"/>
<path fill-rule="evenodd" clip-rule="evenodd" d="M7.03814 0.166992H6.96189C5.50143 0.166983 4.35429 0.166977 3.45869 0.287388C2.54092 0.410779 1.81275 0.668802 1.24061 1.24093C0.668482 1.81307 0.410459 2.54124 0.287068 3.45901C0.166656 4.35462 0.166663 5.50174 0.166672 6.96221V7.03844C0.166663 8.49891 0.166656 9.64603 0.287068 10.5416C0.410459 11.4594 0.668482 12.1876 1.24061 12.7597C1.81275 13.3318 2.54092 13.5899 3.45869 13.7133C4.3543 13.8337 5.50141 13.8337 6.96187 13.8337H7.03812C8.49858 13.8337 9.64572 13.8337 10.5413 13.7133C11.4591 13.5899 12.1873 13.3318 12.7594 12.7597C13.3315 12.1876 13.5896 11.4594 13.7129 10.5416C13.8334 9.64603 13.8333 8.49892 13.8333 7.03846V6.96221C13.8333 5.50175 13.8334 4.35462 13.7129 3.45901C13.5896 2.54124 13.3315 1.81307 12.7594 1.24093C12.1873 0.668802 11.4591 0.410779 10.5413 0.287388C9.64572 0.166977 8.4986 0.166983 7.03814 0.166992ZM1.94772 1.94804C2.30308 1.59268 2.78505 1.38695 3.59194 1.27847C4.4132 1.16805 5.49309 1.16699 7.00001 1.16699C8.50692 1.16699 9.58681 1.16805 10.4081 1.27847C11.215 1.38695 11.6969 1.59268 12.0523 1.94804C12.4077 2.3034 12.6134 2.78537 12.7219 3.59226C12.8323 4.41352 12.8333 5.49341 12.8333 7.00033C12.8333 8.50724 12.8323 9.58713 12.7219 10.4084C12.6134 11.2153 12.4077 11.6972 12.0523 12.0526C11.6969 12.408 11.215 12.6137 10.4081 12.7222C9.58681 12.8326 8.50692 12.8337 7.00001 12.8337C5.49309 12.8337 4.4132 12.8326 3.59194 12.7222C2.78505 12.6137 2.30308 12.408 1.94772 12.0526C1.59236 11.6972 1.38663 11.2153 1.27815 10.4084C1.16773 9.58713 1.16667 8.50724 1.16667 7.00033C1.16667 5.49341 1.16773 4.41352 1.27815 3.59226C1.38663 2.78537 1.59236 2.3034 1.94772 1.94804Z" fill="#D0D0C8"/>
</svg>
