<svg width="16" height="16" viewBox="0 0 16 16" fill="none" xmlns="http://www.w3.org/2000/svg">
<path fill-rule="evenodd" clip-rule="evenodd" d="M4.66682 4.1665C4.47905 4.1665 4.30712 4.2717 4.22164 4.43888C4.13616 4.60606 4.15154 4.80703 4.26148 4.95925L6.80787 8.48502L4.31327 10.9796C4.118 11.1749 4.118 11.4915 4.31327 11.6867C4.50853 11.882 4.82511 11.882 5.02037 11.6867L7.40092 9.30617L9.07629 11.6259C9.1703 11.7561 9.32108 11.8332 9.48163 11.8332H11.3335C11.5213 11.8332 11.6932 11.728 11.7787 11.5608C11.8641 11.3936 11.8488 11.1926 11.7388 11.0404L9.19244 7.51466L11.687 5.02006C11.8823 4.82479 11.8823 4.50821 11.687 4.31295C11.4918 4.11769 11.1752 4.11769 10.9799 4.31295L8.59938 6.6935L6.92401 4.37376C6.83001 4.2436 6.67922 4.1665 6.51867 4.1665H4.66682ZM10.3556 10.8332H9.73729L5.6447 5.1665H6.26302L10.3556 10.8332Z" fill="#D0D0C8"/>
<path fill-rule="evenodd" clip-rule="evenodd" d="M8.03827 1.1665H7.96203C6.50156 1.1665 5.35444 1.16649 4.45883 1.2869C3.54106 1.41029 2.81289 1.66831 2.24076 2.24045C1.66863 2.81258 1.4106 3.54075 1.28721 4.45852C1.1668 5.35413 1.16681 6.50125 1.16682 7.96172V8.03795C1.16681 9.49842 1.1668 10.6455 1.28721 11.5412C1.4106 12.4589 1.66863 13.1871 2.24076 13.7592C2.81289 14.3314 3.54106 14.5894 4.45883 14.7128C5.35444 14.8332 6.50155 14.8332 7.96202 14.8332H8.03826C9.49872 14.8332 10.6459 14.8332 11.5415 14.7128C12.4592 14.5894 13.1874 14.3314 13.7595 13.7592C14.3317 13.1871 14.5897 12.4589 14.7131 11.5412C14.8335 10.6455 14.8335 9.49843 14.8335 8.03797V7.96173C14.8335 6.50126 14.8335 5.35413 14.7131 4.45852C14.5897 3.54075 14.3317 2.81258 13.7595 2.24045C13.1874 1.66831 12.4592 1.41029 11.5415 1.2869C10.6459 1.16649 9.49874 1.1665 8.03827 1.1665ZM2.94787 2.94755C3.30323 2.59219 3.7852 2.38647 4.59208 2.27798C5.41335 2.16757 6.49323 2.1665 8.00015 2.1665C9.50707 2.1665 10.587 2.16757 11.4082 2.27798C12.2151 2.38647 12.6971 2.59219 13.0524 2.94755C13.4078 3.30292 13.6135 3.78488 13.722 4.59177C13.8324 5.41303 13.8335 6.49292 13.8335 7.99984C13.8335 9.50675 13.8324 10.5866 13.722 11.4079C13.6135 12.2148 13.4078 12.6968 13.0524 13.0521C12.6971 13.4075 12.2151 13.6132 11.4082 13.7217C10.587 13.8321 9.50707 13.8332 8.00015 13.8332C6.49323 13.8332 5.41335 13.8321 4.59208 13.7217C3.7852 13.6132 3.30323 13.4075 2.94787 13.0521C2.5925 12.6968 2.38678 12.2148 2.2783 11.4079C2.16788 10.5866 2.16682 9.50675 2.16682 7.99984C2.16682 6.49292 2.16788 5.41303 2.2783 4.59177C2.38678 3.78488 2.5925 3.30292 2.94787 2.94755Z" fill="#D0D0C8"/>
</svg>
