<svg width="16" height="14" viewBox="0 0 16 14" fill="none" xmlns="http://www.w3.org/2000/svg">
<path fill-rule="evenodd" clip-rule="evenodd" d="M4.46443 1.18083C5.57042 0.955382 6.76085 0.833008 7.99992 0.833008C9.23899 0.833008 10.4294 0.955382 11.5354 1.18083L11.6203 1.19811C12.8834 1.4552 13.725 1.6265 14.4502 2.55895C15.1677 3.4814 15.1672 4.55114 15.1666 6.20794V7.79141C15.1672 9.44821 15.1677 10.518 14.4502 11.4404C13.725 12.3728 12.8834 12.5441 11.6203 12.8012L11.5354 12.8185C10.4294 13.044 9.23899 13.1663 7.99992 13.1663C6.76085 13.1663 5.57042 13.044 4.46443 12.8185L4.37957 12.8012C3.11649 12.5441 2.27488 12.3728 1.54965 11.4404C0.832197 10.518 0.832598 9.44821 0.833219 7.79141V6.20794C0.832598 4.55114 0.832197 3.4814 1.54965 2.55895C2.27488 1.6265 3.11649 1.4552 4.37957 1.19811L4.46443 1.18083ZM7.52961 4.50117C7.8753 4.64625 8.29521 4.88076 8.80862 5.16749C8.87621 5.20524 8.94412 5.24273 9.0121 5.28026C9.3477 5.46553 9.68525 5.65188 9.99651 5.87569C10.2762 6.07684 10.5417 6.3261 10.6295 6.68961C10.6788 6.89368 10.6788 7.10567 10.6295 7.30974C10.5417 7.67325 10.2762 7.92251 9.99651 8.12366C9.68523 8.34749 9.34766 8.53385 9.01204 8.71913C8.94408 8.75665 8.87619 8.79412 8.80863 8.83185C8.29521 9.11859 7.8753 9.3531 7.52961 9.49818C6.96761 9.73404 6.37166 9.75312 5.88185 9.3518C5.57529 9.10062 5.46692 8.74097 5.41938 8.37853C5.30447 7.50258 5.30443 6.49713 5.41938 5.62082C5.46692 5.25838 5.57529 4.89873 5.88185 4.64755C6.37166 4.24623 6.96761 4.26531 7.52961 4.50117Z" fill="#222222"/>
</svg>
