<svg width="1376" height="700" viewBox="0 0 1376 700" fill="none" xmlns="http://www.w3.org/2000/svg">
<g clip-path="url(#clip0_455_621)">
<rect width="1376" height="700" fill="#222222"/>
<rect width="1376" height="700" fill="url(#paint0_linear_455_621)" fill-opacity="0.5"/>
<line x1="1355.62" y1="3.67538e-08" x2="1355.62" y2="715" stroke="white" stroke-opacity="0.05" stroke-width="1.17281"/>
<line x1="1244.38" y1="3.67538e-08" x2="1244.38" y2="715" stroke="white" stroke-opacity="0.05" stroke-width="1.17281"/>
<line x1="1133.14" y1="3.67538e-08" x2="1133.14" y2="715" stroke="white" stroke-opacity="0.05" stroke-width="1.17281"/>
<line x1="1021.9" y1="3.67538e-08" x2="1021.9" y2="715" stroke="white" stroke-opacity="0.05" stroke-width="1.17281"/>
<line x1="910.656" y1="3.67538e-08" x2="910.656" y2="715" stroke="white" stroke-opacity="0.05" stroke-width="1.17281"/>
<line x1="799.419" y1="3.67538e-08" x2="799.419" y2="715" stroke="white" stroke-opacity="0.05" stroke-width="1.17281"/>
<line x1="688.179" y1="3.67538e-08" x2="688.179" y2="715" stroke="white" stroke-opacity="0.05" stroke-width="1.17281"/>
<line x1="576.938" y1="3.67538e-08" x2="576.938" y2="715" stroke="white" stroke-opacity="0.05" stroke-width="1.17281"/>
<line x1="465.698" y1="3.67538e-08" x2="465.698" y2="715" stroke="white" stroke-opacity="0.05" stroke-width="1.17281"/>
<line x1="354.459" y1="3.67538e-08" x2="354.459" y2="715" stroke="white" stroke-opacity="0.05" stroke-width="1.17281"/>
<line x1="243.22" y1="3.67538e-08" x2="243.22" y2="715" stroke="white" stroke-opacity="0.05" stroke-width="1.17281"/>
<line x1="131.98" y1="3.67538e-08" x2="131.98" y2="715" stroke="white" stroke-opacity="0.05" stroke-width="1.17281"/>
<line x1="20.7396" y1="3.67538e-08" x2="20.7396" y2="715" stroke="white" stroke-opacity="0.05" stroke-width="1.17281"/>
<line x1="-118.897" y1="524.72" x2="1494.9" y2="524.72" stroke="white" stroke-opacity="0.05" stroke-width="1.17281"/>
<line x1="-118.897" y1="349.618" x2="1494.9" y2="349.618" stroke="white" stroke-opacity="0.05" stroke-width="1.17281"/>
<line x1="-118.897" y1="174.516" x2="1494.9" y2="174.516" stroke="white" stroke-opacity="0.05" stroke-width="1.17281"/>
<line x1="-118.897" y1="-0.586407" x2="1494.9" y2="-0.586266" stroke="white" stroke-opacity="0.05" stroke-width="1.17281"/>
<rect y="429" width="1376" height="274" fill="url(#paint1_linear_455_621)"/>
</g>
<defs>
<linearGradient id="paint0_linear_455_621" x1="1376" y1="-3.77851e-05" x2="-0.906378" y2="707.504" gradientUnits="userSpaceOnUse">
<stop offset="0.348626" stop-color="#909090" stop-opacity="0"/>
<stop offset="1" stop-color="#909090"/>
</linearGradient>
<linearGradient id="paint1_linear_455_621" x1="688" y1="429" x2="688" y2="703" gradientUnits="userSpaceOnUse">
<stop stop-color="#272727" stop-opacity="0"/>
<stop offset="1" stop-color="#222222"/>
</linearGradient>
<clipPath id="clip0_455_621">
<rect width="1376" height="700" fill="white"/>
</clipPath>
</defs>
</svg>
